<?xml version="1.0" encoding="UTF-8"?><svg id="Layer_1" xmlns="http://www.w3.org/2000/svg" viewBox="0 0 1920 1080"><defs><style>.cls-1{fill:#432a26;}.cls-2{fill:#f5b519;}.cls-3{fill:none;}</style></defs><g><path class="cls-2" d="M639.31,506.25s.07,.05,.11,.08h.1l-.2-.08Z"/><path class="cls-2" d="M709.85,546.99c2.25,.11,4.63-.93,6.84-1.72,4.6-1.64,8.71-4.5,13.74-5.18,1.23-.16,2.88-.86,3.69-2.58,.43-.91-3.23-2.89,.04-1.96,4.61,1.32,4.48-5.17,8.48-4.06,.53,.15,.01-1.07-.62-1.37-1.72-.82-1.94-2.32-1.88-3.97-2.79-2.57-6.27-3.58-9.81-4.66-.06-.02-.13-.04-.19-.06-3.14,1.26-5.73-.03-8.74-1.69,.62-.29,1.19-.44,1.73-.49-5.24-1.67-10.45-3.42-15.64-5.24-16.64-5.84-33.53-10.53-51.23-11.67-1.25-.08-2.56-.26-3.63,.19,1.23,.18,2.46,.32,3.7,.39,10.08,1.71,20.13,3.48,30.21,5.08,2.59,.41,4.84,1.23,6.66,3.11,.09,.02,.17,.03,.26,.05l-.04,.06,.05-.06s.05,.07,.07,.11c.7-.01,1.41-.1,2.07,.06,.41,.1,.27,.76-.32,.87-.77,.15-1.38-.23-1.74-.93-.05,0-.11,0-.16,0-.05-.06-.11-.11-.17-.16-13.61-2.56-27.3-4.59-41.06-6.2,.98,.61,1.55,1.61,1.91,2.8,10.06,1.7,20.12,3.47,30.2,5.07,2.59,.41,4.84,1.23,6.65,3.11-14.48-2.72-29.04-4.87-43.68-6.51-2.74-.31-5.51-1.23-7.81-3.04-1.63,.24-3.25,.44-4.04-1.51-3.53,.01-7.12,.12-4.17-5.24,.49-.9,.21-2.33-.8-2.75-3.85-1.58-2.46-6.04-4.82-8.38-2.74,1.45-5.49,2.9-8.95,4.73,.17-6.73,4.74-10.2,7.75-14.49,.05-2.35,.9-4.25,2.39-5.94,.28-.32,.57-.63,.89-.93,2.63-2.48,5.06-5.18,5.99-8.85,.01-.05,.03-.1,.04-.15-6.45-1.6-7.24-3-4.48-8.22,1.73-3.27,3.45-6.51,5.98-9.32,6.71-7.46,10.64-16.93,17.39-24.4,6.08-6.73,11.71-13.85,17.36-20.95,3.3-4.14,7-8,14.05-4.62-2.5-7.82,.76-12.13,5.79-16.11,4.04-3.2,6.36-8.72,11.22-10.68,5.68-2.29,7.79-7.2,11.11-11.42,2.18-2.77,2.55-4.36-.62-6.22-3.86-2.26-3.48-4.52-.18-7.19,1.58-1.28,2.71-3.25,3.74-5.07,2.68-4.73,5.04-5.63,9.39-2.36,1.72,1.3,3.18,1.06,4.81,1.08,.06,0,.12,0,.18,0,0-.11,0-.21,0-.31,.03-1.23,.52-2.05,1.41-2.5,.44-.22,.97-.37,1.6-.42,6.8-6.73,10.34-15.72,17.32-23.13-.65-.04-1.21-.02-1.68,.03-1.48,.17-2.25,.73-3.1,1.31-10.24,6.98-20.62,13.75-30.84,20.77-19.62,13.48-41.78,22.51-61.8,35.31-17.15,10.97-36.37,18.12-54.1,28.06-4.36,2.44-10.68,3.66-12.77,7.33-3.2,5.62-8.61,2.15-11.84,5.15-2.38-3.5-4.07,1.73-5.15,.74-4.2-3.8-7.77-1.17-10.55,1.22-3.57,3.07-1.61-1.97-3-1.6-5.39,3.18-5.88,3.15-8.75-1.32-1.13-1.77-2.21-3.66-2.87-5.64-1.05-3.12-2.35-5.52-5.78-6.93-2.93-1.21-5.08-4.02-4.94-7.56,.14-3.38-.35-5.55-4.29-6.57-1.94-.5-2.52-2.86,.26-4.72,5.59-3.73,5.94-6.42,1.71-10.85-1.11-1.17-2.2-2.18-2.76-3.73-6.56-18.12-12.44-36.46-18.15-54.86-.06-.2,.16-.48,.25-.72,3.79,.23,1.98,4.45,4.24,5.95,.61-2.53-.19-4.79-.85-7.04-.22-.75-.71-2.08-.97-2.06-8.55,.78-5.23-6.58-7.02-10.31-1.23-2.57-1.38-5.54-3.21-8.01-1.29-1.74-4.12-4.89,1.85-4.33,1.62,.15,1.12-4.58-1.07-6.41-7.23-6.07-9.52-12.86-7.43-22.02,.67-2.92,.11-3.35-3.68-2.79-.03,0,0,.47,0,.72-.23-.43-.47-.86-.68-1.3-2.73-5.74-3.87-12.02-6.01-17.94-1.36-3.75,1.73-3.47,3.57-4.49-.27-2.98-4.16-1.66-4.94-4.42-.04-.13-.07-.26-.1-.4,.05,0,.09,0,.14,0,4.44,.38,3.67-3.55,3.7-5.8,.02-1.2-1.44-1.44-2.94-1.41-.63,.01-1.27,.07-1.81,.12-1.01,9.98-2.2,19.95-2.98,29.95-1.86,23.68-3.04,47.43-6.66,70.95-4.14,26.89-8.65,53.71-14.87,80.22-2.15,9.18-4.26,18.37-6.48,27.53-1.9,7.85-3.86,15.69-5.92,23.5-.1,.37-.19,.74-.28,1.1-.61,2.3-1.55,4.49-4.71,4.48-3,0-5.52-.82-5.87-4.01-.38-3.49-2.42-4.05-5.28-4.56-2.6-.47-5.12-1.29-7.81-1.02-.19,2.37-1.16,3.54-3.38,1.81-1.18-.92-2.03-2.27-3.03-3.42-.45-.28-.85-.71-1.34-.83-22-5.53-43.98-11.14-66.02-16.49-11.06-2.68-22.07-5.66-33.35-7.27-2.42-.35-4.85-.63-7.3-.83,3.04,4.31,7.2,7.52,11.02,11.03,14.87,13.65,29.21,27.88,41.94,43.52,8.5,10.44,16.92,20.94,25.67,31.18,6.27,7.34,13.34,13.61,22.46,17.2,2.78,1.09,3.8,3.01,4.15,6.06,.12,1.04,.1,1.98-.03,2.85-.54,3.68-3.13,5.96-6.24,8.14-6.78,4.77-14.67,7.26-22,10.89-1.26,.44-2.53,.89-3.79,1.33-1.16,1.93-3.29,1.03-4.91,1.64l.17-.11c-4.17,2.63-8.25,5.63-13.64,3.42-6.44,.07-12.35,2.63-18.44,4.17-33.14,8.37-65.25,19.93-97.24,31.85-6.63,2.47-13.22,5.07-19.61,8.15-1.69,.81-3.37,1.65-5.02,2.54,1.07,1.9,2.48,2.69,4.14,2.07,7.13-2.63,14.59-2.48,21.86-1.8,8.78,.82,18.08-1.97,26.31,3.32,.59,.38,1.67,.48,2.32,.21,6.82-2.79,13.63-.73,20.34,.22,19.44,2.75,38.47,7.3,56.86,14.28,12.04,4.57,24.34,8.32,36.75,11.71,6.5-1.41,12.18,.19,17.08,4.63,0,0,.58,.19,.58,.19,.03-1.11-.75-2.93,.51-3.12,1.87-.27,1.12,1.5,1.03,2.58,11.28-.2,10.99-.15,12.59,10.75,3.01,20.45,2.24,40.94,1.25,61.44-.39,8.17-1.9,16.34-1.7,24.49,.34,13.43-1.2,26.73-1.91,40.08-.09,1.66,.05,3.12,.6,4.61,.67-1.17,1.42-2.3,2.16-3.44,2.32-3.53,4.58-7.08,4.14-11.75,5.36-1.45,6.97-6.75,9.36-10.51,8.6-13.52,16.25-27.65,24.2-41.58,1.04-1.83,1.74-3.86,2.62-5.78,2.59-5.69,4-11.89,8.48-16.74,2.44-2.65,1.67-4-2.05-5.47-2.41-.95-1.35-2.81-.47-3.61,1.89-1.7,4.9-1.95,6.67-3.41,1.02-.83-1.04-4.38,1.41-6.2,1.51-1.12,2.43-2.74,3.23-4.45,.46-.99,1.4-1.54,2.58-1.48,8.37,.39,8.4-.87,12.37-7.79,3.64-6.33,5.53-13.85,11.3-18.93-.27-1.7-.07-3.22,1.66-4.13,1.05-1.35,1.74-2.86,2.31-4.42,.1-.27,.2-.53,.29-.8,.61-1.84,1.1-3.72,1.79-5.52,.48-1.24,1.03-2.32,1.73-3.19,1.14-1.44,2.68-2.35,4.98-2.62,4.19-.49,8.5-.87,12.46-2.19,4.71-1.56,7.49,.36,10.3,3.61,5.72,6.6,10.92,13.62,16.65,20.22,3.07,3.53,6.23,7.15,8.93,11.11,8.94,13.12,18.13,26.08,27.33,39.03,11.04,15.54,23.27,30.04,37.59,42.72,5.32,4.71,9.71,10.45,15.78,14.35,.04-.26-.01-.62,.14-.77,.9-.9,2.29-1.29,3.51-1.82,1.23-.53,2.28-1.21,2.43-2.69,.28-2.77-.74-5.7-1.35-8.53-5.06-23.46-10.56-46.84-15.1-70.4-2.89-15.02-7.48-29.74-8.4-45.14-.15-2.57-1.23-5.09-1.94-7.61-.74-2.62-2.89-5.29,1.83-6.84,1.57-.52,.49-3.27,.22-5.11-.86-5.7-2.63-11.61,2.11-16.63-.09-2.62,.7-4.28,2.31-5.36,.94-.64,2.16-1.08,3.66-1.4,13.35-2.85,26.64-5.97,39.89-9.26,3.99-.99,8.4-.72,11.86-3.52,1.8-.18,3.73,.11,5.21-1.34l-.02,.27c1.58-1.86,3.17-3.68,4.94-5.2,2.78-2.39,6.02-4.01,10.44-3.79Zm-179.86-68.25c.22-7.55,2.29-14.65,5.34-21.47,.54-1.22,1.06-2.24,1.57-3.09,.24-.56,.47-1.13,.72-1.69,2.84-6.36,4.74-7.41,11.79-6.74,2.35,.23,4.74,.62,6.99,1.31,5.41,1.67,6.54,4.11,5.39,9.47-1.21,5.59-1.59,11.37-3.72,16.76-.78,1.96-1.47,4.01-2.57,5.78-.09,.15-.18,.28-.28,.42-.58,1.51-1.18,3.01-2.02,4.36-2.26,3.65-5.34,5.87-9.98,4.6-1.27-.35-2.57-.56-3.17-.68-9.2,.3-10.32-.82-10.08-9.04Zm-40.36-12.92c.19,2.09,.03,4.22,.03,6.33,.23,6.15-.62,12.11-3.32,17.71-.37,.77-.77,1.54-1.21,2.24-.32,.85-.67,1.7-1.08,2.54-1.56,3.23-3.54,6.35-7.66,5.49-4.02-.84-8.63,.56-11.29-5.17-3.98-8.54-1.95-16.36,.43-24.43,.32-1.09,1.18-2.01,1.78-3.02,.17-.59,.34-1.17,.51-1.76,.36-1.22,1.41-2.23,1.99-3.4q3.76-7.58,11.8-5.67c5.63,1.34,7.51,3.4,8.03,9.14Zm-42.79,258.45c-.37-.14-.77-.18-.84-.34-.65-1.62-3.28-2-2.8-4.22,.16-.77,1.25-1.02,1.95-.68,2.31,1.14,2.62,2.99,1.69,5.25Zm49.45-82.93c-.28-.07-.61-.83-.55-1.23,.12-.84,.86-1.26,1.64-1.2,.21,.02,.36,.84,.54,1.3-.22,.85-.81,1.33-1.63,1.13Zm6.89-12.16c.46,3.46-1.1,5.69-4.71,7.3,.22-3.58,1.5-6.01,4.43-7.56-.16-.65,.27-1.33,.71-1.07,1.17,.69,.47,1.12-.43,1.34Zm-12.83-44.78c-7.85-1.82-14.88-5.56-21.9-9.34-2.67-1.44-4.87-4.1-8.42-3.4l-.02,.03c.34-3.05-2.6-3.43-4.13-4.88-2.9-2.77-6.48-4.97-6.92-9.5-4.2-1.36-5.07-4.07-3.21-7.89,.37-4.32,.33-8.66,2.42-12.73,.35-.68,.72-1.27,1.11-1.75,.29-1.02,.67-2.04,1.19-3.03,1.66-3.23,3.63-4.3,6.98-2.72,5.74,2.71,11.51,5.36,17.28,8.01,18.29,8.41,37.31,12.95,57.56,10.52,7.17-.86,13.89-3.37,20.17-6.88,3.92-2.19,7.63-4.77,11.41-7.2,7.41-4.75,13.99-10.2,18.3-17.82,.5-1.24,.99-2.23,1.52-2.97,.25-.54,.48-1.09,.71-1.65,2-5.02,3.74-6.22,8.89-2.64,6.88,4.79,7.61,5.73,4.93,13.58-.83,2.44-1.75,4.95-3.13,7.11-.64,1.71-1.38,3.39-2.35,4.89-7.96,12.24-16.65,23.91-27.59,33.72-15.42,13.82-33.37,18.39-53.66,15.05-3.01-.49-6.24-1.69-9.25-.98,.47,.14,.97,.23,1.46,.35,8.15,2.08,16.41,1.89,24.65,1.58-9.68,2.44-19.03,1.92-28.12-1.1-.68,.41-1.35,.94-1.98,1.66-.09,2.25,1.67,2.26,3.16,2.64,8.15,2.08,16.41,1.89,24.65,1.58-12.39,3.13-24.26,1.41-35.7-4.21Zm136.22,11.09c-2.69-3.69-1.82-6.82-2.19-10.33q2.8,4.95,2.19,10.33Zm101.83-69.51c-3.39,1.66-6.11,.31-9.29-1.45,4.01-1.89,6.17,1.91,9.29,1.45Zm-11.09-7.08c-5.91-1.76-11.81-3.51-19.4-5.77,8.5-.98,13.73,3.17,19.4,5.77Zm-2.29,4.78c-5.91-1.76-11.81-3.51-19.4-5.77,8.5-.98,13.73,3.17,19.4,5.77Zm-21.71-7.59c.41,.1,.27,.76-.32,.87-.77,.15-1.38-.23-1.74-.93,.7-.01,1.41-.1,2.07,.06Z"/><path class="cls-2" d="M380.22,547.82l.13-.05s.03-.05,.05-.07l-.18,.12Z"/><path class="cls-2" d="M635.33,504.71s.04,.07,.05,.11h.09l-.15-.11Z"/><path class="cls-2" d="M506.42,633.86s-.07,.07-.11,.1c0,.02,0,.03,0,.05l.1-.15Z"/><path class="cls-2" d="M729.58,337.36s-.08,0-.12,0c0,.04,0,.08,0,.12l.12-.12Z"/><path class="cls-2" d="M306.93,415.55c.08,0,.15,.01,.23,.02-.03-.05-.07-.09-.1-.13l-.13,.11Z"/><path class="cls-2" d="M1056.04,761.58c.15-.07,.29-.14,.44-.21-.23-.01-.46-.03-.69-.04l.25,.25Z"/><path class="cls-2" d="M1668.54,548.45c-2.32-7.48-6.63-11.39-12.41-14.98-13.41-8.36-28.81-9.72-43.86-11.7-9.35-1.23-17.78,2.98-23.95,9.75-5.51,6.04-9.97,13.15-14.23,20.19-9.67,15.98-11.64,34.28-13.88,52.18-1.67,13.3,.06,26.66,9.18,38.33h9.59c.1,8.45,5.56,10.12,12.22,10.23,1.25,.02,2.51,.31,3.75,.22,6.83-.47,13.7-1.73,20.48-1.36,7.32,.4,12.19-2.49,15.58-8.39,2.37-4.12,4.57-8.42,6.21-12.87,3.74-10.16,7-20.48,10.68-30.66,.51-1.41,2.33-2.36,5.2-5.12-1.48,12.29-2.47,22.36-4,32.35-.56,3.65-2.42,7.1-3.64,10.65-9.42,27.65-18.7,55.38-34.27,80.39-6.21,9.98-12.53,19.96-19.56,29.37-13.23,17.71-29.09,33.01-46.5,46.51-11.78,9.13-24.15,17.24-39.72,19.61-23.95,3.65-47.8,2.78-71.44-.88-40.62-6.29-80.22-16.83-119.36-29.52-39.34-12.76-79.17-24.06-120.24-30.09-29.36-4.31-58.84-7.17-88.49-3.56-11.92,1.45-23.79,3.59-35.52,6.17-4.84,1.07-9.27,3.95-13.88,6.09,1.65,.09,3.42,.19,6.16,.34-13.72,11.91-26.02,23.7-31.79,40.48,1.28,.55,2.25,.97,2.69,1.16-2.14,5.09-4.43,9.53-5.85,14.23-.97,3.21-.7,6.79-1.04,10.2-.37,3.7-.8,7.39-1.18,10.85,7.17,2.71,7.23,2.82,11.44,.43,2.76-1.57,5.46-3.32,7.94-5.3,13.49-10.78,27.31-20.81,42.92-28.64,13.15-6.59,26.47-9.68,40.93-9.71,17.1-.03,34.26-1.45,51.28-.42,21.57,1.3,43.34,2.91,64.45,7.21,23.94,4.87,47.2,13.01,70.83,19.48,37.18,10.18,74.7,18.52,112.91,24.35,26.36,4.02,52.59,5.59,79.08,5.23,14.39-.19,28.7-1.15,42.02-7.52,23.2-11.1,43.62-26.21,61.54-44.45,19.91-20.27,35.91-43.58,48.63-68.95,6.09-12.16,11.34-24.84,15.8-37.7,5.85-16.89,9.5-34.65,8.51-52.43-1.73-31.04-5.9-61.8-15.18-91.77Zm-32.13,37.44c-2.95,15.7-11.72,28.45-20.76,42.18-9.23-6.23-11.49-14.63-11.93-23.05-.5-9.41,.28-18.98,1.48-28.35,1.46-11.39,6.28-21.04,18.06-26.09,7.32,6.75,10.65,16.02,13.98,25.07,1.07,2.93-.19,6.85-.82,10.24Z"/><path class="cls-2" d="M1496.33,537.26c1.41,11.02,4.24,21.87,5.44,32.91,3.52,32.28,6.54,64.61,9.68,96.92,.19,1.91-.32,3.88-.5,5.82-3.39-3.93-5.65-7.77-7.38-11.83-4.97-11.67-9.5-23.52-14.61-35.13-7.53-17.13-15.19-34.22-23.23-51.12-4.66-9.8-9.59-19.38-10.17-30.51-.26-4.95-2.17-8.32-7.81-9.08-7.49-1-14.9-2.65-22.2-4-4.81,5.86-5.02,12.41-5.35,18.62-1.6,30.3-.18,60.56,3.52,90.62,3.22,26.18,8.11,52.14,15.49,77.51,2.84,9.75,6.84,19.17,10.3,28.74,2.61,7.22,9.09,10.27,15.13,13.54,3.92,2.12,7.42,.43,9.22-3.84,.84-1.99,1.38-4.31,1.31-6.45-.37-12.08-.38-24.21-1.63-36.2-2.2-21.17-5.23-42.26-7.84-63.39-.28-2.26-.04-4.58-.04-8.15,1.6,1.91,2.43,2.51,2.73,3.31,5.25,13.95,10.18,28.02,15.69,41.86,6.95,17.45,14.2,34.79,21.66,52.03,2.8,6.47,5.95,7.69,12.87,6.47,7.25-1.27,14.48-2.67,22.76-4.21,.27-2.17,1.02-4.93,.9-7.66-.91-21.34-1.84-42.69-3.08-64.02-.72-12.4-2.55-24.75-2.91-37.16-.36-12.58-3.94-24.93-2.31-37.62,.28-2.18-.05-4.46-.26-6.68-.98-10.67-1.9-21.34-3.06-31.99-1.13-10.42-2.5-20.82-3.94-32.64-10.13-.89-19.12-1.69-29.53-2.61-.39,6.14-1.47,11.13-.86,15.91Z"/><path class="cls-2" d="M1233.72,613.35c5.14,8.71,10.24,17.43,15.24,26.22,13.32,23.44,26.09,47.21,40.04,70.27,8.87,14.65,18.57,28.96,31.87,40.87,2.71-2.22,5.34-6.17,7.9-6.13,7.91,.13,13.1-5.13,20.42-8.24-1.73-8.25-3.16-16.71-5.29-24.98-5.89-22.83-12.23-45.61-14.18-69.18-2.37-28.57-3.9-57.21-5.91-85.81-.41-5.88-1.36-11.72-2.11-18.02-8.68,.63-16.13,1.16-25.56,1.84,3.71,21.82,8.27,42.46,8.83,63.72,.57,21.45,3.74,42.83,5.77,64.25l-2.34,.7c-4.34-6.95-8.51-14.02-13.06-20.83-11.96-17.94-23.1-36.37-36.02-53.76-9.43-12.69-18.77-25.44-29.65-36.73-19.24-19.97-10.81-16.93-38.35-14.97-8.68,.62-9.78,1.82-9.76,11.21,.03,25.52,5.61,50.37,9.47,75.4,2.85,18.5,6.63,36.87,10.19,55.26,2.21,11.43,3.79,23.12,10.55,33.16,6.54-4.37,6.54-4.34,17.91-5.18,.77-.06,1.43-1.11,2.21-1.58,2.58-1.55,5.08-3.3,7.81-4.53,9.17-4.15,9.27-4.09,7.32-13.08-5.32-24.59-10.72-49.16-16.03-73.75-.57-2.62-.76-5.32-1.43-10.1,2.51,2.37,3.6,3.02,4.16,3.98Z"/><path class="cls-2" d="M1526.65,469.26c2.89,6.44,6.18,12.53,12.96,15.85,4.1,2.01,6.48,1.14,7.71-3.22,.94-3.35,1.85-6.71,2.69-10.08,1.46-5.81,4.21-11.67,4.04-17.44-.7-24.85-2.26-49.67-3.51-74.5-.2-3.91-.45-7.81-.68-11.72,10.61,15.39,13.24,34.37,24.56,47.54,9.18-3,17.06-5.58,25.35-8.29,.49-11.1,.92-22.56,1.52-34.01,.65-12.27,4.03-26.76,7.84-33.74,.68,18.96,1.49,37.42,1.94,55.88,.17,6.96-.64,13.94-.71,20.92-.13,12.31-.41,24.64,.08,36.94,.37,9.14,1.32,18.34,3.07,27.31,.91,4.66,4.09,8.87,6.48,13.75,5.87-2.43,6.32,2.44,7.14,5.89,.66-4.11,.49-8.77,2.28-12.49,1.62-3.37,5.36-5.72,8.17-8.53,.26,1.06,.68,2.75,1.19,4.81,3.92-1.71,7.2-2.68,9.92-4.49,1.82-1.21,4.04-3.66,3.99-5.5-.25-10.46-.54-20.98-1.93-31.34-2.99-22.42-6.6-44.75-10.06-67.11-4.23-27.39-8.34-54.8-13.02-82.12-1.09-6.33,.31-13.51-4.35-18.91-12.37,.24-12.66,.19-14.57,11.38-4.73,27.72-12.93,54.53-20.83,81.43-.45,1.53-1.55,2.87-2.96,5.4-6.96-13.08-13.34-24.71-19.4-36.52-7.14-13.92-14.57-27.63-24.32-39.96-1.53-1.94-2.78-4.26-3.54-6.61-1.45-4.49-4.39-7.37-8.93-7.26-4.91,.11-5.57,4.48-6.23,8.31-2.2,12.85-4.58,25.68-6.49,38.58-1.77,11.96-3.79,23.95-4.32,35.99-.63,14.32,0,28.72,.48,43.07,.72,21.2,5.73,41.45,14.41,60.79Z"/><path class="cls-2" d="M1155.19,415.97c2.91,16.24,6.44,32.38,10.08,48.48,1.71,7.54,4.32,14.88,6.58,22.53,5.16-1.86,9.5-4.05,14.1-4.93,6.22-1.18,10.11-4.26,9.19-10.65-2.03-14.06,.66-28.78-5.85-42.23-.49-1.01-.02-2.48-.07-3.73-.37-9.61-.75-19.22-1.14-28.91,1.33,1.68,3.07,3.48,4.36,5.56,15.49,24.85,31.31,49.52,46.15,74.76,4.97,8.45,11.27,14.7,18.86,19.37,4.37-1.53,8.39-3.36,12.61-4.29,4.41-.97,9-1.07,14.16-1.62-25.81-68.34-32.39-139.66-40.37-211.58-4.5,.24-8.86,.83-13.18,.62-5.57-.27-7.35,2.95-7.76,7.51-.23,2.51,.1,5.09,.38,7.62,.98,8.87,2.09,17.73,3.08,26.6,2.54,22.81,5.01,45.63,7.56,68.43,.75,6.65,1.7,13.28,2.55,19.92-3.74-2.73-5.95-5.79-7.9-9.01-12.1-20-26.85-37.98-42.61-55.12-5.26-5.72-9.41-11.7-12.15-18.98-4.93-13.12-7.11-14.3-21.2-13.6-.93,.05-1.86,.38-3.7,.77-.9,3.25-2.72,6.84-2.76,10.45-.14,12.74-.57,25.58,.78,38.2,1.94,18.03,5.03,35.95,8.23,53.81Z"/><path class="cls-2" d="M908.24,503.34c-1.59-1.98-2.12-5.83-1.91-8.72,.68-9.71,3.4-19.52,2.65-29.02-2.12-26.6-4.96-53.17-8.7-79.54-3.62-25.57-8.39-50.95-13.23-76.27-3.67-19.2-11.81-27.39-28.65-29.87-7.58-1.12-15.28-1.21-22.93-1.69-12.07-.76-15.98,1.47-20.52,13.59-2.35,6.28-5.12,11.44-10.62,14.72-2.15,1.28-3.76,3.87-5.42,6.04-11.32,14.76-17.07,32.32-20.32,51.19-7,40.68-7.93,81.12,5.58,120.42,7.79,22.68,17.96,43.92,35.01,60.04,3.48,3.29,6.24,2.9,9.86,.97,1.59,3.86,2.74,6.65,3.89,9.45,1.92-1.06,3.75-2.5,5.77-3.08,1.83-.52,3.87-.11,6.38-.11-.92,2.57-1.48,4.12-2.52,7.02,25.02-4.79,48.42-10.09,61.21-37.98,8.04,.79,15.11,8.75,25.26,3.88-3.81-4.23-6.69-7.74-9.87-10.87-3.55-3.51-7.78-6.27-10.91-10.17Zm-56.53-37.7c.32,.19,.84,.35,.91,.64,2.93,11.08,12.41,15.81,18.37,23.97,9.51,13.02,10.05,17.89,1.41,31.49-.84,1.33-1.89,2.5-3.16,4.18-14.04,.61-24.68-8.45-34.89-17.46-19.99-17.63-27.29-42.95-29.51-69.94-3.31-40.23,4.03-78.43,20.68-114.31,1.63-3.51,2.95-6.85,7.28-4.85-.5-1.49-1-2.97-1.5-4.46,.55-.35,1.09-.69,1.64-1.04,1.96,2.48,3.98,4.91,5.75,7.56,.13,.2-1.49,1.9-2.3,2.9,14.31,23.59,24.42,49.51,33.02,76.23,7.01,21.78,9.58,44.53,9.96,68.46-1.39-2.41-3.15-4.65-4.09-7.26-2.33-6.43-3.98-13.18-6.47-19.53-2.77-7.06-6.21-9.06-13.06-8.14-4.65,.62-9.24,1.81-14.46,2.86,.84,11.11-.2,22.45,10.45,28.69Z"/><path class="cls-2" d="M894.52,750.47c-7.01-9.29-8.21-20.4-13.34-29.74-.82-1.5-.33-3.73-.44-5.62-.15-2.54,.04-5.16-.52-7.61-3.73-16.36-7.96-32.61-11.34-49.04-3.11-15.13-3.32-30.29,1.91-45.22,1.27-3.63,2.82-5.51,7.16-4.67,3.98,8.33,8.03,16.82,12.12,25.38q5.62-3.69,5.73-7.92c.52-20.63-7.51-29.75-27.93-31.68-.32-.03-.65-.01-.95-.11-4.81-1.47-8.58,.37-12.21,3.43-7.4,6.25-13.37,13.47-17.69,22.24-7.57,15.37-11.63,31.74-13.29,48.56-2.14,21.77-.84,43.41,3,65.1,2.47,13.97,7.21,26.86,11.32,38.02,3.99,2.59,6.46,4.16,8.89,5.77,6.48,4.3,12.72,9.02,19.48,12.8,6.98,3.9,14.28-.37,21.46-.46,2.59-7.17,9.25-3.38,13.88-5.05,2.24-.81,4.81-.68,7.63-1.02,2.51-11.89,5.55-23.08,7.08-34.48,1.55-11.49,3.54-23.2,.11-35.47-10.89,10.32-13.42,24.78-22.04,36.78Z"/><path class="cls-2" d="M1432.44,492.52c1.83-.69,3.22-1.39,4.68-1.74,7.96-1.94,16.18-3.12,23.85-5.86,7.35-2.63,12.88-8.76,19.69-12.65,1.3-.74,2.68-2.02,3.19-3.36,3.35-8.89,7.86-17.63,9.44-26.85,7.16-41.63,2.66-82.52-9.6-122.76-2.12-6.97-6.1-12.38-10.92-17.6-3.23-3.49-6.44-4.9-11.8-3.06-2.56,11.46-7.46,22.05-6.31,33.91,1.17,12.04,2.17,24.11,2.96,36.18,1.1,16.83,4.09,33.57,2.05,50.55-1.24,10.36-2.37,20.68-8.08,30.11-2.53-3.03-5.72-5.3-6.69-8.29-4.39-13.61-9.1-27.24-11.94-41.22-4.68-23.07-8.04-46.42-11.84-69.67-.54-3.32-1.12-6.57-4.84-7.38-4.3-.95-5.2,2.75-6.42,5.63-.74,1.75-1.44,3.6-1.68,5.46-1.4,10.72-3.35,21.42-3.84,32.19-1.25,27.48,2,54.71,5.93,81.85,2.5,17.28,11.12,31.54,22.15,44.56Z"/><path class="cls-2" d="M1039.21,700.65c-5.28-.32-10.46,0-15.31-1.11-4.5-1.03-7.07,.44-9.93,3.49-8.05,8.61-16.34,17-24.63,25.38-1.4,1.42-3.27,2.37-5.35,3.84-3.79-22.89-7.01-44.9-11.18-66.73-2.9-15.2-7.37-30.1-10.65-45.24-3.53-16.27-9.29-31.7-16.54-46.6-3.64-7.47-6.13-8.41-14.88-7.37-1.42,38.37,4.91,76.03,9.62,113.88,6.2,49.74,15.16,106.96,18.71,112.82,9.54-1.72,18.83-3.39,30.02-5.41,1.28-2.75,2.97-6.89,5.08-10.8,5.88-10.88,11.26-22.13,18.12-32.37,6.34-9.46,14.26-17.87,21.65-26.6,4.08-4.82,6.04-10.11,5.27-17.19Z"/><path class="cls-2" d="M1062.38,490.7c.28-2.27,.44-4.78,.93-7.21,.28-1.4,.82-3.59,1.73-3.87,3.64-1.14,3.64-3.96,4.01-6.82,1.06-8.21,2.47-16.39,3.23-24.62,1.47-15.93,1.32-15.98,16.82-20.05,3-.79,6.12-1.14,10.04-1.85,7.1,20.2,14.02,39.91,20.77,59.11,9.12,3.18,11.73-4.62,15.91-9.15,1.8,.9,3.09,1.54,4.25,2.12,3.82-3.97,2.51-7.84,1.09-11.88-12.85-36.62-25.31-73.37-38.56-109.84-5.74-15.81-13.1-31.03-19.62-46.57-3.08-7.36-8.66-9.69-17.75-8.46-2.61,15.62-5.56,30.91-7.64,46.32-1.96,14.49-2.73,29.13-4.55,43.65-1.3,10.35-4.05,20.53-5.12,30.89-2.25,21.71-5.84,43.37-3.94,65.46q9.78,4.97,18.39,2.76Zm15.44-103.69c.35-4.73-.02-9.5,.04-14.26,.05-3.45,.27-6.91,.41-10.36l1.86-.05c4.46,14.89,8.92,29.77,13.65,45.59-5.77,2.51-11.48,4.99-18.79,8.17,1.07-10.8,2.13-19.93,2.81-29.08Z"/><path class="cls-2" d="M1326.05,322.69c.18,3.75,.45,6.85,.46,9.96,.03,10.84-.04,21.68-.06,32.52-.02,14.6,.51,29.23-.19,43.8-.94,19.78-.88,39.49,1.89,59.09,.78,5.51,3.15,10.79,5.03,16.97,1.92-2.88,3.06-4.58,5.15-7.71,1.01,4.89,1.66,8.06,2.34,11.37,5.09-.73,9.7-1.39,14.76-2.11,.99-4.55,.91-10.03,2.46-13.91,2.31-5.82,4.01-11.54,3.02-17.18-2.86-16.32-1.73-32.71-2.22-49.08-.35-11.75-.1-23.57-1.43-35.21-1.66-14.5-4.72-28.83-7.05-43.25-.23-1.42,.39-2.98,.61-4.48,11.67,2.1,22.83,4.11,34.44,6.2,4.17-7.79,12.89-13.2,11.38-24.82-20.11-3.17-39.91-6.04-59.6-9.48-14.06-2.46-27.75-.71-41.54,1.76-5.01,.9-9.31,3.58-9.34,7.99-.02,4.21-2.6,5.91-4.7,8.79,12.92,12.64,28.56,10.57,44.59,8.8Z"/><path class="cls-2" d="M1140.6,554.75c-1.86-5.26-3.88-10.53-4.97-15.97-2.46-12.25-3.63-13.63-15.77-15.02-2.17-.25-4.33-.5-6.46-.75-3.77,4.76-4.14,10.09-4.01,15.57,.53,20.94,.95,41.88,1.55,62.82,.69,24.22,1.34,48.45,2.41,72.65,.38,8.55,2.15,17.02,2.96,25.56,.74,7.74,4,13.9,11.85,19.81,10.27-17.05,5.44-35.9,9.01-54.3,5.65-.78,11.47-1.58,17.85-2.46,4.48,13.53,8.66,26.15,13.16,39.73,5.5-2.13,10.52-4.08,15.92-6.18,0-3.34,.7-6.98-.12-10.22-3.44-13.54-6.69-27.19-11.2-40.39-10.38-30.4-21.47-60.56-32.2-90.85Zm-3.54,95.31c-1.97-11.69-.68-22.95-.41-34.31,6.27,9.52,9.29,20.24,13.31,31.86-4.94,.94-8.59,1.63-12.9,2.45Z"/><path class="cls-2" d="M931.06,392.32c.66,22.21,4.43,43.8,12.44,64.4,5.18,13.32,12.26,25.79,23.57,35.38,5,4.24,9.76,5.4,15.75,2.85,2.85-1.22,6.03-1.68,9.04-2.53,7.55-2.15,15.91-3.26,20.23-10.89,3.26-5.76,6.72-11.86,7.94-18.22,2.52-13.08,3.84-26.42,5.24-39.7,2.19-20.75,1.63-41.39-3.38-61.78-1.9-7.74-3.31-15.6-5.25-23.33-1.84-7.3-4.08-14.5-6.41-22.66-3.42,2.33-5.63,3.84-7.92,5.39,.65,19.35,1.09,38.32,1.98,57.26,1.23,26.23-.65,52.19-6.25,77.84-1.56,7.13-3.86,14.11-10.32,18.87-15.22-10.83-23.83-25.69-28.34-43.14-5.04-19.5-7.03-39.47-8.61-59.49-.19-2.46-.72-4.89-1.14-7.58-1.9,.74,.34-28.36,.57-44.14h-20.97c-2.99,7.81-1.95,15.48-1.5,23.01,.97,16.16,2.85,32.29,3.33,48.46Z"/><path class="cls-2" d="M997.22,546.35c-6.3,9.86-9.53,20.84-10.63,32.36-1.1,11.55,2.35,16.91,13.2,21.14,6.71,2.61,13.65,4.62,21.71,7.31-3.98,4.89-7.14,9.22-10.77,13.13-7.87,8.48-10.02,19.05-10.71,29.9-.59,9.22,3.94,14.99,13.17,17.08,9.9,2.23,19.99,3.64,30.02,5.28,9.04,1.48,18.15,3.59,27.18,.07,6.42-2.5,12.51-6.16,19.13-7.83,11.99-3.01,15.23-11.79,17.2-22.56-2.36-.78-4.45-1.34-6.46-2.15-10.24-4.11-19.76-3.8-30.23,1-9.96,4.57-21.12,6.77-31.95,9.11-10.42,2.25-12.82-.18-12.95-11.17-.03-2.81-.15-6.02,1.06-8.38,5.74-11.15,12.4-21.45,25.66-25.2,4.71-1.34,9.47-3.5,10.62-9.58-6.74-3.5-12.97-6.24-20.44-4.93-3.04,.53-6.38-.02-9.49-.6-6.13-1.14-7.8-3.53-8.13-9.8-.24-4.54,1.16-8.33,4.9-10.74,6.36-4.09,12.75-8.28,19.58-11.43,2.87-1.33,4.72-2.62,5.9-5.36,1.47-3.43,3.12-6.78,5.26-11.38-8.46-3.07-16.1-5.93-23.8-8.62-14.41-5.04-30.83,.57-39,13.37Z"/><path class="cls-2" d="M1381.6,626.38c-3.96-1.65-6.42-.26-7.22,3.46-1.21,5.58-2.64,11.31-2.54,16.95,.54,30.55,1.25,61.11,2.55,91.64,.33,7.75,3.02,15.4,4.63,23.1,3.58-10.61,14.22-1.29,18.34-8.42,.75,2.87,1.23,4.66,1.96,7.46,3.64-4.5,7.39-5.14,11.94-1.34,3.02-12.45,3.87-23.82,1.12-35.65-4.1-17.63-6.8-35.58-10.7-53.27-2.45-11.09-5.97-21.95-9.04-32.91-1.61-5.72-5.76-8.83-11.02-11.02Z"/><path class="cls-2" d="M1384.13,598.3c1.44-5.81,3.1-11.29,4.11-16.89,1.66-9.22-1.04-17.94-5.51-25.64-3.35-5.77-10.65-4.58-16.48-5.61-1.8-.32-3.61-.59-6.35-1.03-7.21,15.73-8.72,31.51-4.97,49.58,10.73-6.22,19.75-.15,29.2-.41Z"/><path class="cls-2" d="M1035.59,777.87l1.15,.94c2.44-2.79,4.87-5.57,7.31-8.36-.47-.46-.94-.91-1.41-1.37-2.35,2.93-4.7,5.86-7.05,8.79Z"/><path class="cls-2" d="M856.78,793.28l.3,.17c-.02-.13-.05-.24-.06-.38,0,0-.18,.15-.24,.2Z"/><path class="cls-2" d="M865.3,798.18c-2.74-1.58-5.48-3.15-8.22-4.73,.68,4.57,4.62,4.44,8.22,4.73Z"/><path class="cls-2" d="M1048.78,767.47c2.84-2.49,4.81-4.21,6.75-5.9-3.1,.01-5.99,.42-6.75,5.9Z"/><path class="cls-2" d="M1055.79,761.33l-.27,.23c.17,0,.34,0,.5,0,.01,.01-.24-.24-.24-.24Z"/><path class="cls-2" d="M850.12,790.47c1.96,.74,3.93,1.49,5.89,2.23-1.66-1.35-3.31-2.7-4.95-4.07-.31,.61-.63,1.23-.94,1.84Z"/><path class="cls-2" d="M856.01,792.7c.25,.2,.49,.41,.74,.61l.03-.02c.07-.06,.24-.2,.24-.2-.34-.13-.68-.26-1.02-.38Z"/></g><path class="cls-3" d="M626.57,595.49q.61-5.38-2.19-10.33c.38,3.51-.5,6.64,2.19,10.33Z"/><path class="cls-3" d="M728.4,525.98c-3.12,.46-5.29-3.34-9.29-1.45,3.19,1.76,5.9,3.1,9.29,1.45Z"/><path class="cls-3" d="M616.65,493.19c3.46-1.83,6.21-3.28,8.95-4.73,2.36,2.34,.97,6.8,4.82,8.38,1.01,.41,1.29,1.85,.8,2.75-2.95,5.36,.64,5.25,4.17,5.24-.02-.04-.04-.07-.05-.11l.15,.11h-.09c.79,1.95,2.4,1.75,4.04,1.51-.04-.03-.07-.05-.11-.08l.2,.07h-.1c2.29,1.82,5.07,2.74,7.81,3.05,14.64,1.65,29.2,3.8,43.68,6.51-1.81-1.87-4.06-2.69-6.65-3.11-10.08-1.6-20.13-3.37-30.2-5.07-.37-1.19-.94-2.19-1.91-2.8-.87-.1-1.75-.22-2.62-.32-2.74-.31-5.51-1.23-7.81-3.04-1.63,.24-3.25,.44-4.04-1.51-3.53,.01-7.12,.12-4.17-5.24,.49-.9,.21-2.33-.8-2.75-3.85-1.58-2.46-6.04-4.82-8.38-.4-3.25-.8-6.51-1.2-9.76,0-.4,.05-.79,.1-1.16-1.49,1.69-2.35,3.59-2.39,5.94-3.01,4.28-7.57,7.76-7.75,14.49Z"/><path class="cls-3" d="M475.56,564.92c1.74,2.77,4.08,4.26,7.4,3.57-.83-4.59-4.76-2.76-7.4-3.57Z"/><path class="cls-3" d="M724.47,336.27c-4.35-3.27-6.71-2.38-9.39,2.36-1.03,1.83-2.16,3.79-3.74,5.07-3.3,2.67-3.68,4.94,.18,7.19,3.17,1.85,2.8,3.45,.62,6.22-3.32,4.22-5.43,9.13-11.11,11.42-4.86,1.96-7.18,7.48-11.22,10.68-5.03,3.98-8.29,8.29-5.79,16.11-7.05-3.39-10.75,.48-14.05,4.62-5.66,7.1-11.28,14.22-17.36,20.95-6.75,7.47-10.67,16.94-17.39,24.4-2.53,2.81-4.25,6.05-5.98,9.32-2.76,5.21-1.97,6.62,4.48,8.22-.01,.05-.03,.1-.04,.15,1.05-1.46,1.89-3.07,2.34-4.93,2.46-1.16,4.27-3.13,6.01-5.1,11.72-13.24,23.53-26.43,33.76-40.87,14.19-20.04,27.52-40.69,42.54-60.16,3.7-4.8,7.76-9.39,10.96-14.57-1.63-.02-3.09,.21-4.81-1.08Z"/><path class="cls-3" d="M483.12,568.54c.17,.82,.7,1.31,1.53,1.22,.59-.06,.79-.59,.42-.92-.56-.49-1.24-.68-1.95-.3Z"/><path class="cls-3" d="M526.05,588.61c-8.25,.31-16.51,.5-24.65-1.58-1.49-.38-3.25-.39-3.16-2.64,.64-.72,1.3-1.25,1.98-1.66-2.43-.81-4.85-1.79-7.24-2.95-.14-.02-.27-.04-.41-.05h0s.02-.08,.03-.12c-7.84-1.82-14.85-5.56-21.86-9.33-2.67-1.44-4.87-4.1-8.42-3.4l-.03,.04-.17,.2,.17-.21c.36-3.06-2.59-3.44-4.12-4.89-2.87-2.74-6.39-4.93-6.9-9.36-.05-.01-.09-.03-.13-.04,0-.05-.02-.11-.03-.16-3.9-1.31-4.82-3.84-3.27-7.37,.03-.17,.06-.33,.12-.51h0s.07-.06,.1-.09c.27-3.22,.33-6.45,1.22-9.57-.39,.49-.76,1.07-1.11,1.75-2.09,4.07-2.05,8.41-2.42,12.73-1.86,3.82-.99,6.53,3.21,7.89,.45,4.53,4.02,6.73,6.92,9.5,1.52,1.46,4.47,1.83,4.13,4.88l.02-.03c3.54-.7,5.75,1.96,8.42,3.4,7.02,3.78,14.04,7.52,21.9,9.34,11.44,5.63,23.31,7.34,35.7,4.21Z"/><path class="cls-3" d="M732.62,516.72c-7.67-2.32-15.28-4.84-22.84-7.49-16.64-5.84-33.53-10.53-51.23-11.67-2.06-.13-4.29-.54-5.31,2.06-3.81-1.47-6.8-5.63-11.68-3.54-.59-.47-1.12-1.01-1.77-1.38-1.38-.78-2.83-1.31-4.01,.32-1.36,1.86,.48,2.59,1.34,3.68,.27,.34,.41,.8,.59,1.21,1.01-.09,2.02-.19,3.03-.29,.34,.61,.68,1.22,1.03,1.84,3.68-.22,7.25,.55,10.87,1.07,1.07-.45,2.38-.27,3.63-.19,17.7,1.15,34.59,5.83,51.23,11.67,5.19,1.82,10.4,3.57,15.64,5.24,2.96-.31,4.92,2.33,7.56,1.94-.19,.09-.37,.17-.56,.24,.06,.02,.13,.04,.19,.06,3.55,1.08,7.03,2.09,9.81,4.66-.07,1.65,.15,3.15,1.88,3.97,.64,.3,1.15,1.52,.62,1.37-4-1.11-3.86,5.37-8.48,4.06-3.27-.94,.39,1.04-.04,1.96-.81,1.72-2.47,2.42-3.69,2.58-5.03,.67-9.14,3.54-13.74,5.18-2.22,.79-4.59,1.83-6.84,1.72-4.42-.22-7.66,1.41-10.44,3.79,10.13-1.67,19.77-5.09,29.43-8.47,2.74-.96,5.51-1.85,8.24-2.85,2.49-.91,4.94-1.92,7.4-2.9,2.7-1.08,5.32-2.76,8.11-3.11,3.83-.49-1.87-5.03,1.79-4.09,2.91,.74,5.46,1.71,8.25,.23,.35-.19,.44-.88,.96-2.04-7.14-1.97-13.77-5.19-21.15-6.16-2.79-2.57-6.27-3.58-9.82-4.66Z"/><path class="cls-3" d="M653.69,780.6c-.03,.68,.18,1.19,.97,1.24,.11,0,.4-.41,.36-.57-.19-.77-.68-.93-1.33-.66Z"/><path class="cls-3" d="M668.04,756.71c-.24,.73,.44,1.07,.81,1.54,.02-.21,.14-.5,.04-.63-.24-.33-.56-.62-.86-.91Z"/><path class="cls-3" d="M692.98,516.98c.59-.11,.73-.77,.32-.87-.65-.16-1.37-.07-2.07-.06,.36,.71,.97,1.08,1.74,.93Z"/><path class="cls-3" d="M320.31,386.92l-.04,.05,.04-.05Z"/><path class="cls-3" d="M731.78,377.7c-8.52,11.02-15.16,23.3-23.14,34.68-6.32,9.01-11.97,18.49-18.43,27.4-6.08,8.39-11.12,17.53-18.59,24.94-3.78,3.75-2.9,5.27,2.55,7.2,8.55,3.04,17.61,3.48,26.38,5.47,13.2,3.01,25.73,7.86,38.56,11.89,5.38,1.69,10.58,3.75,15.69,6.03-9.37-34.97-14.47-82.37-7.42-118.65,1.35-6.94,2.84-15.97,4.61-25.7-2.75,3.75-5.5,7.49-8.25,11.24-3.86,5.26-7.96,10.33-11.95,15.49Z"/><path class="cls-3" d="M652.63,778.24c-.39-.59-.91-1.5-1.58-.69-.59,.71,.05,1.33,.95,1.45-.04,1.17,.45,1.72,1.63,1.5,.63-1.12-.13-1.71-1.01-2.25Z"/><path class="cls-3" d="M309.25,410.62c.1-.5-.09-.74-.57-.66-.01,0-.04,.37,.05,.44,.15,.11,.34,.16,.53,.23Z"/><path class="cls-3" d="M510.57,624.61c1.85-2.62,2.55-5.73,3.53-8.71-.7,.88-1.25,1.95-1.73,3.19-.7,1.79-1.18,3.68-1.79,5.52Z"/><path class="cls-3" d="M540.07,487.77c.59,.13,1.9,.33,3.17,.68,4.63,1.27,7.71-.95,9.98-4.6,.84-1.35,1.44-2.85,2.02-4.36-2.24,3.39-5.25,5.4-9.7,4.18-1.27-.35-2.57-.56-3.17-.68-9.2,.3-10.32-.82-10.08-9.04,.2-6.93,1.98-13.48,4.62-19.78-.52,.85-1.03,1.88-1.57,3.09-3.05,6.82-5.12,13.91-5.34,21.47-.24,8.22,.87,9.34,10.08,9.04Z"/><path class="cls-3" d="M478.67,495.33c-4.02-.84-8.63,.56-11.29-5.17-3.69-7.92-2.21-15.21-.08-22.67-.6,1.02-1.46,1.94-1.78,3.02-2.38,8.07-4.41,15.89-.43,24.43,2.67,5.73,7.27,4.33,11.29,5.17,4.13,.86,6.11-2.26,7.66-5.49,.4-.84,.75-1.69,1.08-2.54-1.41,2.25-3.31,3.9-6.45,3.25Z"/><path class="cls-3" d="M695.62,517.92c7.58,2.26,13.49,4.01,19.4,5.77-5.67-2.6-10.9-6.75-19.4-5.77Z"/><path class="cls-3" d="M445.15,719.01c-.69-.34-1.78-.09-1.95,.68-.47,2.22,2.16,2.6,2.8,4.22,.07,.17,.46,.2,.84,.34,.92-2.26,.61-4.11-1.69-5.25Z"/><path class="cls-3" d="M631.56,576.58c-4.74,5.02-2.97,10.93-2.11,16.63,.28,1.84,1.36,4.59-.22,5.11-4.72,1.55-2.57,4.22-1.83,6.84,.71,2.53,1.79,5.05,1.94,7.61,.92,15.4,5.51,30.12,8.4,45.14,4.54,23.56,10.04,46.94,15.1,70.4,.61,2.83,1.63,5.76,1.35,8.53-.15,1.48-1.2,2.15-2.43,2.69,1.71,2.86,3.34,5.79,5.55,8.17,3.12,3.35,5.33,8.12,10.71,8.78,1.03-1.74,.43-3.5-.11-5.2-5.25-16.32-8.34-33.13-11.36-49.95-4.42-24.69-8.52-49.44-13.42-74.03-1.88-9.44-3.82-18.94-6.37-28.31-2.3-8.48-3.24-17.99-2.92-27.2,0-.21,.02-.38,.02-.58-1.61,1.09-2.41,2.75-2.31,5.36Z"/><path class="cls-3" d="M582.18,515.8c.54-.96,1.05-1.94,1.52-2.97-.53,.74-1.02,1.73-1.52,2.97Z"/><path class="cls-3" d="M567.43,563.05c-15.42,13.81-33.37,18.39-53.66,15.05-4.32-.71-9.11-2.86-13.02,1.28-.04,.11-.07,.22-.12,.32-.03,.03-.06,.04-.09,.07,0,1.38,.75,1.86,1.69,2.13,3.01-.71,6.24,.48,9.25,.98,20.29,3.34,38.24-1.23,53.66-15.05,10.94-9.81,19.63-21.48,27.59-33.72,.98-1.5,1.71-3.18,2.35-4.89-.02,.03-.04,.07-.06,.11-7.96,12.24-16.65,23.91-27.59,33.72Z"/><path class="cls-3" d="M497.38,638.9c-.79-.06-1.52,.36-1.64,1.2-.06,.39,.27,1.16,.55,1.23,.82,.2,1.41-.29,1.63-1.13-.18-.45-.33-1.28-.54-1.3Z"/><path class="cls-3" d="M487.19,215.77c-.03,2.25,.74,6.18-3.7,5.8-.01,.13-.03,.26-.04,.4,.78,2.76,4.67,1.45,4.94,4.42-1.83,1.01-4.92,.74-3.57,4.49,2.15,5.93,3.28,12.2,6.01,17.94,.21,.44,.45,.87,.68,1.3,0-.25-.03-.71,0-.72,3.78-.56,4.34-.13,3.68,2.79-2.1,9.16,.19,15.95,7.43,22.02,2.19,1.83,2.69,6.56,1.07,6.41-5.98-.56-3.15,2.59-1.85,4.33,1.83,2.47,1.98,5.44,3.21,8.01,1.79,3.74-1.53,11.1,7.02,10.31,.27-.02,.75,1.31,.97,2.06,.66,2.26,1.46,4.51,.85,7.04-2.27-1.5-.45-5.72-4.24-5.95-.09,.24-.31,.53-.25,.72,5.71,18.4,11.59,36.74,18.15,54.86,.56,1.55,1.65,2.56,2.76,3.73,4.22,4.43,3.88,7.12-1.71,10.85-2.78,1.85-2.2,4.21-.26,4.72,3.94,1.02,4.44,3.2,4.29,6.57-.15,3.54,2.01,6.35,4.94,7.56,3.43,1.41,4.73,3.81,5.78,6.93,.67,1.98,1.74,3.86,2.87,5.64,2.87,4.47,3.35,4.5,8.75,1.32,1.39-.36-.56,4.67,3,1.6,2.78-2.39,6.36-5.02,10.55-1.22,1.09,.99,2.78-4.24,5.15-.74,3.23-3,8.64,.47,11.84-5.15,2.09-3.67,8.42-4.89,12.77-7.33,17.73-9.95,36.95-17.09,54.1-28.06,20.03-12.81,42.18-21.83,61.8-35.31,10.21-7.02,20.6-13.79,30.84-20.77,.85-.58,1.62-1.14,3.1-1.31,1.22-1.65,2.52-3.27,3.98-4.82-2.67-.16-3.65,.58-4.78,1.35-10.24,6.98-20.62,13.75-30.84,20.77-19.62,13.48-41.78,22.51-61.8,35.31-17.15,10.97-36.37,18.12-54.1,28.06-4.36,2.44-10.68,3.66-12.77,7.33-3.2,5.62-8.61,2.15-11.84,5.15-2.38-3.5-4.07,1.73-5.15,.74-4.2-3.8-7.77-1.17-10.55,1.22-3.57,3.07-1.61-1.97-3-1.6,.4-4.21-2.65-7.29-3.62-11.12-4.4-17.36-11.04-33.98-17.55-50.64-4.3-10.99-8.77-21.95-11.84-33.4-2.35-8.8-4.8-17.74-7.92-26.12-3.79-10.16-5.89-20.71-9.56-30.82-3.75-10.34-6.14-21.04-8.88-31.65-2.13-8.28-5.85-16.09-6.24-24.91-.1-2.41-.96-6.15-4.7-7.86,.17,7.7-2.77,14.48-2.21,21.65-.16,1.55-.32,3.11-.49,4.66,1.5-.03,2.95,.22,2.94,1.41Z"/><path class="cls-3" d="M500.54,579.77c0-.06-.01-.1-.01-.17,.07-.08,.15-.15,.22-.23,.47-1.37-.06-2.72-1.37-2.61-2.45,.2-5.85-1.08-6.78,2.83h.04l-.04,.08,.04-.07c.11,.06,.23,.1,.34,.16,2.52,.34,5.05,1.92,7.56,0Z"/><path class="cls-3" d="M729.46,337.05c.5-.82,.97-1.65,1.41-2.5-.9,.45-1.39,1.27-1.41,2.5Z"/><path class="cls-3" d="M455.8,556.42c2.44,3.98,5.71,4.55,9.69,2.58,1.02,4.31,4.55,4.67,8.95,6.19-1.87-5.32-5.17-6.07-8.75-6.43-4.56-5.61-11.26-8.9-15.77-14.59-.52-.66-1.29-.19-1.87,.32,0,.04,0,.09,0,.13l-.04-.02,.04,.02c-.08,.16-.14,.31-.21,.46-.59,3.12,2.83,4.66,3.27,7.37,.05,.02,.09,.04,.14,.05,0,.05,.02,.1,.02,.15,2.1,.52,3.46,2.02,4.52,3.76Z"/><path class="cls-3" d="M413.83,440.17c.49,.12,.89,.55,1.34,.83,1,1.15,1.85,2.5,3.03,3.42,2.22,1.72,3.19,.56,3.38-1.81,2.69-.27,5.21,.55,7.81,1.02,2.86,.52,4.9,1.07,5.28,4.56,.35,3.19,2.87,4,5.87,4.01,3.16,0,4.1-2.18,4.71-4.48,.1-.37,.19-.73,.28-1.1-.66,.5-1.53,.8-2.7,.8-3,0-5.52-.82-5.87-4.01-.38-3.49-2.42-4.05-5.28-4.56-2.6-.47-5.12-1.29-7.81-1.02-1.91-1.46-4.12-1.7-6.41-1.61-.44-.28-.85-.71-1.34-.83-22-5.53-43.98-11.14-66.02-16.49-13.43-3.25-26.79-6.95-40.64-8.1,1.46,2.07,3.18,3.89,5,5.61,11.28,1.61,22.29,4.59,33.35,7.27,22.04,5.34,44.02,10.96,66.02,16.49Z"/><path class="cls-3" d="M503.6,627.84c-.44-.26-.87,.42-.71,1.07-2.92,1.55-4.2,3.99-4.43,7.56,3.61-1.61,5.18-3.84,4.71-7.3,.89-.22,1.6-.64,.43-1.34Z"/><path class="cls-3" d="M506.31,633.96s.07-.07,.11-.1l-.1,.15s0-.03,0-.05c-5.77,5.07-7.66,12.6-11.3,18.93-3.98,6.92-4,8.18-12.37,7.79-1.18-.06-2.12,.49-2.58,1.48-.8,1.71-1.72,3.32-3.23,4.45-2.45,1.82-.4,5.37-1.41,6.2-1.78,1.46-4.79,1.71-6.67,3.41-.89,.8-1.94,2.66,.47,3.61,3.72,1.47,4.5,2.82,2.05,5.47-4.48,4.85-5.9,11.05-8.48,16.74-.88,1.93-1.57,3.95-2.62,5.78-7.95,13.93-15.6,28.05-24.2,41.58-2.39,3.75-4.01,9.06-9.36,10.51,.43,4.67-1.83,8.22-4.14,11.75-.81,7.63-2.95,15.19-2.27,23.73,5.37-8.99,10.64-17.14,15.24-25.65,10.44-19.3,21.89-38,32.88-56.97,12.85-22.18,24.52-44.98,35.98-67.88,2.4-4.8,4.69-9.98,4.42-15.7-.04,.01-.07,.03-.1,.05l.1-.15s0,.07,0,.11c1.8-.75,1.64-2.28,1.57-3.77-.57,1.56-1.26,3.06-2.31,4.42-1.73,.91-1.93,2.43-1.66,4.13Z"/><path class="cls-3" d="M343.54,556.89c6.09-1.54,12-4.1,18.44-4.17,5.38,2.21,9.46-.79,13.64-3.42l-.17,.11c1.62-.61,3.75,.29,4.91-1.64l-.13,.05,.18-.12s-.03,.05-.05,.07c1.26-.44,2.53-.89,3.79-1.33,7.33-3.63,15.22-6.12,22-10.89,3.1-2.18,5.69-4.47,6.24-8.14-1.08,1.24-2.45,2.31-3.94,3.36-6.78,4.77-14.67,7.26-22,10.89-1.17,.76-3.1-.62-3.87,1.27,.04,0,.09,0,.13-.01l-.18,.12s.03-.07,.05-.11c-1.7,.18-3.55-.08-4.74,1.59,.03,0,.06,0,.09,0l-.17,.11s.06-.07,.09-.11c-4.76,.16-9.2,1.62-13.55,3.41-6.44,.07-12.35,2.63-18.44,4.17-33.14,8.37-65.25,19.93-97.24,31.85-8.38,3.12-16.71,6.44-24.63,10.69,.76,1.33,1.68,2.11,2.73,2.24,6.39-3.08,12.98-5.68,19.61-8.15,31.99-11.92,64.1-23.48,97.24-31.85Z"/><path class="cls-1" d="M508.61,629.23s.07-.03,.1-.05c0-.04,0-.07,0-.11l-.1,.15Z"/><path class="cls-1" d="M382.69,542.92s-.09,0-.13,.01c-.02,.04-.03,.07-.05,.11l.18-.12Z"/><path class="cls-1" d="M377.91,544.51s-.06,0-.09,0c-.03,.04-.06,.07-.09,.11l.17-.11Z"/><path class="cls-1" d="M483.35,221.56c.02,.15,.06,.27,.1,.4,.01-.13,.03-.26,.04-.4-.05,0-.09,0-.14,0Z"/><path class="cls-1" d="M320.26,386.97l.04-.05c-.2-.03-.4-.07-.61-.09,.16,.08,.31,.16,.47,.25l.1-.11Z"/><path class="cls-1" d="M319.7,386.82c-8.49-4.58-17.9-6.64-26.96-9.63-3.34-1.1-6.74-1.89-10.43-.91,5.41,2.56,11.25,3.04,16.75,4.79,6.78,2.15,13.51,4.76,20.65,5.75Z"/><path class="cls-1" d="M320.6,387.07c4.11,2.36,9,1.94,13.25,3.74-4.08-2.51-8.47-3.84-13.25-3.74Z"/><path class="cls-1" d="M320.17,387.07c.14,0,.28,0,.43,0-.09-.05-.19-.1-.28-.16h0l-.04,.05-.1,.11Z"/><path class="cls-1" d="M644.4,772.26c-.24-.77-.49-1.55-.74-2.33-.43,.09-.86,.18-1.29,.26-.28,1.2,.05,2.23,.82,3.16,.4-.36,.8-.73,1.21-1.09h0Z"/><path class="cls-1" d="M500.64,579.71c.05-.11,.08-.22,.12-.32-.07,.08-.15,.14-.22,.23l.11,.1Z"/><path class="cls-1" d="M451.14,552.62s.09,.03,.13,.04c0-.05-.02-.1-.02-.15l-.11,.11Z"/><path class="cls-1" d="M448.04,544.62s0-.09,0-.13c-.03,.03-.07,.06-.1,.09l.05,.02,.04,.02Z"/><path class="cls-1" d="M492.64,579.62h-.04s-.02,.07-.03,.11l.03-.04,.04-.07Z"/><path class="cls-1" d="M449.92,544.18c4.5,5.69,11.21,8.98,15.77,14.59,3.58,.35,6.88,1.11,8.75,6.43-4.4-1.52-7.93-1.88-8.95-6.19-3.98,1.97-7.25,1.4-9.69-2.58-1.06-1.73-2.42-3.24-4.52-3.76,.51,4.43,4.04,6.62,6.9,9.36,1.53,1.46,4.48,1.83,4.12,4.89l.03-.04c3.54-.7,5.75,1.96,8.42,3.4,7.01,3.78,14.02,7.51,21.86,9.33,.93-3.91,4.33-2.64,6.78-2.83,1.31-.11,1.84,1.24,1.37,2.61,3.91-4.15,8.7-1.99,13.02-1.28,20.29,3.34,38.24-1.23,53.66-15.05,10.94-9.81,19.63-21.48,27.59-33.72,.02-.03,.04-.07,.06-.11,1.38-2.16,2.29-4.66,3.13-7.11,2.68-7.85,1.95-8.79-4.93-13.58-5.14-3.58-6.89-2.38-8.89,2.64-.22,.56-.46,1.11-.71,1.65-.47,1.03-.98,2.01-1.52,2.97-4.31,7.63-10.89,13.08-18.3,17.82-3.79,2.43-7.49,5.01-11.41,7.2-6.28,3.5-13,6.02-20.17,6.88-20.25,2.43-39.27-2.1-57.56-10.52-5.77-2.65-11.54-5.3-17.28-8.01-3.35-1.58-5.32-.51-6.98,2.72-.51,1-.89,2.01-1.19,3.03-.9,3.12-.96,6.35-1.22,9.57,.57-.51,1.35-.97,1.87-.32Zm25.64,20.74c2.64,.81,6.57-1.02,7.4,3.57-3.32,.69-5.66-.8-7.4-3.57Zm9.1,4.84c-.83,.09-1.36-.4-1.53-1.22,.71-.39,1.39-.19,1.95,.3,.38,.33,.17,.86-.42,.92Z"/><path class="cls-1" d="M542.36,482.99c.59,.13,1.9,.33,3.17,.68,4.45,1.22,7.46-.79,9.7-4.18,.09-.14,.19-.28,.28-.42,1.1-1.78,1.79-3.82,2.57-5.78,2.13-5.39,2.52-11.16,3.72-16.76,1.15-5.36,.02-7.8-5.39-9.47-2.25-.7-4.64-1.09-6.99-1.31-7.05-.67-8.95,.38-11.79,6.74-.25,.56-.48,1.12-.72,1.69-2.65,6.3-4.42,12.85-4.62,19.78-.24,8.22,.87,9.34,10.08,9.04Z"/><path class="cls-1" d="M469.8,462.34c-.58,1.18-1.63,2.18-1.99,3.4-.17,.59-.34,1.17-.51,1.76-2.13,7.45-3.61,14.75,.08,22.67,2.67,5.73,7.27,4.33,11.29,5.17,3.14,.66,5.04-1,6.45-3.25,.44-.71,.84-1.47,1.21-2.24,2.7-5.6,3.56-11.55,3.32-17.71,0-2.11,.16-4.23-.03-6.33-.52-5.74-2.4-7.8-8.03-9.14q-8.05-1.92-11.8,5.67Z"/><path class="cls-1" d="M641.71,501.55c2.29,1.81,5.07,2.73,7.81,3.04,.88,.1,1.75,.22,2.62,.32,13.76,1.6,27.45,3.64,41.06,6.2-1.81-1.88-4.06-2.7-6.66-3.11-10.08-1.6-20.13-3.37-30.21-5.08-1.24-.07-2.47-.21-3.7-.39-3.61-.52-7.19-1.29-10.87-1.07l.04,.07h-.1Z"/><path class="cls-1" d="M693.42,511.2l.04-.06c-.09-.02-.17-.03-.26-.05,.05,.06,.11,.1,.17,.16l.05-.06Z"/><path class="cls-1" d="M500.54,579.77s.06-.04,.09-.07l-.11-.1c0,.06,.01,.11,.01,.17Z"/><path class="cls-1" d="M500.54,579.77c-2.52,1.92-5.04,.35-7.56,0,2.4,1.16,4.81,2.14,7.24,2.95,9.09,3.02,18.44,3.54,28.12,1.1-8.25,.31-16.51,.5-24.65-1.58-.48-.12-.99-.21-1.46-.35-.93-.27-1.68-.75-1.69-2.13Z"/><path class="cls-1" d="M492.6,579.69l-.03,.04h0c.14,.01,.27,.03,.41,.05-.11-.05-.23-.1-.34-.16l-.04,.07Z"/><path class="cls-1" d="M697.91,513.14c7.58,2.26,13.49,4.01,19.4,5.77-5.67-2.6-10.9-6.75-19.4-5.77Z"/><path class="cls-1" d="M730.13,521.45c.18-.07,.37-.15,.56-.24-2.64,.39-4.6-2.26-7.56-1.94-.54,.06-1.11,.2-1.73,.49,3.01,1.66,5.6,2.95,8.74,1.69Z"/><path class="cls-1" d="M451.11,552.46c0,.05,.02,.1,.03,.16l.11-.11c-.05-.02-.09-.04-.14-.05Z"/><path class="cls-1" d="M448.01,544.6l-.05-.02h0c-.06,.17-.09,.34-.12,.51,.07-.15,.13-.31,.21-.46l-.04-.02Z"/><path class="cls-1" d="M447.84,545.09c-1.55,3.53-.63,6.06,3.27,7.37-.44-2.72-3.86-4.25-3.27-7.37Z"/><path class="cls-1" d="M695.28,512.19c.59-.11,.73-.77,.32-.87-.65-.16-1.37-.07-2.07-.06,.36,.71,.97,1.08,1.74,.93Z"/><path class="cls-1" d="M693.53,511.26s-.05-.07-.07-.11l-.05,.06-.05,.06c.05,0,.11,0,.16,0Z"/><path class="cls-1" d="M641.71,501.55h.1l-.04-.08c-.34-.61-.69-1.22-1.03-1.84-1.01,.1-2.02,.19-3.03,.29h-.1c.02,.05,.04,.08,.05,.12,.79,1.95,2.4,1.75,4.04,1.51Z"/><polygon class="cls-1" points="462.13 567.12 462.3 566.92 462.33 566.87 462.3 566.91 462.13 567.12"/><path class="cls-1" d="M868.8,442.23c2.49,6.34,4.14,13.1,6.47,19.53,.95,2.61,2.7,4.85,4.09,7.26-.38-23.93-2.95-46.68-9.96-68.46-8.6-26.72-18.7-52.64-33.02-76.23,.81-1,2.44-2.7,2.3-2.9-1.77-2.64-3.79-5.07-5.75-7.56-.55,.35-1.09,.69-1.64,1.04,.5,1.49,1,2.97,1.5,4.46-4.33-2-5.65,1.34-7.28,4.85-16.65,35.88-24,74.08-20.68,114.31,2.22,27,9.52,52.31,29.51,69.94,10.22,9.01,20.86,18.08,34.89,17.46,1.28-1.68,2.32-2.85,3.16-4.18,8.64-13.6,8.1-18.47-1.41-31.49-5.96-8.16-15.44-12.89-18.37-23.97-.08-.29-.59-.45-.91-.64-10.65-6.24-9.61-17.58-10.45-28.69,5.23-1.06,9.82-2.24,14.46-2.86,6.85-.91,10.29,1.08,13.06,8.14Z"/><path class="cls-1" d="M1080.14,362.34l-1.86,.05c-.14,3.45-.37,6.9-.41,10.36-.06,4.75,.31,9.53-.04,14.26-.68,9.16-1.74,18.29-2.81,29.08,7.31-3.18,13.02-5.66,18.79-8.17-4.74-15.82-9.2-30.7-13.65-45.59Z"/><g><path class="cls-1" d="M754.79,495.32c-5.1-2.28-10.31-4.34-15.69-6.03-12.83-4.03-25.36-8.89-38.56-11.89-8.76-2-17.83-2.43-26.38-5.47-5.45-1.94-6.33-3.45-2.55-7.2,7.47-7.41,12.51-16.55,18.59-24.94,6.45-8.91,12.11-18.39,18.43-27.4,7.99-11.38,14.62-23.66,23.14-34.68,3.99-5.16,8.09-10.23,11.95-15.49,2.75-3.75,5.5-7.49,8.25-11.24,4.42-24.32,10.56-53.01,20.42-64.41l.3-.36c1.53-1.84,4.37-5.28,8.66-8.79,5.58-11.19,14.32-19.01,23.84-24.34-9.35-1.71-17.92-.64-26.1,5.7-7.52,5.82-16.49,9.62-25.24,13.17-7.5,3.04-14.25,6.71-20.36,11.88-6.65,5.62-13.25,11.36-21.67,14.4-1.41,.51-2.54,1.82-3.77,2.8-9.15,7.23-18.87,13.47-29.55,18.28-11.58,5.22-23.63,9.68-34.2,16.73-19.89,13.26-42.47,19.48-64.97,26.65-1.6-4.75-3.04-9.28-4.65-13.75-6.61-18.32-13.63-36.51-19.85-54.96-8.65-25.7-16.11-51.78-24.16-77.67-5.61-18.06-10.63-36.32-17.13-54.1-3.8-10.4-5.65-21.29-8.16-32.02-1.08-4.63-3.05-7.14-8.18-8.14-4.9-.95-9.94-1.23-14.78-2.68-3.17-.95-5.79,.65-7.09,3.69-.93,2.17-1.5,4.52-2.07,6.83-5.63,22.67-8.28,45.85-10.89,68.97-2.76,24.44-4.35,49.02-6.04,73.56-1.2,17.45-3.45,34.76-5.72,52.07-2.89,22.01-5.98,43.99-9.46,65.91-1.58,9.92,.3,20.18-3.29,29.84,.04,.56-.23,.92-.82,1.1,.8,5.4,.73,5.6-3.31,4.23-6.19-2.1-12.28-4.5-18.41-6.77-1.84,.2-3.67,.36-4.81-1.59-1.8,.12-3.47-.16-4.76-1.58l-.47,.46s-.57-.28-.56-.27c-8.74-2.58-17.43-5.4-26.25-7.7-15-3.91-29.92-8.08-45.06-11.51-13.36-3.03-26.33-7.75-39.49-11.68-5.2-1.55-10.37-4.38-15.76-3.72-5.43,.66-10.7,1.17-16.11,.38-.96-.14-2.39,.13-2.69,1.26-1.13,4.32-3,8.54-2.74,13.09,.18,3.24,2.96,4.83,5.22,6.62,9.73,7.73,19.69,15.24,29.02,23.37,19.74,17.22,39.48,34.49,57.6,53.5,14.05,14.75,27.73,30,45.51,40.63,1.43,.85,3.29,1.84,3.1,4.68-6.62,2.36-13.28,5.16-20.18,7.09-12.22,3.4-24.59,6.22-36.88,9.36-17.13,4.38-34.29,8.85-50.61,15.65-10.96,4.57-22.29,8.07-33.34,12.3-11.59,4.43-23.24,8.67-34.65,13.61-9,3.9-16.67,10-25.28,14.54-3.39,1.79-4.32,5.6-3.7,8.79,.76,3.91,4.74,2.24,7.44,2.56,1.31,.15,2.65,.02,3.98,0,23.3-.35,46.52,.91,69.75,2.63,25.56,1.89,49.9,8.67,74.1,16.65,18.49,6.1,36.48,14.15,56.54,16.05,0,1.71,.17,3.5-.03,5.23-2.06,18.34-4.25,36.66-6.26,55-1.95,17.79-3.2,35.67-5.81,53.36-1.11,7.52-1.6,15.12-2.68,22.65-1.13,7.86-3.62,15.38-4.46,23.29-1.34,12.59-3.72,25.07-5.29,37.64-1.6,12.86-3.77,25.63-6.64,38.24-1.98,8.71,2.46,15.58,4.94,23.07,.14,.42,.93,1.04,1.13,.95,5.48-2.6,3.99,3.17,5.52,5.27,2.21-2.26,.85-5.09,2.41-7.07,.82-1.04,1.47-2.12,3.03-2.04,4.92,.26,4.66-.21,7.06-1.68,2.2-1.34,2.24-5.33,5.4-4.74,4.77,.88,5.86-2.21,7.18-5.54,8.8-22.16,18.13-44.08,28.33-65.64,12.11-25.6,24.59-51,38.32-76.67,0,2.65,.32,4.53-.05,6.26-4.36,20.5-5.62,41.38-7.33,62.18-2.35,28.58-2.79,57.22-1.55,85.88,.16,3.71-.79,5.59-4.67,5.29-7.47-.58-14.78,.92-22.09,1.91-17.87,2.42-30.83,17.67-31.18,35.54-.1,5.16,1.68,9.89,2.04,14.88,2.68-.06,5.1,1.1,8.09-.54,3.68-2.02,6.9,.21,7.99,4.25,1.67-.59,3.36-1.19,5.04-1.79,.41-1.56,1.01-2.61,2.99-2.85,3.23-.38,6.4-1.27,9.58-1.94,4.05-5.38,9.37-8.75,15.99-10.12,.98-.2,2.03-.72,2.76-1.39,5.83-5.36,13.02-7.72,20.56-8.89,7.25-1.12,7.28-.8,7.71-8.18,.14-2.38,.58-4.89-2.92-5.2-2.31,.41-4.54,.13-7.5-.63,2.63-2.78,5.21-2.29,7.78-1.76,3.11-1.78,2.66-4.83,2.8-7.73,1-20.89,1.82-41.78,3.03-62.66,1.72-29.59,4.54-59.04,8.13-88.45,2.2-18.02,5.77-35.75,10.5-53.2,5.77-21.29,12.92-42.21,17.44-63.72,3.45-.68,4.58,1.84,5.78,3.71,8.83,13.7,19.22,26.26,28.62,39.54,2.51,3.55,4.26,7,4.77,11.36,4.06,34.34,8.55,68.64,12.33,103.01,2.59,23.59,4.24,47.29,6.35,70.94,.96,10.81,1.2,21.71,3.28,32.39,1.08,5.54,2.16,10.8-2.05,15.7-1.56,1.82-1.16,3.73,1.61,4.92,7.3,3.15,14.7,5.87,22.42,7.86,11.05,2.85,22.31,4.54,33.5,6.63,12.46,2.33,24.99,4.39,37.7,4.94,10,.44,11.44-2.37,14.89-10.88,.58-1.42,.06-3.31,.71-4.67,2.08-4.33-.03-6.23-3.29-9.01-4.46-3.81-10.76-4.41-14.45-9.16-1.14,.51-2.09,.72-1.73-1.11-1.88-.97-4.2-.02-6.04-1.43-4.1-3.13-8.87-4.51-13.92-5.17-2.08-.27-3.85-1.24-5.75-2.3-9.84-5.48-20.16-9.14-31.79-6.97-4.83,.9-4.93,.59-4.82-4.17,.5-21.65-2.06-43.12-4.23-64.58-2.25-22.32-4.15-44.71-8.36-66.81-1.36-7.15-2.11-14.42-3.14-21.67,8.06,.27,10.64,6.97,15.09,11.25,1-1.64,1.2-3.34-1.01-6.16,7.97,2.83,9.11,9.93,13.77,13.78,4.75,3.92,8.24,9.36,12.28,14.14,.73,.71,1.51,1.37,2.19,2.13,.51,.57,.99,1.47,.3,1.95-.42,.3-1.4-.2-2.12-.34-.4,.36-.8,.73-1.21,1.09,4.73,5,8.63,11.6,14.4,14.59,6.4,3.32,11.15,7.69,15.74,12.75,3.03,3.34,6.27,6.49,9.07,10.01,1.77,2.22,3.68,3.5,6.49,3.41-.02-.12-.04-.24-.05-.36-.14-1.83,.61-3.17,2.45-3.5,4.69-.84,7.76-5.07,12.96-5.32-1-3.62-1.67-6.7-2.7-9.67-7.38-21.25-12.31-43.12-16.47-65.18-3.33-17.66-6.42-35.36-9.9-52.98-4.81-24.34-9.69-48.68-13.08-73.26-.7-5.07-3.03-10.27-.82-15.56-1.55-9.04,1.72-12.89,10.75-12.21,2.52,.19,4.55-.77,6.74-1.45,2.4-.75,4.48-2.67,7.26-2,2.38-.61,4.77-1.22,7.16-1.83,7.29-2.4,13.31-8.74,21.9-7.06,1.89-1.4,3.55-3.56,6.41-2.19,.64-1.31,1.8-1.7,3.13-2.03,5.06-1.25,10.01-2.67,14.47-5.61,3.12-2.06,6.79-2.52,10.51-1.66,1.35-.74,2.72-1.49,4.1-2.24,4.43-2.74,7.42-7.9,13.42-7.99,1.27-1.44,2.92-2.3,4.64-2.85-4.28-8.08-7.5-15.74-10.04-22.28-2.46-6.36-4.8-13.64-6.92-21.55Zm-446.11-85.35c.49-.08,.67,.16,.57,.66-.19-.06-.38-.11-.53-.23-.08-.06-.06-.43-.05-.44Zm343.33,369.03c-.9-.11-1.55-.74-.95-1.45,.67-.81,1.19,.1,1.58,.69,.88,.55,1.64,1.13,1.01,2.25-1.18,.22-1.67-.33-1.63-1.5Zm2.66,2.84c-.79-.05-1.01-.56-.97-1.24,.65-.27,1.14-.1,1.33,.66,.04,.16-.24,.58-.36,.57Zm14.18-23.58c-.37-.47-1.05-.81-.81-1.54,.3,.3,.61,.58,.86,.91,.09,.13-.02,.41-.04,.63Zm93.78-228.67c-2.79,1.48-5.34,.51-8.25-.23-3.66-.94,2.04,3.6-1.79,4.09-2.79,.36-5.41,2.04-8.11,3.11-2.46,.98-4.91,1.99-7.4,2.9-2.73,1-5.5,1.89-8.24,2.85-9.66,3.38-19.3,6.8-29.43,8.47-1.77,1.52-3.36,3.34-4.94,5.2l.02-.27c-1.48,1.45-3.4,1.16-5.21,1.34-3.46,2.8-7.88,2.53-11.86,3.52-13.25,3.28-26.54,6.41-39.89,9.26-1.49,.32-2.71,.76-3.66,1.4,0,.2-.03,.37-.02,.58-.32,9.21,.62,18.72,2.92,27.2,2.55,9.38,4.49,18.87,6.37,28.31,4.9,24.59,8.99,49.35,13.42,74.03,3.01,16.83,6.11,33.63,11.36,49.95,.55,1.7,1.14,3.46,.11,5.2-5.38-.66-7.59-5.43-10.71-8.78-2.22-2.38-3.84-5.32-5.55-8.17-1.22,.53-2.62,.92-3.51,1.82-.15,.15-.1,.51-.14,.77-6.06-3.9-10.46-9.64-15.78-14.35-14.32-12.68-26.55-27.18-37.59-42.72-9.2-12.95-18.39-25.91-27.33-39.03-2.7-3.96-5.86-7.58-8.93-11.11-5.73-6.6-10.93-13.62-16.65-20.22-2.81-3.25-5.59-5.17-10.3-3.61-3.96,1.31-8.27,1.7-12.46,2.19-2.3,.27-3.84,1.18-4.98,2.62-.98,2.98-1.67,6.09-3.53,8.71-.09,.27-.19,.54-.29,.8,.07,1.49,.23,3.02-1.57,3.77,.27,5.72-2.02,10.91-4.42,15.7-11.46,22.9-23.13,45.7-35.98,67.88-10.99,18.97-22.45,37.67-32.88,56.97-4.6,8.51-9.87,16.66-15.24,25.65-.68-8.54,1.46-16.09,2.27-23.73-.75,1.14-1.5,2.27-2.16,3.44-.56-1.49-.69-2.95-.6-4.61,.71-13.35,2.25-26.64,1.91-40.08-.21-8.14,1.3-16.31,1.7-24.49,.99-20.5,1.76-40.99-1.25-61.44-1.6-10.9-1.31-10.95-12.59-10.75,.09-1.08,.83-2.85-1.03-2.58-1.26,.18-.48,2.01-.51,3.12,0,0-.59-.19-.58-.19-4.9-4.44-10.59-6.04-17.08-4.63-12.41-3.4-24.71-7.14-36.75-11.71-18.38-6.98-37.42-11.53-56.86-14.28-6.7-.95-13.52-3.01-20.34-.22-.65,.27-1.73,.17-2.32-.21-8.23-5.3-17.54-2.5-26.31-3.32-7.26-.68-14.73-.83-21.86,1.8-1.66,.61-3.07-.18-4.14-2.07,1.66-.89,3.34-1.73,5.02-2.54-1.06-.14-1.98-.91-2.73-2.24,7.93-4.25,16.25-7.56,24.63-10.69,31.99-11.92,64.1-23.48,97.24-31.85,6.09-1.54,12-4.1,18.44-4.17,4.35-1.79,8.79-3.25,13.55-3.41,1.19-1.67,3.04-1.41,4.74-1.59,.77-1.89,2.7-.51,3.87-1.27,7.33-3.63,15.22-6.12,22-10.89,1.49-1.05,2.86-2.12,3.94-3.36,.13-.87,.14-1.81,.03-2.85-.35-3.05-1.37-4.97-4.15-6.06-9.13-3.59-16.19-9.85-22.46-17.2-8.74-10.24-17.17-20.74-25.67-31.18-12.73-15.64-27.07-29.86-41.94-43.52-3.83-3.51-7.98-6.72-11.02-11.03-.08,0-.15-.02-.23-.02l.13-.11s.07,.09,.1,.13c2.45,.2,4.88,.49,7.3,.83-1.82-1.72-3.54-3.54-5-5.61,13.86,1.15,27.22,4.85,40.64,8.1,22.04,5.34,44.02,10.96,66.02,16.49,.49,.12,.89,.55,1.34,.83,2.3-.1,4.51,.14,6.41,1.61,2.69-.27,5.21,.55,7.81,1.02,2.86,.52,4.9,1.07,5.28,4.56,.35,3.19,2.87,4,5.87,4.01,1.18,0,2.04-.3,2.7-.8,2.06-7.81,4.02-15.65,5.92-23.5,2.22-9.16,4.33-18.35,6.48-27.53,6.22-26.51,10.74-53.33,14.87-80.22,3.62-23.52,4.8-47.26,6.66-70.95,.78-10,1.98-19.97,2.98-29.95,.54-.05,1.18-.11,1.81-.12,.16-1.55,.33-3.11,.49-4.66-.56-7.17,2.38-13.94,2.21-21.65,3.74,1.71,4.59,5.44,4.7,7.86,.38,8.82,4.1,16.64,6.24,24.91,2.74,10.62,5.13,21.32,8.88,31.65,3.67,10.1,5.77,20.65,9.56,30.82,3.12,8.37,5.57,17.32,7.92,26.12,3.06,11.45,7.54,22.4,11.84,33.4,6.51,16.66,13.15,33.28,17.55,50.64,.97,3.83,4.02,6.91,3.62,11.12,1.39-.36-.56,4.67,3,1.6,2.78-2.39,6.36-5.02,10.55-1.22,1.09,.99,2.78-4.24,5.15-.74,3.23-3,8.64,.47,11.84-5.15,2.09-3.67,8.42-4.89,12.77-7.33,17.73-9.95,36.95-17.09,54.1-28.06,20.03-12.81,42.18-21.83,61.8-35.31,10.21-7.02,20.6-13.79,30.84-20.77,1.13-.77,2.11-1.5,4.78-1.35-1.46,1.55-2.76,3.17-3.98,4.82,.48-.06,1.03-.07,1.68-.03-6.98,7.41-10.52,16.4-17.32,23.13-.63,.05-1.16,.19-1.6,.42-.45,.85-.92,1.68-1.41,2.5,0,.1,0,.2,0,.31,.04,0,.08,0,.12,0l-.12,.12s0-.08,0-.12c-.06,0-.12,0-.18,0-3.2,5.18-7.26,9.77-10.96,14.57-15.02,19.47-28.34,40.12-42.54,60.16-10.23,14.45-22.05,27.63-33.76,40.87-1.74,1.97-3.55,3.94-6.01,5.1-.45,1.86-1.28,3.47-2.34,4.93-.93,3.66-3.36,6.37-5.99,8.85-.32,.3-.61,.61-.89,.93-.05,.38-.09,.76-.1,1.16,.4,3.25,.8,6.51,1.2,9.76,2.36,2.34,.97,6.8,4.82,8.38,1.01,.41,1.29,1.85,.8,2.75-2.95,5.36,.64,5.25,4.17,5.24-.02-.04-.04-.07-.05-.11h.1c-.18-.43-.32-.88-.59-1.22-.87-1.09-2.7-1.82-1.34-3.68,1.19-1.63,2.63-1.1,4.01-.32,.64,.36,1.18,.91,1.77,1.38,4.89-2.09,7.87,2.07,11.68,3.54,1.03-2.6,3.25-2.19,5.31-2.06,17.7,1.15,34.59,5.83,51.23,11.67,7.56,2.65,15.17,5.17,22.84,7.49,3.55,1.08,7.03,2.09,9.82,4.66,7.38,.97,14.01,4.19,21.15,6.16-.53,1.16-.61,1.85-.96,2.04Z"/><path class="cls-1" d="M1137.07,650.06c4.31-.82,7.96-1.51,12.9-2.45-4.02-11.62-7.04-22.34-13.31-31.86-.27,11.36-1.56,22.61,.41,34.31Z"/><path class="cls-1" d="M1727.54,637.78c-2.15-38.68-7.74-72.15-17.08-102.32-5.24-16.91-15.22-27.4-22.85-33.49,5.97-8.55,9.2-18.56,8.95-28.88-.25-10.28-.56-23.06-2.3-36.1-2.45-18.35-5.31-36.72-8.08-54.48l-2.1-13.52-2.29-14.88c-3.38-22.02-6.88-44.78-10.73-67.3-.03-.44-.05-.89-.08-1.33-.4-7.29-1.35-24.35-14.44-39.51-8.35-9.67-20.49-15.21-33.24-15.21-.28,0-.56,0-.85,0h-.18c-10.04,.2-23.78,.46-37.12,10.81-7.03,5.45-11.44,11.82-14.29,17.96-9.82-13.09-24.94-20.93-41.87-20.93-.4,0-.8,0-1.21,.01-13.23,.3-28.95,6.25-39.11,20.81-8.63-4.33-16.95-5.52-23.42-5.52s-12.4,1.08-18.57,3.2c-8.4,2.89-15.56,8.19-20.75,15.05-6.16-5.52-13.88-9.35-22.48-10.7-6.1-.96-12.18-1.9-18.23-2.83-14.05-2.16-27.32-4.2-40.65-6.53-7.09-1.24-14.22-1.84-21.8-1.84-12.99,0-25.01,1.84-35.05,3.63-2.29,.41-4.51,.96-6.68,1.6-7.83-12.5-21.69-20.65-37.19-20.65-.8,0-1.6,.02-2.4,.06-1.76,.1-3.5,.23-5.22,.36-1.25,.1-2.96,.23-3.64,.24-.88-.04-1.74-.06-2.58-.06-23.91,0-42.87,14.84-49.02,37.18-6.46-2.46-14.14-3.95-23.26-3.95-2.13,0-4.38,.06-7.3,.21-4.79,.24-8.5,1.15-10.28,1.58l-.41,.1c-8.5,1.81-16.02,6.1-21.92,12.04-10.67-15.96-28.02-25.21-48.33-25.21-3.27,0-6.69,.24-10.17,.71-12.39,1.68-23.1,8.49-29.98,18.25-1.36-.66-2.74-1.28-4.18-1.8-4.86-1.76-9.92-2.63-14.95-2.63-8.71,0-17.33,2.59-24.72,7.62l-5.08,3.46-2.84,1.93c-.36,.25-.72,.5-1.08,.76-7.55-5.65-16.77-8.75-26.31-8.75h-20.97c-17.45,0-31.1-30.93-56.75-32.16-6.74-.32-12.86-1.14-18.31-1.38-1.65-.07-3.29-.14-4.94-.23-2.06-.11-3.94-.17-5.73-.17-9.92,0-24.88,2.56-38.29,10.07-9.52,5.33-18.26,13.15-23.84,24.34-4.29,3.52-7.13,6.95-8.66,8.79l-.3,.36c-9.86,11.4-16,40.08-20.42,64.41-1.77,9.72-3.26,18.75-4.61,25.7-7.04,36.29-1.94,83.69,7.42,118.65,2.12,7.91,4.45,15.19,6.92,21.55,2.53,6.54,5.76,14.2,10.04,22.28,7.35,13.88,17.8,29.02,33.23,41.96,1.02,.86,2.04,1.64,3.07,2.38-4.01,5.37-7.52,11.03-10.46,16.99-9.4,19.07-15.32,40.49-17.6,63.67-2.45,24.84-1.32,50.05,3.46,77.05,3.16,17.9,8.82,33.24,13.36,45.56,3.28,8.9,9.35,16.49,17.3,21.65l3.72,2.41c1.87,1.21,3.35,2.16,4.81,3.13,1.79,1.19,3.56,2.41,5.32,3.64,4.93,3.41,10.52,7.28,17,10.9,8.57,4.79,18.01,7.22,28.05,7.22,7.03,0,12.73-1.19,16.5-1.98,.32-.07,.63-.14,.95-.2,6.77-.4,13.2-2.35,18.9-5.55,.65-.13,1.3-.27,1.95-.43,1.09-.09,2.2-.19,3.34-.33,4.57-.55,8.93-1.82,12.96-3.66,8.24,8.48,19.56,13.36,31.44,13.36,2.58,0,5.19-.23,7.8-.7l14.99-2.7-.03,.29c-2.19,19.92,9.39,38.8,28.14,45.88l.43,.16c5.66,2.14,12.7,4.8,22.14,4.8,12.95,0,22.11-5.19,26.02-7.4,5.08-2.88,9.57-5.89,13.72-9.2,10.05-8.03,22.1-17.13,35.19-23.69,6.94-3.48,13.52-5.04,21.32-5.05,6.85-.01,13.49-.22,19.91-.42,6.2-.19,12.06-.38,17.74-.38,4.08,0,7.64,.1,10.91,.29,19.3,1.16,39.7,2.62,58.33,6.41,13.9,2.83,28.08,7.07,43.09,11.57,8.07,2.41,16.41,4.91,24.9,7.23,41.15,11.27,79.71,19.58,117.88,25.41,25.5,3.89,51.15,5.79,78.43,5.79,2.62,0,5.24-.02,7.86-.05,19.07-.26,39.58-1.86,60.38-11.81,26.98-12.9,51.85-30.83,73.91-53.29,22.27-22.67,41.31-49.6,56.57-80.06,6.73-13.44,12.8-27.9,18.03-42.99,8.53-24.61,12.08-47.27,10.86-69.25Zm-215.8-272.38c.53-12.04,2.55-24.04,4.32-35.99,1.91-12.9,4.29-25.72,6.49-38.58,.66-3.83,1.32-8.2,6.23-8.31,4.54-.1,7.48,2.77,8.93,7.26,.76,2.35,2.01,4.67,3.54,6.61,9.74,12.34,17.18,26.05,24.32,39.96,6.06,11.8,12.43,23.44,19.4,36.52,1.41-2.52,2.51-3.86,2.96-5.4,7.9-26.9,16.1-53.71,20.83-81.43,1.91-11.19,2.19-11.14,14.57-11.38,4.66,5.4,3.27,12.57,4.35,18.91,4.68,27.31,8.79,54.73,13.02,82.12,3.45,22.35,7.07,44.69,10.06,67.11,1.38,10.35,1.67,20.88,1.93,31.34,.04,1.84-2.18,4.29-3.99,5.5-2.72,1.81-6,2.78-9.92,4.49-.51-2.06-.93-3.75-1.19-4.81-2.81,2.81-6.56,5.16-8.17,8.53-1.78,3.72-1.62,8.38-2.28,12.49-.83-3.45-1.27-8.32-7.14-5.89-2.38-4.88-5.57-9.09-6.48-13.75-1.75-8.97-2.7-18.17-3.07-27.31-.49-12.29-.21-24.62-.08-36.94,.07-6.98,.88-13.96,.71-20.92-.45-18.47-1.26-36.92-1.94-55.88-3.81,6.98-7.19,21.47-7.84,33.74-.61,11.45-1.03,22.9-1.52,34.01-8.28,2.71-16.17,5.29-25.35,8.29-11.33-13.17-13.95-32.15-24.56-47.54,.23,3.91,.48,7.81,.68,11.72,1.26,24.83,2.81,49.65,3.51,74.5,.16,5.77-2.59,11.63-4.04,17.44-.85,3.37-1.75,6.73-2.69,10.08-1.22,4.36-3.6,5.23-7.71,3.22-6.78-3.32-10.07-9.42-12.96-15.85-8.68-19.34-13.69-39.59-14.41-60.79-.49-14.35-1.11-28.75-.48-43.07Zm14.97,158.56c1.44,11.82,2.81,22.21,3.94,32.64,1.15,10.65,2.08,21.32,3.06,31.99,.2,2.22,.54,4.5,.26,6.68-1.63,12.69,1.96,25.04,2.31,37.62,.35,12.4,2.19,24.76,2.91,37.16,1.24,21.33,2.17,42.67,3.08,64.02,.12,2.73-.63,5.49-.9,7.66-8.27,1.54-15.5,2.94-22.76,4.21-6.92,1.22-10.07,0-12.87-6.47-7.46-17.24-14.71-34.58-21.66-52.03-5.51-13.84-10.44-27.92-15.69-41.86-.3-.8-1.13-1.4-2.73-3.31,0,3.56-.24,5.89,.04,8.15,2.61,21.13,5.64,42.22,7.84,63.39,1.25,12,1.25,24.13,1.63,36.2,.07,2.14-.48,4.46-1.31,6.45-1.79,4.27-5.29,5.96-9.22,3.84-6.04-3.26-12.52-6.32-15.13-13.54-3.46-9.57-7.46-18.99-10.3-28.74-7.38-25.37-12.26-51.34-15.49-77.51-3.7-30.06-5.13-60.32-3.52-90.62,.33-6.21,.54-12.75,5.35-18.62,7.3,1.34,14.71,2.99,22.2,4,5.64,.76,7.55,4.13,7.81,9.08,.58,11.13,5.51,20.71,10.17,30.51,8.04,16.9,15.69,33.99,23.23,51.12,5.1,11.61,9.64,23.46,14.61,35.13,1.73,4.06,3.99,7.9,7.38,11.83,.18-1.94,.68-3.92,.5-5.82-3.14-32.32-6.17-64.65-9.68-96.92-1.2-11.04-4.03-21.89-5.44-32.91-.61-4.78,.47-9.77,.86-15.91,10.42,.92,19.41,1.71,29.53,2.61Zm-122.36-157.85c.49-10.77,2.44-21.47,3.84-32.19,.24-1.87,.94-3.71,1.68-5.46,1.22-2.88,2.11-6.58,6.42-5.63,3.72,.82,4.3,4.06,4.84,7.38,3.8,23.25,7.16,46.59,11.84,69.67,2.83,13.98,7.54,27.6,11.94,41.22,.96,2.99,4.16,5.26,6.69,8.29,5.72-9.43,6.84-19.75,8.08-30.11,2.04-16.98-.95-33.72-2.05-50.55-.79-12.07-1.79-24.14-2.96-36.18-1.15-11.86,3.75-22.45,6.31-33.91,5.36-1.84,8.57-.44,11.8,3.06,4.82,5.23,8.8,10.63,10.92,17.6,12.25,40.24,16.76,81.13,9.6,122.76-1.59,9.23-6.09,17.96-9.44,26.85-.51,1.34-1.89,2.62-3.19,3.36-6.81,3.88-12.34,10.01-19.69,12.65-7.66,2.75-15.89,3.93-23.85,5.86-1.47,.36-2.85,1.05-4.68,1.74-11.03-13.02-19.65-27.28-22.15-44.56-3.93-27.14-7.18-54.37-5.93-81.85Zm8.02,357.46c2.75,11.83,1.9,23.2-1.12,35.65-4.55-3.79-8.3-3.15-11.94,1.34-.74-2.79-1.21-4.59-1.96-7.46-4.12,7.13-14.76-2.18-18.34,8.42-1.61-7.7-4.3-15.35-4.63-23.1-1.3-30.53-2.01-61.09-2.55-91.64-.1-5.64,1.34-11.37,2.54-16.95,.8-3.72,3.27-5.11,7.22-3.46,5.26,2.19,9.42,5.3,11.02,11.02,3.07,10.95,6.6,21.81,9.04,32.91,3.9,17.68,6.6,35.64,10.7,53.27Zm-57.44-124.87c-3.75-18.07-2.23-33.85,4.97-49.58,2.73,.44,4.54,.72,6.35,1.03,5.83,1.03,13.12-.16,16.48,5.61,4.47,7.7,7.18,16.43,5.51,25.64-1.01,5.6-2.67,11.08-4.11,16.89-9.45,.26-18.47-5.82-29.2,.41Zm-68.77-293.61c.02-4.41,4.32-7.1,9.34-7.99,13.79-2.47,27.48-4.22,41.54-1.76,19.7,3.44,39.49,6.31,59.6,9.48,1.51,11.62-7.21,17.04-11.38,24.82-11.61-2.09-22.77-4.1-34.44-6.2-.23,1.5-.84,3.06-.61,4.48,2.33,14.42,5.39,28.76,7.05,43.25,1.33,11.64,1.08,23.47,1.43,35.21,.49,16.36-.63,32.76,2.22,49.08,.99,5.64-.71,11.36-3.02,17.18-1.54,3.88-1.47,9.36-2.46,13.91-5.06,.72-9.67,1.38-14.76,2.11-.68-3.31-1.34-6.48-2.34-11.37-2.09,3.14-3.23,4.84-5.15,7.71-1.88-6.18-4.25-11.46-5.03-16.97-2.77-19.6-2.84-39.31-1.89-59.09,.7-14.57,.16-29.2,.19-43.8,.02-10.84,.09-21.68,.06-32.52,0-3.1-.28-6.2-.46-9.96-16.03,1.77-31.68,3.83-44.59-8.8,2.1-2.88,4.68-4.58,4.7-8.79Zm-55.17,314.37c5.31,24.59,10.71,49.16,16.03,73.75,1.95,9,1.85,8.94-7.32,13.08-2.73,1.23-5.23,2.98-7.81,4.53-.78,.47-1.44,1.53-2.21,1.58-11.37,.84-11.37,.81-17.91,5.18-6.77-10.04-8.34-21.73-10.55-33.16-3.56-18.39-7.34-36.76-10.19-55.26-3.86-25.03-9.44-49.88-9.47-75.4-.01-9.39,1.09-10.59,9.76-11.21,27.55-1.95,19.11-4.99,38.35,14.97,10.88,11.29,20.22,24.04,29.65,36.73,12.92,17.39,24.06,35.82,36.02,53.76,4.54,6.82,8.72,13.88,13.06,20.83l2.34-.7c-2.03-21.41-5.19-42.79-5.77-64.25-.57-21.26-5.12-41.91-8.83-63.72,9.42-.68,16.87-1.22,25.56-1.84,.75,6.3,1.7,12.14,2.11,18.02,2.01,28.6,3.54,57.24,5.91,85.81,1.95,23.58,8.29,46.35,14.18,69.18,2.13,8.27,3.56,16.72,5.29,24.98-7.32,3.11-12.51,8.36-20.42,8.24-2.56-.04-5.19,3.91-7.9,6.13-13.3-11.91-23-26.22-31.87-40.87-13.95-23.06-26.72-46.83-40.04-70.27-4.99-8.79-10.1-17.51-15.24-26.22-.57-.96-1.65-1.62-4.16-3.98,.66,4.78,.86,7.48,1.43,10.1Zm-46.86,76.74c-5.4,2.1-10.42,4.05-15.92,6.18-4.5-13.58-8.68-26.19-13.16-39.73-6.39,.88-12.2,1.68-17.85,2.46-3.57,18.4,1.25,37.25-9.01,54.3-7.86-5.9-11.12-12.07-11.85-19.81-.81-8.54-2.58-17.01-2.96-25.56-1.08-24.2-1.72-48.43-2.41-72.65-.6-20.94-1.03-41.88-1.55-62.82-.14-5.48,.23-10.81,4.01-15.57,2.13,.25,4.3,.5,6.46,.75,12.14,1.4,13.31,2.78,15.77,15.02,1.09,5.44,3.1,10.72,4.97,15.97,10.73,30.28,21.83,60.44,32.2,90.85,4.51,13.2,7.76,26.85,11.2,40.39,.82,3.24,.12,6.88,.12,10.22Zm-37.95-372.24c.04-3.61,1.86-7.2,2.76-10.45,1.84-.39,2.76-.72,3.7-.77,14.09-.7,16.28,.49,21.2,13.6,2.73,7.28,6.89,13.25,12.15,18.98,15.75,17.14,30.5,35.12,42.61,55.12,1.95,3.22,4.15,6.28,7.9,9.01-.86-6.64-1.81-13.27-2.55-19.92-2.56-22.81-5.03-45.62-7.56-68.43-.99-8.87-2.1-17.73-3.08-26.6-.28-2.53-.61-5.11-.38-7.62,.41-4.56,2.2-7.78,7.76-7.51,4.32,.21,8.67-.38,13.18-.62,7.98,71.92,14.56,143.23,40.37,211.58-5.16,.55-9.75,.65-14.16,1.62-4.22,.93-8.24,2.76-12.61,4.29-7.59-4.67-13.89-10.92-18.86-19.37-14.84-25.24-30.66-49.91-46.15-74.76-1.3-2.08-3.03-3.88-4.36-5.56,.38,9.69,.77,19.3,1.14,28.91,.05,1.25-.42,2.71,.07,3.73,6.51,13.44,3.83,28.17,5.85,42.23,.92,6.39-2.98,9.47-9.19,10.65-4.59,.87-8.93,3.07-14.1,4.93-2.27-7.65-4.88-14.99-6.58-22.53-3.64-16.1-7.17-32.24-10.08-48.48-3.2-17.86-6.29-35.78-8.23-53.81-1.36-12.62-.92-25.46-.78-38.2Zm-98.24,98.51c1.07-10.36,3.83-20.54,5.12-30.89,1.82-14.51,2.59-29.16,4.55-43.65,2.08-15.41,5.03-30.7,7.64-46.32,9.09-1.23,14.66,1.1,17.75,8.46,6.52,15.54,13.87,30.76,19.62,46.57,13.25,36.47,25.71,73.23,38.56,109.84,1.42,4.04,2.73,7.91-1.09,11.88-1.16-.58-2.46-1.23-4.25-2.12-4.18,4.53-6.79,12.33-15.91,9.15-6.75-19.2-13.67-38.91-20.77-59.11-3.92,.71-7.04,1.06-10.04,1.85-15.5,4.07-15.35,4.12-16.82,20.05-.76,8.24-2.17,16.41-3.23,24.62-.37,2.86-.37,5.68-4.01,6.82-.91,.28-1.45,2.47-1.73,3.87-.49,2.44-.65,4.94-.93,7.21q-8.61,2.21-18.39-2.76c-1.89-22.09,1.7-43.75,3.94-65.46Zm-11.71,110.51c7.7,2.69,15.34,5.55,23.8,8.62-2.14,4.6-3.78,7.95-5.26,11.38-1.18,2.75-3.02,4.04-5.9,5.36-6.83,3.15-13.22,7.34-19.58,11.43-3.74,2.41-5.15,6.2-4.9,10.74,.34,6.27,2,8.66,8.13,9.8,3.11,.58,6.45,1.13,9.49,.6,7.47-1.31,13.7,1.43,20.44,4.93-1.16,6.07-5.91,8.24-10.62,9.58-13.26,3.76-19.92,14.05-25.66,25.2-1.21,2.36-1.09,5.57-1.06,8.38,.13,10.99,2.53,13.42,12.95,11.17,10.83-2.34,21.99-4.54,31.95-9.11,10.47-4.8,19.99-5.1,30.23-1,2,.8,4.1,1.37,6.46,2.15-1.97,10.77-5.21,19.55-17.2,22.56-6.61,1.66-12.7,5.32-19.13,7.83-9.02,3.52-18.13,1.41-27.18-.07-10.03-1.64-20.12-3.05-30.02-5.28-9.23-2.08-13.76-7.86-13.17-17.08,.7-10.85,2.85-21.41,10.71-29.9,3.63-3.91,6.79-8.25,10.77-13.13-8.05-2.68-15-4.7-21.71-7.31-10.84-4.22-14.3-9.59-13.2-21.14,1.1-11.51,4.34-22.5,10.63-32.36,8.17-12.79,24.6-18.4,39-13.37Zm19.57,228.35s.25,.25,.24,.24c-.17,0-.34,0-.5,0-1.93,1.69-3.9,3.41-6.75,5.9,.76-5.48,3.65-5.89,6.75-5.9l.27-.23Zm-11.74,9.11c-2.44,2.79-4.87,5.57-7.31,8.36l-1.15-.94c2.35-2.93,4.7-5.86,7.05-8.79,.47,.46,.94,.91,1.41,1.37Zm-114.81-449.6h20.97c-.23,15.78-2.47,44.89-.57,44.14,.41,2.69,.94,5.12,1.14,7.58,1.58,20.02,3.57,39.99,8.61,59.49,4.51,17.45,13.12,32.31,28.34,43.14,6.46-4.76,8.76-11.74,10.32-18.87,5.6-25.65,7.49-51.61,6.25-77.84-.89-18.94-1.33-37.91-1.98-57.26,2.28-1.55,4.49-3.06,7.92-5.39,2.33,8.16,4.58,15.36,6.41,22.66,1.94,7.73,3.35,15.59,5.25,23.33,5.01,20.39,5.56,41.03,3.38,61.78-1.4,13.28-2.71,26.61-5.24,39.7-1.23,6.36-4.69,12.46-7.94,18.22-4.32,7.64-12.68,8.74-20.23,10.89-3.01,.86-6.18,1.32-9.04,2.53-6,2.56-10.75,1.39-15.75-2.85-11.31-9.59-18.4-22.06-23.57-35.38-8.01-20.6-11.78-42.19-12.44-64.4-.48-16.17-2.36-32.3-3.33-48.46-.45-7.53-1.49-15.2,1.5-23.01Zm-72.16,472.61l-.3-.17-.03,.02c-.25-.2-.49-.41-.74-.61-1.96-.74-3.93-1.49-5.89-2.23,.31-.61,.63-1.22,.94-1.84,1.64,1.36,3.29,2.72,4.95,4.07,.34,.13,.68,.26,1.02,.38,.01,.13,.04,.25,.06,.38,2.74,1.58,5.48,3.15,8.22,4.73-3.61-.29-7.54-.15-8.22-4.73Zm59.37-44.3c-1.54,11.39-4.58,22.59-7.08,34.48-2.81,.34-5.39,.21-7.63,1.02-4.63,1.67-11.29-2.13-13.88,5.05-7.18,.09-14.48,4.36-21.46,.46-6.77-3.78-13-8.51-19.48-12.8-2.43-1.61-4.9-3.18-8.89-5.77-4.11-11.16-8.85-24.05-11.32-38.02-3.83-21.69-5.14-43.34-3-65.1,1.66-16.82,5.72-33.2,13.29-48.56,4.32-8.76,10.29-15.99,17.69-22.24,3.63-3.07,7.4-4.9,12.21-3.43,.3,.09,.63,.08,.95,.11,20.41,1.93,28.45,11.05,27.93,31.68q-.11,4.24-5.73,7.92c-4.08-8.55-8.14-17.04-12.12-25.38-4.35-.84-5.89,1.04-7.16,4.67-5.23,14.93-5.02,30.1-1.91,45.22,3.38,16.43,7.62,32.68,11.34,49.04,.56,2.45,.37,5.07,.52,7.61,.12,1.89-.38,4.12,.44,5.62,5.14,9.34,6.33,20.44,13.34,29.74,8.62-12,11.15-26.46,22.04-36.78,3.44,12.26,1.44,23.97-.11,35.47Zm-12.69-228.65c-12.79,27.88-36.2,33.19-61.21,37.98,1.04-2.91,1.6-4.45,2.52-7.02-2.51,0-4.55-.41-6.38,.11-2.02,.58-3.86,2.02-5.77,3.08-1.15-2.8-2.3-5.59-3.89-9.45-3.61,1.93-6.38,2.32-9.86-.97-17.05-16.12-27.22-37.36-35.01-60.04-13.51-39.31-12.58-79.74-5.58-120.42,3.25-18.87,9-36.43,20.32-51.19,1.67-2.17,3.27-4.75,5.42-6.04,5.5-3.28,8.27-8.44,10.62-14.72,4.55-12.13,8.45-14.35,20.52-13.59,7.65,.48,15.35,.58,22.93,1.69,16.84,2.48,24.98,10.68,28.65,29.87,4.84,25.32,9.61,50.7,13.23,76.27,3.73,26.37,6.58,52.94,8.7,79.54,.76,9.5-1.96,19.31-2.65,29.02-.2,2.89,.32,6.74,1.91,8.72,3.13,3.9,7.35,6.66,10.91,10.17,3.18,3.14,6.06,6.65,9.87,10.87-10.15,4.87-17.22-3.09-25.26-3.88Zm90.4,256.31c-2.11,3.91-3.8,8.04-5.08,10.8-11.18,2.01-20.48,3.69-30.02,5.41-3.56-5.86-12.51-63.08-18.71-112.82-4.72-37.86-11.04-75.51-9.62-113.88,8.75-1.04,11.25-.1,14.88,7.37,7.25,14.9,13.01,30.33,16.54,46.6,3.28,15.14,7.75,30.04,10.65,45.24,4.17,21.83,7.4,43.84,11.18,66.73,2.08-1.47,3.95-2.42,5.35-3.84,8.29-8.38,16.57-16.77,24.63-25.38,2.86-3.06,5.43-4.53,9.93-3.49,4.85,1.11,10.04,.79,15.31,1.11,.77,7.08-1.19,12.37-5.27,17.19-7.39,8.73-15.31,17.14-21.65,26.6-6.86,10.24-12.24,21.48-18.12,32.37Zm681.05-84.16c-4.46,12.85-9.7,25.54-15.8,37.7-12.71,25.37-28.71,48.69-48.63,68.95-17.92,18.24-38.34,33.35-61.54,44.45-13.31,6.37-27.63,7.32-42.02,7.52-26.49,.36-52.72-1.21-79.08-5.23-38.21-5.83-75.72-14.17-112.91-24.35-23.62-6.47-46.89-14.6-70.83-19.48-21.11-4.3-42.88-5.91-64.45-7.21-17.02-1.03-34.18,.39-51.28,.42-14.46,.02-27.78,3.12-40.93,9.71-15.61,7.83-29.43,17.86-42.92,28.64-2.48,1.98-5.18,3.73-7.94,5.3-4.21,2.38-4.27,2.27-11.44-.43,.38-3.46,.81-7.15,1.18-10.85,.34-3.41,.07-6.99,1.04-10.2,1.42-4.7,3.7-9.14,5.85-14.23-.44-.19-1.41-.6-2.69-1.16,5.77-16.78,18.07-28.57,31.79-40.48-2.73-.15-4.5-.25-6.16-.34-.15,.07-.29,.14-.44,.21l-.25-.25c.23,.01,.46,.02,.69,.04,4.6-2.14,9.04-5.03,13.88-6.09,11.73-2.58,23.6-4.72,35.52-6.17,29.65-3.61,59.13-.75,88.49,3.56,41.07,6.03,80.91,17.33,120.24,30.09,39.14,12.69,78.74,23.24,119.36,29.52,23.64,3.66,47.49,4.54,71.44,.88,15.57-2.38,27.93-10.48,39.72-19.61,17.42-13.5,33.27-28.8,46.5-46.51,7.03-9.41,13.35-19.38,19.56-29.37,15.57-25.01,24.85-52.74,34.27-80.39,1.21-3.56,3.08-7,3.64-10.65,1.53-9.99,2.52-20.06,4-32.35-2.88,2.76-4.69,3.7-5.2,5.12-3.68,10.18-6.94,20.51-10.68,30.66-1.64,4.45-3.84,8.75-6.21,12.87-3.39,5.9-8.25,8.79-15.58,8.39-6.78-.37-13.65,.88-20.48,1.36-1.24,.09-2.5-.2-3.75-.22-6.66-.11-12.12-1.78-12.22-10.23h-9.59c-9.12-11.67-10.85-25.04-9.18-38.33,2.25-17.9,4.22-36.21,13.88-52.18,4.26-7.04,8.73-14.15,14.23-20.19,6.17-6.77,14.6-10.98,23.95-9.75,15.06,1.98,30.45,3.34,43.86,11.7,5.77,3.6,10.09,7.51,12.41,14.98,9.28,29.97,13.46,60.73,15.18,91.77,.99,17.78-2.65,35.54-8.51,52.43Z"/><path class="cls-1" d="M1623.26,550.58c-11.77,5.04-16.59,14.7-18.06,26.09-1.2,9.37-1.98,18.94-1.48,28.35,.45,8.42,2.71,16.82,11.93,23.05,9.04-13.72,17.8-26.48,20.76-42.18,.64-3.39,1.9-7.31,.82-10.24-3.33-9.05-6.65-18.32-13.98-25.07Z"/></g></svg>