<?xml version="1.0" encoding="UTF-8"?><svg id="Layer_1" xmlns="http://www.w3.org/2000/svg" viewBox="0 0 1920 1080"><defs><style>.cls-1{fill:#432a26;}</style></defs><path class="cls-1" d="M719.07,817.06c6.64-3.01,13.01-7.26,19.97-8.79,16.36-3.6,32.93-6.59,49.56-8.61,41.37-5.03,82.49-1.04,123.46,4.96,57.3,8.41,112.88,24.18,167.75,41.98,54.61,17.71,109.86,32.42,166.52,41.19,32.99,5.11,66.25,6.33,99.67,1.23,21.72-3.31,38.97-14.62,55.41-27.36,24.3-18.83,46.42-40.18,64.88-64.88,9.81-13.13,18.62-27.04,27.29-40.97,21.72-34.89,34.66-73.57,47.81-112.15,1.69-4.96,4.29-9.77,5.07-14.87,2.13-13.93,3.52-27.98,5.58-45.13-4.01,3.85-6.54,5.16-7.26,7.14-5.14,14.2-9.69,28.61-14.9,42.78-2.29,6.21-5.36,12.21-8.67,17.96-4.73,8.23-11.52,12.26-21.73,11.7-9.46-.52-19.04,1.23-28.58,1.89-1.73,.12-3.48-.28-5.23-.31-9.3-.16-16.91-2.48-17.05-14.28h-13.38c-12.73-16.28-15.14-34.93-12.81-53.48,3.14-24.98,5.88-50.51,19.37-72.8,5.94-9.82,12.17-19.74,19.86-28.17,8.6-9.44,20.37-15.31,33.41-13.6,21.01,2.76,42.49,4.66,61.2,16.32,8.05,5.02,14.08,10.47,17.31,20.9,12.95,41.81,18.78,84.73,21.19,128.03,1.38,24.81-3.7,49.58-11.87,73.15-6.22,17.93-13.54,35.63-22.04,52.6-17.74,35.4-40.06,67.92-67.84,96.2-25,25.44-53.48,46.53-85.85,62.01-18.58,8.88-38.54,10.21-58.62,10.48-36.96,.5-73.55-1.69-110.33-7.3-53.31-8.14-105.65-19.77-157.52-33.97-32.96-9.03-65.42-20.37-98.81-27.17-29.45-6-59.83-8.25-89.92-10.06-23.75-1.43-47.68,.55-71.54,.59-20.17,.03-38.76,4.35-57.1,13.54-21.78,10.92-41.06,24.92-59.88,39.96-3.46,2.76-7.23,5.21-11.08,7.39-5.87,3.33-5.96,3.17-15.96-.6,.53-4.83,1.14-9.98,1.65-15.14,.47-4.75,.1-9.75,1.45-14.22,1.98-6.56,5.17-12.75,8.16-19.85-.61-.26-1.97-.84-3.75-1.61,8.05-23.42,25.21-39.86,44.35-56.48-4.34-.24-6.95-.38-9.55-.52l.35,.34Zm780.75-186.27c12.61-19.15,24.84-36.94,28.96-58.85,.89-4.72,2.65-10.2,1.15-14.28-4.64-12.62-9.28-25.55-19.5-34.97-16.42,7.04-23.15,20.51-25.19,36.4-1.68,13.08-2.76,26.43-2.07,39.55,.62,11.74,3.77,23.46,16.65,32.15Z"/><path class="cls-1" d="M1375.72,485.55c2.01,16.49,3.92,30.99,5.49,45.53,1.61,14.86,2.9,29.74,4.26,44.62,.28,3.1,.75,6.28,.36,9.32-2.27,17.71,2.73,34.94,3.23,52.49,.49,17.3,3.05,34.54,4.05,51.84,1.73,29.76,3.02,59.54,4.3,89.31,.16,3.81-.88,7.66-1.26,10.68-11.54,2.14-21.63,4.1-31.75,5.87-9.66,1.7-14.05,0-17.96-9.03-10.41-24.05-20.52-48.24-30.22-72.59-7.69-19.31-14.57-38.95-21.89-58.41-.42-1.12-1.58-1.96-3.8-4.62,0,4.97-.34,8.21,.05,11.37,3.64,29.48,7.86,58.9,10.94,88.44,1.74,16.74,1.75,33.66,2.27,50.51,.09,2.99-.67,6.22-1.83,9-2.5,5.95-7.39,8.32-12.86,5.36-8.42-4.56-17.46-8.81-21.1-18.89-4.83-13.36-10.41-26.49-14.37-40.1-10.3-35.4-17.11-71.62-21.61-108.14-5.17-41.94-7.15-84.16-4.92-126.43,.46-8.66,.76-17.79,7.47-25.97,10.18,1.88,20.52,4.17,30.98,5.58,7.87,1.06,10.54,5.76,10.9,12.67,.81,15.52,7.69,28.89,14.2,42.56,11.21,23.58,21.89,47.41,32.4,71.32,7.12,16.19,13.45,32.73,20.38,49.01,2.41,5.67,5.57,11.02,10.3,16.51,.25-2.71,.95-5.46,.69-8.12-4.38-45.09-8.6-90.19-13.51-135.22-1.68-15.4-5.62-30.54-7.59-45.91-.85-6.67,.65-13.63,1.2-22.2,14.53,1.28,27.07,2.39,41.2,3.64Z"/><path class="cls-1" d="M1074.41,686.72c-2.83-29.87-7.25-59.7-8.05-89.63-.79-29.66-7.15-58.46-12.32-88.9,13.15-.95,23.54-1.7,35.65-2.57,1.05,8.79,2.37,16.94,2.94,25.14,2.81,39.9,4.94,79.85,8.25,119.71,2.73,32.89,11.56,64.67,19.78,96.52,2.98,11.54,4.97,23.33,7.38,34.85-10.21,4.34-17.46,11.67-28.49,11.49-3.57-.06-7.24,5.45-11.02,8.55-18.56-16.61-32.09-36.58-44.46-57.02-19.47-32.17-37.28-65.33-55.86-98.03-6.97-12.26-14.1-24.43-21.26-36.58-.79-1.34-2.31-2.26-5.81-5.56,.93,6.67,1.2,10.44,1.99,14.1,7.41,34.31,14.94,68.59,22.36,102.89,2.72,12.55,2.59,12.47-10.21,18.25-3.81,1.72-7.29,4.15-10.89,6.32-1.09,.66-2.01,2.13-3.09,2.21-15.86,1.18-15.86,1.13-24.98,7.23-9.44-14.01-11.64-30.31-14.72-46.26-4.96-25.66-10.23-51.28-14.22-77.1-5.39-34.93-13.17-69.59-13.22-105.19-.02-13.1,1.52-14.78,13.62-15.63,38.43-2.73,26.66-6.97,53.51,20.89,15.18,15.75,28.21,33.54,41.36,51.24,18.03,24.26,33.56,49.97,50.25,75,6.34,9.51,12.16,19.37,18.22,29.06,1.09-.33,2.18-.65,3.27-.98Z"/><path class="cls-1" d="M1532.06,429.99c-.71-2.87-1.3-5.23-1.66-6.72-3.92,3.91-9.15,7.2-11.4,11.9-2.49,5.19-2.25,11.69-3.17,17.43-1.15-4.82-1.77-11.61-9.97-8.22-3.32-6.8-7.77-12.68-9.04-19.18-2.44-12.51-3.77-25.35-4.28-38.1-.69-17.15-.3-34.35-.11-51.53,.1-9.73,1.23-19.47,.99-29.19-.63-25.76-1.76-51.51-2.71-77.96-5.31,9.74-10.03,29.96-10.93,47.08-.85,15.97-1.44,31.95-2.13,47.44-11.55,3.78-22.56,7.37-35.36,11.56-15.8-18.37-19.47-44.85-34.27-66.32,.32,5.45,.67,10.9,.95,16.35,1.75,34.64,3.93,69.27,4.9,103.93,.23,8.05-3.61,16.23-5.64,24.33-1.18,4.71-2.45,9.39-3.76,14.07-1.71,6.09-5.03,7.3-10.75,4.5-9.46-4.64-14.05-13.14-18.08-22.12-12.12-26.98-19.11-55.24-20.11-84.81-.68-20.02-1.55-40.11-.68-60.09,.74-16.8,3.55-33.54,6.02-50.22,2.67-17.99,5.98-35.89,9.06-53.82,.92-5.35,1.84-11.44,8.69-11.59,6.34-.14,10.43,3.87,12.46,10.13,1.06,3.27,2.8,6.52,4.93,9.22,13.6,17.21,23.96,36.34,33.93,55.76,8.45,16.47,17.35,32.7,27.06,50.95,1.97-3.52,3.5-5.39,4.13-7.53,11.02-37.52,22.46-74.93,29.06-113.61,2.66-15.61,3.06-15.54,20.32-15.87,6.51,7.54,4.56,17.54,6.08,26.38,6.53,38.11,12.26,76.35,18.16,114.57,4.82,31.19,9.86,62.35,14.03,93.62,1.93,14.45,2.33,29.13,2.69,43.72,.06,2.57-3.04,5.99-5.57,7.68-3.79,2.53-8.37,3.88-13.84,6.26Z"/><path class="cls-1" d="M880.64,433.97c-3.16-10.67-6.8-20.91-9.18-31.43-5.08-22.46-10-44.98-14.07-67.64-4.47-24.92-8.78-49.92-11.48-75.07-1.89-17.61-1.29-35.52-1.09-53.29,.06-5.04,2.59-10.05,3.85-14.59,2.57-.55,3.86-1.01,5.16-1.07,19.66-.97,22.71,.68,29.58,18.98,3.82,10.16,9.61,18.49,16.95,26.48,21.97,23.91,42.56,49,59.44,76.9,2.72,4.49,5.79,8.76,11.02,12.57-1.19-9.26-2.52-18.51-3.56-27.79-3.57-31.82-7.01-63.65-10.55-95.47-1.38-12.37-2.93-24.73-4.3-37.11-.39-3.53-.85-7.13-.54-10.63,.58-6.37,3.07-10.85,10.83-10.48,6.02,.29,12.1-.53,18.39-.87,11.13,100.34,20.32,199.83,56.33,295.18-7.19,.77-13.61,.91-19.76,2.26-5.89,1.3-11.49,3.86-17.59,5.99-10.59-6.52-19.38-15.24-26.31-27.03-20.71-35.21-42.77-69.62-64.39-104.3-1.81-2.9-4.23-5.42-6.09-7.76,.53,13.52,1.07,26.93,1.59,40.34,.07,1.74-.59,3.78,.09,5.2,9.08,18.76,5.34,39.3,8.17,58.91,1.28,8.91-4.15,13.21-12.83,14.86-6.41,1.22-12.46,4.28-19.67,6.87Z"/><path class="cls-1" d="M402.36,515.18c-5.04,2.7-8.9,3.23-13.75-1.35-23.79-22.49-37.98-52.12-48.85-83.77-18.84-54.84-17.55-111.25-7.78-168.01,4.53-26.33,12.55-50.83,28.34-71.42,2.33-3.03,4.56-6.63,7.57-8.42,7.68-4.58,11.53-11.78,14.82-20.53,6.34-16.92,11.79-20.02,28.63-18.96,10.67,.67,21.42,.81,31.99,2.36,23.5,3.46,34.85,14.9,39.97,41.68,6.76,35.33,13.41,70.74,18.46,106.41,5.21,36.79,9.18,73.86,12.13,110.96,1.06,13.25-2.74,26.94-3.69,40.49-.28,4.04,.45,9.4,2.67,12.16,4.37,5.44,10.26,9.29,15.22,14.19,4.43,4.38,8.46,9.28,13.77,15.17-14.15,6.79-24.03-4.31-35.24-5.42-17.84,38.9-50.5,46.3-85.4,52.98,1.46-4.05,2.23-6.21,3.52-9.8-3.5,0-6.35-.58-8.9,.15-2.82,.81-5.38,2.82-8.05,4.3-1.61-3.9-3.21-7.8-5.43-13.18Zm5.25-315.07c-6.04-2.79-7.88,1.87-10.15,6.76-23.23,50.05-33.48,103.35-28.86,159.48,3.1,37.66,13.28,72.98,41.17,97.58,14.25,12.57,29.1,25.22,48.68,24.36,1.78-2.34,3.24-3.97,4.42-5.83,12.06-18.97,11.3-25.78-1.96-43.94-8.31-11.39-21.55-17.98-25.63-33.44-.11-.41-.82-.63-1.27-.9-14.85-8.7-13.41-24.52-14.58-40.03,7.29-1.47,13.69-3.13,20.18-3.99,9.56-1.27,14.35,1.5,18.22,11.36,3.47,8.85,5.78,18.27,9.03,27.24,1.32,3.64,3.77,6.77,5.71,10.13-.53-33.38-4.12-65.12-13.89-95.51-11.99-37.28-26.09-73.44-46.06-106.35,1.13-1.4,3.4-3.77,3.21-4.05-2.47-3.69-5.29-7.08-8.02-10.54-.76,.48-1.52,.96-2.28,1.45,.7,2.07,1.39,4.15,2.09,6.22Z"/><path class="cls-1" d="M493.73,801.56c12.02-16.74,15.56-36.91,30.74-51.31,4.79,17.11,2.01,33.45-.15,49.48-2.14,15.9-6.38,31.51-9.88,48.1-3.93,.48-7.52,.29-10.64,1.42-6.45,2.33-15.75-2.97-19.36,7.04-10.01,.13-20.19,6.09-29.94,.64-9.44-5.28-18.14-11.87-27.18-17.86-3.39-2.25-6.83-4.44-12.4-8.06-5.74-15.57-12.35-33.56-15.79-53.04-5.35-30.27-7.17-60.46-4.18-90.83,2.31-23.47,7.97-46.31,18.54-67.75,6.03-12.23,14.36-22.31,24.69-31.02,5.07-4.28,10.32-6.84,17.03-4.79,.42,.13,.88,.1,1.33,.15,28.48,2.69,39.69,15.41,38.96,44.2q-.15,5.91-7.99,11.05c-5.7-11.93-11.35-23.78-16.9-35.4-6.07-1.17-8.22,1.45-10,6.52-7.29,20.83-7.01,41.99-2.66,63.09,4.72,22.92,10.63,45.6,15.82,68.42,.78,3.42,.51,7.08,.73,10.62,.16,2.64-.53,5.74,.62,7.84,7.17,13.03,8.83,28.52,18.62,41.48Z"/><path class="cls-1" d="M1284.01,171.18c7.48-2.57,11.96-.61,16.46,4.26,6.73,7.29,12.28,14.84,15.24,24.56,17.09,56.14,23.38,113.19,13.39,171.27-2.21,12.87-8.5,25.06-13.18,37.46-.71,1.88-2.63,3.66-4.45,4.69-9.49,5.42-17.22,13.97-27.47,17.64-10.69,3.83-22.16,5.48-33.27,8.18-2.05,.5-3.98,1.46-6.53,2.43-15.39-18.16-27.41-38.06-30.91-62.16-5.49-37.86-10.02-75.86-8.28-114.2,.68-15.02,3.4-29.95,5.36-44.9,.34-2.6,1.31-5.18,2.34-7.62,1.7-4.01,2.95-9.17,8.95-7.86,5.19,1.14,6,5.67,6.76,10.3,5.3,32.43,9.99,65,16.52,97.19,3.95,19.5,10.52,38.51,16.65,57.5,1.35,4.17,5.81,7.34,9.33,11.56,7.97-13.16,9.54-27.56,11.27-42.01,2.84-23.69-1.33-47.05-2.86-70.52-1.1-16.85-2.5-33.68-4.13-50.48-1.61-16.55,5.23-31.32,8.8-47.31Z"/><path class="cls-1" d="M625.66,853.37c-15.6,2.81-28.57,5.15-41.88,7.54-4.96-8.17-17.46-88-26.11-157.4-6.58-52.81-15.41-105.34-13.43-158.88,12.21-1.45,15.69-.14,20.76,10.28,10.11,20.78,18.15,42.31,23.07,65.01,4.58,21.12,10.81,41.91,14.86,63.12,5.82,30.45,10.32,61.16,15.6,93.09,2.9-2.05,5.51-3.38,7.46-5.36,11.56-11.69,23.12-23.4,34.36-35.4,3.99-4.26,7.57-6.31,13.85-4.87,6.77,1.55,14,1.11,21.36,1.55,1.07,9.88-1.66,17.25-7.35,23.98-10.31,12.18-21.36,23.92-30.2,37.11-9.57,14.28-17.07,29.97-25.28,45.16-2.94,5.45-5.3,11.22-7.09,15.06Z"/><path class="cls-1" d="M731.92,175.35c12.68-1.72,20.45,1.54,24.76,11.8,9.09,21.67,19.36,42.91,27.37,64.97,18.48,50.88,35.87,102.16,53.8,153.25,1.98,5.64,3.8,11.03-1.52,16.57-1.62-.81-3.43-1.71-5.94-2.96-5.83,6.31-9.47,17.2-22.2,12.76-9.41-26.79-19.07-54.28-28.98-82.47-5.47,.99-9.82,1.48-14.01,2.57-21.63,5.67-21.41,5.75-23.47,27.97-1.06,11.49-3.03,22.9-4.51,34.35-.51,3.99-.51,7.93-5.59,9.52-1.27,.4-2.02,3.45-2.42,5.4-.69,3.4-.91,6.89-1.3,10.06q-12.01,3.08-25.65-3.86c-2.64-30.81,2.37-61.03,5.5-91.32,1.5-14.46,5.34-28.66,7.15-43.1,2.54-20.24,3.61-40.68,6.35-60.89,2.91-21.5,7.01-42.84,10.66-64.63Zm13.61,159.71c10.2-4.43,18.16-7.9,26.21-11.4-6.61-22.07-12.83-42.83-19.05-63.6l-2.6,.08c-.2,4.82-.51,9.63-.58,14.45-.09,6.63,.43,13.3-.06,19.89-.95,12.78-2.43,25.51-3.92,40.58Z"/><path class="cls-1" d="M1112.92,420.48c-2.92,4.37-4.51,6.75-7.19,10.76-2.62-8.62-5.93-15.99-7.01-23.67-3.87-27.35-3.96-54.84-2.64-82.44,.97-20.33,.22-40.73,.26-61.11,.02-15.12,.12-30.24,.08-45.36-.01-4.33-.39-8.66-.65-13.89-22.37,2.47-44.19,5.35-62.21-12.28,2.93-4.02,6.52-6.39,6.55-12.26,.03-6.15,6.03-9.9,13.02-11.15,19.24-3.44,38.34-5.89,57.96-2.46,27.48,4.8,55.1,8.8,83.15,13.23,2.11,16.21-10.06,23.77-15.87,34.63-16.19-2.92-31.77-5.72-48.05-8.65-.31,2.09-1.18,4.27-.86,6.25,3.26,20.12,7.52,40.12,9.84,60.35,1.86,16.24,1.51,32.74,2,49.13,.69,22.83-.88,45.7,3.1,68.47,1.38,7.87-.99,15.85-4.21,23.97-2.15,5.42-2.04,13.06-3.43,19.41-7.06,1.01-13.49,1.93-20.59,2.95-.95-4.62-1.86-9.04-3.27-15.86Z"/><path class="cls-1" d="M819.7,758.23c-10.96-8.24-15.51-16.83-16.53-27.63-1.13-11.91-3.6-23.74-4.13-35.66-1.5-33.77-2.4-67.57-3.37-101.36-.84-29.21-1.44-58.43-2.17-87.64-.19-7.65,.33-15.09,5.59-21.73,2.98,.35,6,.7,9.02,1.05,16.94,1.95,18.58,3.87,22,20.96,1.52,7.59,4.33,14.95,6.93,22.29,14.97,42.25,30.45,84.32,44.92,126.74,6.29,18.42,10.82,37.46,15.62,56.35,1.15,4.53,.17,9.6,.17,14.26-7.54,2.92-14.54,5.64-22.22,8.62-6.27-18.94-12.1-36.54-18.36-55.43-8.91,1.23-17.02,2.34-24.91,3.43-4.98,25.67,1.75,51.97-12.57,75.76Zm30.41-100.17c-5.61-16.21-9.83-31.17-18.57-44.45-.38,15.85-2.18,31.55,.57,47.87,6.02-1.14,11.1-2.11,18-3.42Z"/><path class="cls-1" d="M542.16,202.18h29.25c-.32,22.02-3.45,62.62-.79,61.59,.58,3.76,1.32,7.15,1.59,10.58,2.21,27.93,4.98,55.79,12.02,83,6.29,24.34,18.3,45.08,39.54,60.19,9.01-6.64,12.22-16.38,14.39-26.33,7.82-35.78,10.44-72,8.72-108.6-1.24-26.43-1.85-52.89-2.76-79.89,3.18-2.17,6.27-4.27,11.04-7.52,3.25,11.39,6.39,21.43,8.95,31.61,2.71,10.78,4.67,21.75,7.32,32.54,6.99,28.45,7.76,57.24,4.71,86.19-1.95,18.52-3.79,37.13-7.3,55.38-1.71,8.88-6.54,17.39-11.08,25.42-6.03,10.65-17.68,12.2-28.22,15.2-4.2,1.2-8.63,1.84-12.61,3.54-8.37,3.57-15,1.94-21.98-3.97-15.78-13.38-25.67-30.78-32.89-49.36-11.17-28.74-16.43-58.86-17.35-89.85-.67-22.56-3.29-45.06-4.64-67.61-.63-10.5-2.08-21.2,2.09-32.1Z"/><path class="cls-1" d="M670.87,601.62c-11.23-3.75-20.92-6.55-30.28-10.2-15.13-5.89-19.95-13.38-18.41-29.49,1.54-16.06,6.05-31.39,14.83-45.15,11.4-17.85,34.32-25.67,54.42-18.65,10.74,3.76,21.4,7.75,33.2,12.03-2.98,6.41-5.28,11.09-7.33,15.87-1.65,3.83-4.21,5.63-8.22,7.48-9.53,4.4-18.44,10.24-27.32,15.95-5.22,3.36-7.18,8.65-6.84,14.98,.47,8.75,2.79,12.08,11.35,13.67,4.34,.81,9,1.58,13.24,.84,10.43-1.83,19.11,2,28.52,6.88-1.61,8.47-8.24,11.5-14.82,13.36-18.5,5.24-27.79,19.6-35.8,35.16-1.69,3.29-1.53,7.77-1.48,11.69,.18,15.33,3.53,18.72,18.07,15.58,15.11-3.26,30.68-6.34,44.58-12.71,14.6-6.69,27.89-7.12,42.17-1.39,2.8,1.12,5.72,1.91,9.01,3-2.75,15.03-7.27,27.28-24,31.48-9.22,2.32-17.72,7.42-26.68,10.92-12.59,4.9-25.3,1.96-37.92-.1-13.99-2.29-28.07-4.25-41.88-7.36-12.88-2.91-19.2-10.97-18.38-23.82,.97-15.14,3.97-29.88,14.95-41.71,5.06-5.45,9.47-11.5,15.02-18.32Z"/><path class="cls-1" d="M1214.64,813.78c-6.35-5.29-11.58-4.4-16.66,1.88-1.03-3.9-1.69-6.4-2.74-10.4-5.74,9.95-20.59-3.04-25.58,11.75-2.24-10.74-6-21.42-6.46-32.23-1.81-42.59-2.8-85.23-3.55-127.86-.14-7.87,1.86-15.86,3.55-23.65,1.12-5.19,4.56-7.13,10.08-4.83,7.34,3.06,13.14,7.39,15.38,15.37,4.29,15.28,9.21,30.43,12.62,45.91,5.44,24.67,9.21,49.72,14.93,74.31,3.84,16.51,2.65,32.36-1.56,49.74Z"/><path class="cls-1" d="M1136.06,589.83c-5.23-25.21-3.11-47.23,6.94-69.17,3.81,.62,6.34,1,8.85,1.44,8.13,1.43,18.31-.23,22.99,7.83,6.24,10.74,10.01,22.92,7.69,35.77-1.41,7.81-3.73,15.45-5.73,23.56-13.18,.36-25.77-8.11-40.74,.57Z"/><path class="cls-1" d="M702.34,829.44l-10.2,11.66-1.61-1.31c3.28-4.09,6.55-8.18,9.83-12.27,.66,.64,1.31,1.27,1.97,1.91Z"/><path class="cls-1" d="M441.07,861.29c3.96,2.28,7.93,4.56,11.89,6.84-5.17-.41-10.83-.18-11.55-7.12l-.34,.28Z"/><path class="cls-1" d="M718.72,816.72c-2.82,2.47-5.63,4.93-9.79,8.56,1.11-8.06,5.53-8.26,10.11-8.24,.02,.02-.33-.33-.33-.33Z"/><path class="cls-1" d="M441.41,861.01c-3.21-1.22-6.42-2.43-9.63-3.65l1.31-2.56c2.64,2.19,5.27,4.37,7.94,6.53,.04-.03,.38-.32,.38-.32Z"/></svg>