<?xml version="1.0" encoding="UTF-8" standalone="no"?>
<!DOCTYPE svg PUBLIC "-//W3C//DTD SVG 1.1//EN" "http://www.w3.org/Graphics/SVG/1.1/DTD/svg11.dtd">
<!-- Created with Vectornator (http://vectornator.io/) -->
<svg height="100%" stroke-miterlimit="10" style="fill-rule:nonzero;clip-rule:evenodd;stroke-linecap:round;stroke-linejoin:round;" version="1.1" viewBox="0 0 32 32" width="100%" xml:space="preserve" xmlns="http://www.w3.org/2000/svg" xmlns:vectornator="http://vectornator.io" xmlns:xlink="http://www.w3.org/1999/xlink">
<defs/>
<clipPath id="ArtboardFrame">
<rect height="32" width="32" x="0" y="0"/>
</clipPath>
<g clip-path="url(#ArtboardFrame)" id="Layer-1" vectornator:layerName="Layer 1">
<path d="M15.0027 0.0320833C14.8732-0.00686365 14.7889 0.0416194 14.7358 0.165542C14.6976 0.254059 14.6589 0.338438 14.6357 0.43246C14.4063 1.35696 14.3081 2.32546 14.2019 3.26846C14.0894 4.26533 14.0038 5.27006 13.935 6.27128C13.8862 6.98254 13.7939 7.6671 13.7014 8.37326C13.5838 9.27061 13.4764 10.182 13.3344 11.0758C13.2699 11.4802 13.3473 11.8828 13.201 12.2769C13.2025 12.2998 13.1916 12.3366 13.1676 12.3437C13.2003 12.5644 13.199 12.5663 13.0342 12.5105C12.7816 12.4247 12.5169 12.3364 12.2668 12.2436C12.1916 12.2518 12.113 12.2559 12.0666 12.1768C11.993 12.182 11.9524 12.1679 11.8998 12.1101L11.8664 12.1101C11.8664 12.1101 11.8326 12.1101 11.833 12.1101C11.4766 12.0051 11.1253 11.9038 10.7654 11.8098C10.1536 11.6501 9.54791 11.4494 8.93029 11.3094C8.38543 11.1858 7.86542 11.0024 7.32879 10.8422C7.11674 10.7789 6.91471 10.682 6.69486 10.7088C6.47334 10.7359 6.24826 10.7407 6.02756 10.7088C5.98863 10.7033 5.93966 10.7295 5.92747 10.7755C5.88105 10.9518 5.78379 11.1237 5.79401 11.3094C5.80149 11.4415 5.9355 11.5031 6.02756 11.5763C6.42411 11.8914 6.81489 12.1789 7.19533 12.5105C8.00062 13.2127 8.79165 13.9372 9.53086 14.7126C10.104 15.3141 10.6743 15.9139 11.3993 16.3474C11.4575 16.3824 11.5406 16.4316 11.5327 16.5476C11.2629 16.644 10.9803 16.7696 10.6986 16.8479C10.2002 16.9868 9.69842 17.0867 9.19721 17.2149C8.49853 17.3935 7.79424 17.5715 7.1286 17.8488C6.68169 18.0353 6.24484 18.177 5.79401 18.3493C5.32113 18.5299 4.82471 18.7147 4.35933 18.9165C3.99227 19.0754 3.67595 19.3318 3.32502 19.5171C3.18655 19.5902 3.16638 19.7539 3.19156 19.8841C3.22225 20.0434 3.3817 19.9712 3.49185 19.9842C3.54536 19.9905 3.60437 19.9849 3.65867 19.9842C4.60874 19.97 5.54734 20.0142 6.49467 20.0843C7.53719 20.1614 8.54382 20.4258 9.53086 20.7516C10.2846 21.0002 11.0148 21.3414 11.833 21.4189C11.833 21.4888 11.8409 21.5483 11.833 21.619C11.7489 22.3669 11.648 23.1398 11.5661 23.8878C11.487 24.6132 11.4391 25.335 11.3326 26.0565C11.2873 26.3634 11.2765 26.6506 11.2325 26.9574C11.1864 27.278 11.0665 27.602 11.0323 27.925C10.978 28.4384 10.8962 28.9474 10.8321 29.4597C10.7668 29.9846 10.682 30.5139 10.5652 31.0279C10.4845 31.383 10.6643 31.6563 10.7654 31.9621C10.7709 31.9788 10.7908 31.9993 10.7987 31.9955C11.0226 31.889 10.9697 32.1104 11.0323 32.1957C11.1224 32.1035 11.0687 32.0093 11.1324 31.9287C11.1662 31.8863 11.1683 31.8253 11.2325 31.8286C11.4335 31.8394 11.4348 31.8214 11.5327 31.7619C11.6224 31.7071 11.6376 31.5381 11.7663 31.5617C11.961 31.5975 11.9793 31.4972 12.0332 31.3615C12.392 30.4574 12.7852 29.5384 13.201 28.659C13.487 28.0541 13.797 27.4537 14.1018 26.8573C14.1169 26.808 14.0426 26.7713 14.0685 26.7238C14.0867 26.6893 14.0962 26.6917 14.1352 26.6237C14.1801 26.5565 14.1793 26.5548 14.2019 26.5237C14.2242 26.492 14.2763 26.5511 14.302 26.5237C14.4671 26.2049 14.5961 25.8797 14.7691 25.5561C14.7691 25.6639 14.7841 25.7189 14.7691 25.7896C14.8069 25.7446 14.8243 25.7044 14.8692 25.6562C14.9372 25.5842 14.9531 25.5404 14.9693 25.5227C15.0217 25.4656 15.1055 25.531 15.1695 25.5227C15.2002 25.4414 15.0776 25.3589 15.1361 25.2892C15.2062 25.1772 15.3446 25.2158 15.4698 25.2224C15.4964 25.1733 15.5682 25.1974 15.6032 25.1557C15.5864 25.0962 15.5061 25.0518 15.5365 24.9889C15.5377 24.9833 15.5621 24.962 15.6366 24.8221C15.6928 24.7338 15.762 24.6589 15.7701 24.6552C15.8438 24.5781 15.9429 24.6295 16.037 24.6552C15.9975 24.5081 15.7882 24.4452 15.8368 24.2882C15.92 24.0193 16.0331 23.7652 16.2038 23.5542C16.2529 23.4935 16.3421 23.5639 16.404 23.5208C16.6098 22.7983 16.8508 22.0846 17.0046 21.3521C17.1454 21.3242 17.189 21.4431 17.2381 21.519C17.5985 22.0776 18.0223 22.5787 18.4059 23.1205C18.5086 23.2657 18.5852 23.4097 18.6061 23.5876C18.6112 23.6315 18.6013 23.6771 18.6061 23.721C18.6421 23.7315 18.6814 23.7428 18.7062 23.7544C18.9483 23.8674 19.1233 24.0052 19.2734 24.2215C19.3569 24.3419 19.2604 24.4633 19.2066 24.5885C19.354 24.5934 19.4754 24.4315 19.607 24.5218C19.7247 24.6025 19.8116 24.6655 19.9406 24.7887C19.9735 24.8201 19.9783 24.8275 20.0074 24.8554C20.1008 24.9449 19.9661 25.0739 20.0074 25.1891C20.2896 25.2289 20.4044 25.4589 20.5746 25.6228C20.6155 25.5559 20.6312 25.4711 20.5412 25.3559C20.8665 25.4712 20.9185 25.7663 21.1084 25.9231C21.3021 26.0829 21.4441 26.2955 21.6089 26.4903C21.6389 26.519 21.6811 26.5597 21.709 26.5904C21.7298 26.6131 21.7372 26.6375 21.709 26.6571C21.6916 26.6689 21.6384 26.663 21.6089 26.6571C21.5924 26.6721 21.592 26.6756 21.5755 26.6905C21.7682 26.8949 21.9074 27.1688 22.1427 27.291C22.4035 27.4265 22.6228 27.5849 22.81 27.7915C22.933 27.9274 23.0629 28.0819 23.177 28.2253C23.2492 28.3155 23.3296 28.3621 23.4439 28.3587C23.4431 28.3533 23.4439 28.3305 23.4439 28.3253C23.4384 28.2506 23.4692 28.2052 23.544 28.1919C23.7352 28.1576 23.8324 28.0024 24.0445 27.9917C24.0038 27.8441 23.9863 27.7122 23.9444 27.5913C23.6429 26.7241 23.4466 25.822 23.2771 24.9221C23.141 24.2019 23.0187 23.4722 22.8767 22.7534C22.6804 21.7608 22.4814 20.7868 22.3429 19.784C22.3142 19.5775 22.2196 19.3661 22.3095 19.1501C22.2463 18.7814 22.3748 18.6217 22.7433 18.6496C22.8459 18.6575 22.9208 18.6108 23.0102 18.5829C23.1085 18.5522 23.1972 18.489 23.3105 18.5161C23.4073 18.4914 23.5133 18.4408 23.6108 18.416C23.9082 18.3181 24.161 18.0806 24.5116 18.1491C24.5888 18.0921 24.6621 17.9936 24.7785 18.049C24.8042 17.9959 24.8245 17.9957 24.8786 17.9823C25.0848 17.9316 25.2974 17.8687 25.4792 17.7487C25.6067 17.6646 25.7614 17.647 25.9129 17.682C25.968 17.6518 26.0238 17.6126 26.0797 17.5819C26.2608 17.4702 26.3688 17.2518 26.6136 17.2483C26.6895 17.1625 26.8112 17.1321 26.9139 17.1148C27.1935 17.0676 27.4148 16.9246 27.6813 16.8479C27.7764 16.8204 27.8601 16.7704 27.8814 16.6811C27.9562 16.3667 27.91 16.2641 27.6145 16.1139C26.914 15.7575 26.2357 15.3505 25.4792 15.1129C24.9561 14.9485 24.4496 14.7352 23.911 14.6125C23.5534 14.531 23.1919 14.5362 22.8434 14.4123C22.6214 14.3332 22.5893 14.265 22.7433 14.112C23.0478 13.8098 23.2294 13.4195 23.4773 13.0777C23.7409 12.7142 23.987 12.344 24.2447 11.9766C24.5708 11.5124 24.831 10.9912 25.1789 10.542C25.3418 10.3315 25.5218 10.1224 25.6794 9.90803C26.0302 9.42962 26.3742 8.95961 26.7137 8.47335C27.2087 7.76485 27.7859 7.12374 28.3485 6.47147C28.4728 6.32749 28.5657 6.18497 28.6155 6.00436C28.7295 5.58737 28.7095 5.6054 28.2818 5.50389C27.8534 5.40241 27.4825 5.41884 27.1141 5.70408C26.8072 5.94167 26.4366 6.09318 26.0797 6.23792C25.7742 6.36184 25.4951 6.52752 25.2456 6.73839C24.9741 6.96775 24.7215 7.18168 24.3781 7.30559C24.3207 7.32646 24.2617 7.39931 24.2113 7.43905C23.8385 7.73408 23.4456 7.97676 23.0102 8.17307C22.5381 8.38589 22.04 8.5528 21.6089 8.84036C20.7978 9.38131 19.8909 9.64908 18.9731 9.9414C18.9078 9.74783 18.8386 9.55674 18.7729 9.3742C18.503 8.62713 18.2255 7.89134 17.9721 7.13876C17.6192 6.09074 17.2993 5.02502 16.9712 3.96912C16.7422 3.23229 16.5357 2.4925 16.2705 1.76705C16.1155 1.34296 16.0387 0.903289 15.9369 0.465824C15.8928 0.276991 15.8129 0.172698 15.6032 0.132177C15.403 0.0936232 15.2001 0.0910937 15.0027 0.0320833ZM15.2029 2.83472C15.3551 2.90434 15.3987 3.03664 15.403 3.135C15.4184 3.49456 15.5497 3.83177 15.6366 4.16931C15.7483 4.60246 15.8506 5.01546 16.0036 5.43716C16.1535 5.84947 16.2494 6.29039 16.404 6.70502C16.5314 7.04689 16.6083 7.41392 16.7043 7.77269C16.8293 8.23968 17.0297 8.69216 17.2047 9.14065C17.4703 9.82006 17.726 10.5011 17.9054 11.2093C17.9451 11.3658 18.0884 11.4715 18.0722 11.643C18.1289 11.628 18.0267 11.8348 18.1723 11.7097C18.286 11.6118 18.435 11.5214 18.6061 11.6764C18.6501 11.7165 18.7424 11.5002 18.8396 11.643C18.9718 11.5207 19.1761 11.6388 19.3067 11.4094C19.3921 11.2596 19.6627 11.242 19.8406 11.1425C20.564 10.737 21.3427 10.4225 22.0426 9.97476C22.8593 9.45234 23.7443 9.09007 24.545 8.54008C24.9616 8.2537 25.395 7.99076 25.8128 7.70596C25.8589 7.67448 25.9039 7.63294 26.013 7.63923C25.7282 7.94175 25.5897 8.29885 25.3124 8.57345C25.2901 8.63559 25.2435 8.68254 25.1789 8.70691C25.0428 9.00353 24.8404 9.25394 24.6451 9.50766C24.0324 10.302 23.4891 11.1258 22.9101 11.9433C22.4927 12.5326 21.9869 13.0714 21.5088 13.6115C21.4376 13.6918 21.3755 13.7979 21.2752 13.8451C21.2386 13.9977 21.1508 14.1098 21.0417 14.2121C20.9583 14.2908 20.9106 14.3653 20.9082 14.479C20.9243 14.6116 20.9251 14.7468 20.9416 14.8794C21.0376 14.9746 20.9849 15.1489 21.1418 15.213C21.1831 15.2299 21.1951 15.3099 21.1751 15.3465C21.0877 15.5057 21.2174 15.4696 21.3086 15.4799C21.2737 15.4355 21.2197 15.4225 21.2752 15.3465C21.3237 15.2804 21.3859 15.2812 21.4421 15.3131C21.4682 15.3281 21.4848 15.361 21.5088 15.3798C21.7076 15.2945 21.8205 15.4535 21.9759 15.5133C22.0175 15.4071 22.1252 15.4411 22.2094 15.4466C22.9314 15.4934 23.5994 15.6756 24.2781 15.9137C24.5866 16.0219 24.8996 16.1192 25.2123 16.214C25.3571 16.258 25.4986 16.3095 25.6126 16.4142C25.9137 16.4539 26.1893 16.6008 26.4801 16.6811C26.4585 16.7283 26.4614 16.7403 26.4468 16.7478C26.333 16.808 26.2318 16.7781 26.1131 16.7478C25.964 16.7097 26.2027 16.8946 26.0464 16.9146C25.9328 16.9292 25.8226 17.0041 25.7127 17.0481C25.6122 17.0878 25.514 17.1112 25.4125 17.1482C25.3012 17.1891 25.191 17.2423 25.0788 17.2816C24.6504 17.4315 24.197 17.5555 23.7442 17.6153C23.6846 17.6771 23.6148 17.6632 23.544 17.682C23.4028 17.7965 23.206 17.7754 23.0436 17.8155C22.5031 17.9496 21.9866 18.0661 21.4421 18.1825C21.2773 18.2179 21.1691 18.3136 21.1751 18.4828C21.1621 18.8585 21.2145 19.238 21.3086 19.5838C21.413 19.9662 21.4988 20.3664 21.5755 20.7516C21.7752 21.7544 21.9289 22.7476 22.1093 23.7544C22.2321 24.441 22.3624 25.1241 22.5765 25.7896C22.5959 25.8502 22.6002 25.9272 22.5765 25.9898C22.3544 25.9643 22.2706 25.7933 22.1427 25.6562C22.0291 25.5338 21.9682 25.3649 21.8758 25.2224C21.6287 25.0636 21.4253 24.8138 21.2085 24.6219C20.6248 24.1046 20.1242 23.5206 19.6737 22.8869C19.2984 22.3589 18.9374 21.8541 18.5727 21.3188C18.4626 21.1575 18.3308 20.9956 18.2057 20.8517C17.972 20.5826 17.7717 20.2866 17.5384 20.0175C17.4235 19.885 17.2966 19.8203 17.1046 19.8841C16.943 19.938 16.7749 19.9641 16.6042 19.9842C16.4535 20.0019 16.3892 20.0836 16.3373 20.2177C16.2802 20.3645 16.2374 20.5224 16.1371 20.6515C16.1387 20.718 16.1545 20.786 16.0703 20.8183C16.0829 21.0532 16.0019 21.2555 15.9035 21.4522C15.4362 22.3865 14.9595 23.3171 14.4355 24.2215C13.9874 24.9953 13.5266 25.7697 13.1009 26.557C12.9132 26.904 12.6861 27.2247 12.467 27.5913C12.4378 27.2223 12.5395 26.8875 12.567 26.557C12.5442 26.4968 12.5302 26.4578 12.5337 26.3902C12.5628 25.8459 12.6475 25.3035 12.6338 24.7553C12.6255 24.4234 12.6845 24.0876 12.7005 23.7544C12.741 22.918 12.7565 22.086 12.6338 21.252C12.5685 20.8075 12.5936 20.81 12.1333 20.8183C12.1121 20.8258 12.0874 20.8108 12.0666 20.8183L12.0332 20.8183C11.9419 20.7923 11.8968 20.8818 11.833 20.9184C11.7862 20.6143 11.4046 20.8778 11.3326 20.6181C10.8263 20.4796 10.3225 20.3375 9.83114 20.151C9.0813 19.8662 8.32169 19.6959 7.52898 19.5838C7.25594 19.5452 6.97298 19.4367 6.69486 19.5504C6.6685 19.5614 6.61878 19.5658 6.59476 19.5504C6.25882 19.334 5.88509 19.4504 5.52709 19.417C5.23088 19.389 4.91698 19.3763 4.62625 19.4837C4.55862 19.5089 4.5031 19.4945 4.45942 19.417C4.78279 19.2439 5.1185 19.1107 5.46036 18.9832C6.76487 18.4974 8.07904 18.0235 9.43076 17.682C9.67941 17.6191 9.93536 17.5179 10.1982 17.5152C10.3671 17.4456 10.5484 17.3597 10.732 17.3484C10.7816 17.2732 10.8598 17.2907 10.9322 17.2816L10.9322 17.315C10.9625 17.2308 11.0502 17.2798 11.099 17.2483C11.398 17.1004 11.7232 17.0089 11.9998 16.8145C12.156 16.7048 12.2923 16.5693 12.2668 16.3474C12.2526 16.2231 12.1799 16.1583 12.0666 16.1139C11.6944 15.9675 11.4214 15.7126 11.1657 15.4132C10.8089 14.9954 10.478 14.5714 10.1314 14.1454C9.61255 13.5072 9.00308 12.9003 8.39646 12.3437C8.23867 12.1989 8.08703 12.0885 7.96272 11.9099C8.5312 11.9559 9.08017 12.1102 9.63095 12.2436C10.5303 12.4615 11.4028 12.6855 12.3001 12.9109C12.3202 12.9156 12.3488 12.9324 12.3669 12.9442C12.4605 12.9407 12.5559 12.9512 12.6338 13.011C12.7432 13 12.8278 13.0251 12.9341 13.0443C13.0509 13.0656 13.1522 13.1021 13.1676 13.2445C13.1818 13.3747 13.2789 13.4113 13.4012 13.4113C13.5298 13.4117 13.5766 13.3048 13.6014 13.2111C13.6899 12.878 13.7538 12.5454 13.8349 12.2102C13.9254 11.8365 14.0141 11.4504 14.1018 11.0758C14.3556 9.99512 14.5336 8.90288 14.7024 7.80606C14.8499 6.84695 14.8933 5.90249 14.9693 4.93669C15.0011 4.52872 15.0619 4.10936 15.1028 3.7022C15.08 3.40988 15.2099 3.14905 15.2029 2.83472ZM20.0407 25.4893C20.0338 25.6101 20.1024 25.7153 20.0407 25.823C20.0507 25.8265 20.0643 25.8194 20.0741 25.823C20.0565 25.7131 20.0572 25.5993 20.0407 25.4893Z" fill="#432a26" fill-rule="evenodd" opacity="1" stroke="none"/>
<path d="M21.8862 15.724C21.9279 15.6178 22.0188 15.6347 22.103 15.6398C22.825 15.6866 23.5137 15.8779 24.1924 16.1159C24.5007 16.224 24.8113 16.3267 25.1239 16.4215C25.2688 16.4656 25.4106 16.5065 25.524 16.6115C25.5212 16.6788 25.5304 16.7402 25.6007 16.7732C25.6266 16.7854 25.6479 16.835 25.626 16.8291C25.4627 16.7834 25.4685 17.0482 25.2801 16.9947C25.1468 16.9565 25.2962 17.0372 25.2786 17.0746C25.2454 17.1446 25.1779 17.1733 25.1278 17.18C24.9225 17.2075 24.7553 17.3244 24.5676 17.3913C24.4772 17.4235 24.3803 17.466 24.2884 17.4613C23.9933 17.4463 23.8272 17.6332 23.6614 17.8279L23.662 17.8169C23.6018 17.876 23.5231 17.8641 23.4496 17.8716C23.3084 17.9861 23.1282 17.9751 22.9658 18.0152C22.4251 18.149 21.8832 18.2764 21.3386 18.3929C21.1738 18.4279 21.0892 18.4995 21.0952 18.6686C20.9015 18.8736 20.9739 19.1144 21.0093 19.3469C21.0208 19.422 21.0648 19.5341 21.0007 19.5554C20.8083 19.6183 20.8961 19.7273 20.9259 19.8343C20.955 19.9374 20.9988 20.0401 21.005 20.1447C21.0425 20.773 21.2296 21.3733 21.3472 21.9859C21.5321 22.9468 21.7567 23.9002 21.9629 24.8572C21.9877 24.9725 22.0295 25.0921 22.0179 25.205C22.0062 25.3251 21.8493 25.3152 21.7756 25.3887C21.7694 25.3951 21.7717 25.4097 21.7702 25.4202C21.5227 25.2612 21.3438 25.0272 21.1269 24.8352C20.5427 24.3179 20.0443 23.7266 19.5939 23.093C19.2186 22.565 18.844 22.0361 18.479 21.5012C18.3688 21.3394 18.2398 21.192 18.1147 21.0479C17.881 20.7789 17.669 20.4925 17.4357 20.2234C17.3208 20.0908 17.2075 20.0125 17.0155 20.0763C16.8538 20.1298 16.6784 20.1455 16.5072 20.1655C16.3566 20.1833 16.2858 20.2682 16.2334 20.4024C16.1764 20.5491 16.1547 20.7112 16.0544 20.8406C15.9828 20.878 15.9754 20.9409 15.9867 21.0113L15.9907 21.0051C15.7519 21.212 15.6748 21.5211 15.5253 21.7809C15.3632 22.0629 15.3621 22.1145 15.0206 22.0986C14.9726 22.0963 14.9344 22.1188 14.9155 22.1593C14.8829 22.2289 14.8455 22.2949 14.7837 22.3406C14.6838 22.4149 14.7676 22.5598 14.7259 22.5937C14.6535 22.653 14.5308 22.6633 14.4537 22.7325C14.4175 22.7651 14.3746 22.8412 14.4725 22.8797C14.624 22.9397 14.6559 22.9946 14.5564 23.1026C14.3738 23.3006 14.316 23.5535 14.2105 23.7856C14.1747 23.8644 14.1464 23.9469 14.1039 24.0217C13.7798 24.5898 13.4674 25.166 13.1169 25.7176C13.0189 25.8715 12.9528 26.0894 12.7318 26.1473C12.7329 26.146 12.7337 26.1449 12.7349 26.1437C12.7597 26.3967 12.5897 26.569 12.4776 26.7657C12.4548 26.7047 12.4493 26.6457 12.4528 26.5776C12.4819 26.0331 12.5445 25.4911 12.5307 24.943C12.5225 24.611 12.5838 24.2778 12.5999 23.9441C12.6401 23.1082 12.6716 22.2722 12.5492 21.4382C12.4839 20.9937 12.4957 20.9917 12.0358 20.9996C12.0393 20.9555 12.0696 20.8831 11.9937 20.8945C11.9422 20.902 11.9741 20.9764 11.9729 21.0216C11.9729 21.0216 11.9489 21.0141 11.9493 21.0137C11.7494 20.8328 11.5177 20.7675 11.2525 20.8249C10.7463 20.6864 10.2446 20.5338 9.75369 20.3473C9.00384 20.0625 8.22767 19.8772 7.43457 19.7651C7.16117 19.7265 6.8834 19.6423 6.60529 19.756C6.57891 19.767 6.53486 19.7627 6.51085 19.7473C6.17489 19.5314 5.79565 19.6451 5.43765 19.6116C5.14141 19.5841 4.83692 19.5778 4.54619 19.6848C4.47854 19.71 4.42111 19.6777 4.37743 19.6002C4.7008 19.4271 5.04031 19.2918 5.38219 19.1643C6.6867 18.6781 7.99672 18.2064 9.34808 17.8653C9.59672 17.8024 9.83748 17.6981 10.1003 17.695C10.3198 17.7851 10.4862 17.6627 10.6566 17.5557L10.6495 17.5604C10.7163 17.5352 10.8049 17.5734 10.8517 17.4908L10.8446 17.4955C10.8977 17.4766 10.9512 17.4581 11.0043 17.4393C11.3033 17.2913 11.6251 17.1898 11.9017 16.9951C12.0578 16.885 12.1825 16.7689 12.157 16.547C12.1428 16.4227 12.1011 16.3444 11.9878 16.3C11.6156 16.1536 11.3273 15.8983 11.0716 15.5985C10.7152 15.1807 10.3713 14.7527 10.0247 14.3267C9.50584 13.689 8.92084 13.1087 8.31422 12.5516C8.15646 12.4068 7.98494 12.2746 7.86065 12.0961L7.85552 12.1008C8.42398 12.1468 8.97199 12.2987 9.52275 12.432C10.4217 12.65 11.3183 12.8789 12.2156 13.1044C12.2353 13.1095 12.2522 13.1268 12.2703 13.1382C12.3112 13.1854 12.3458 13.2401 12.3942 13.2774C12.4847 13.3478 12.5244 13.3003 12.5319 13.2035C12.6417 13.1925 12.7444 13.2259 12.8502 13.2452C12.9666 13.2664 13.05 13.2889 13.0657 13.4312C13.0799 13.5615 13.1826 13.5945 13.3049 13.5949C13.4336 13.5949 13.4721 13.506 13.4969 13.4124C13.585 13.0792 13.6684 12.7444 13.7499 12.4092C13.8403 12.0355 13.9265 11.6606 14.0142 11.2864C14.268 10.2054 14.4521 9.1113 14.6209 8.01489C14.7684 7.05576 14.8168 6.08722 14.8923 5.12142C14.9242 4.71345 14.973 4.30706 15.0139 3.89949C15.0886 3.89202 15.2082 3.88297 15.2074 3.95221C15.2063 4.04468 15.2389 4.20793 15.0509 4.18828C15.0713 4.32317 15.2448 4.25826 15.2562 4.38495C15.1814 4.42627 15.0556 4.41523 15.1106 4.5679C15.1984 4.80983 15.2444 5.06555 15.3558 5.29962C15.3644 5.31771 15.3742 5.33505 15.3833 5.35273C15.3833 5.3425 15.3817 5.32362 15.3833 5.32362C15.5375 5.3008 15.5603 5.3185 15.5332 5.43731C15.4478 5.81106 15.541 6.08799 15.8361 6.33545C15.9254 6.4102 15.9458 6.60296 15.8797 6.59706C15.6362 6.57424 15.7511 6.70252 15.8042 6.77368C15.879 6.87442 15.8849 6.99556 15.9352 7.10061C16.008 7.25327 15.8727 7.55343 16.2216 7.52118C16.2326 7.52 16.2523 7.57467 16.2614 7.60497C16.2881 7.69703 16.3211 7.78907 16.296 7.89215C16.2035 7.83116 16.2775 7.65885 16.1229 7.64942C16.1193 7.65925 16.1103 7.67067 16.1126 7.67892C16.3456 8.42912 16.5855 9.17739 16.853 9.9166C16.8758 9.97956 16.9203 10.0212 16.9655 10.0684C17.1379 10.249 17.1237 10.3588 16.8955 10.511C16.7822 10.5866 16.8058 10.6829 16.8849 10.7034C17.0454 10.7451 17.0659 10.8336 17.0599 10.9713C17.0541 11.1157 17.1418 11.2306 17.2614 11.2797C17.4011 11.3376 17.4542 11.4351 17.497 11.5626C17.5242 11.6432 17.5678 11.7204 17.6143 11.7923C17.7311 11.9749 17.7512 11.9761 17.9711 11.8462C18.0277 11.8313 17.9479 12.0366 18.0934 11.9116C18.2071 11.814 18.3527 11.707 18.5238 11.8616C18.5683 11.9017 18.6371 11.6885 18.7339 11.8313C18.8657 11.7089 19.086 11.8506 19.217 11.6212C19.3024 11.4713 19.56 11.4218 19.7379 11.3222C20.4609 10.9166 21.2446 10.6251 21.9444 10.1778C22.7611 9.6554 23.6648 9.28756 24.465 8.73758C24.8815 8.45117 25.305 8.17499 25.7227 7.8902C25.7687 7.85872 25.8084 7.8288 25.9179 7.8351C25.6335 8.13762 25.4891 8.50387 25.2113 8.77849C25.1271 8.78517 25.0826 8.82767 25.0881 8.91501L25.0928 8.90989C25.0213 8.90753 24.9591 8.92168 24.8843 8.86542C24.7069 8.73205 24.6105 8.76865 24.5012 8.96141C24.4592 9.03579 24.4131 9.11602 24.3486 9.16833C24.214 9.27732 24.1986 9.36979 24.3561 9.46182C24.4851 9.53734 24.4701 9.60266 24.3812 9.71557C24.246 9.88748 24.1598 10.0881 23.9279 10.1814C23.7297 10.2612 23.6352 10.4866 23.4704 10.6173C23.2656 10.7797 23.1325 10.9556 23.2345 11.2742C22.9469 11.1362 22.7963 11.2939 22.6617 11.4627C22.4311 11.7522 22.2018 12.0426 21.9534 12.3171C21.6781 12.6216 21.5184 13.008 21.2441 13.3125C21.1411 13.4269 21.0708 13.5595 21.0003 13.6929C20.8878 13.9057 20.9201 13.9628 21.1833 14.0281C21.1466 14.1807 21.0459 14.2924 20.937 14.3947C20.8535 14.473 20.8053 14.5611 20.8031 14.6752C20.6805 14.8499 20.4944 14.9919 20.4873 15.2661C20.6285 15.1913 20.7403 15.1324 20.8524 15.0733C20.9488 15.1689 20.892 15.3507 21.0487 15.4148C21.0896 15.4317 21.1014 15.4904 21.0813 15.5269C20.9602 15.7472 21.11 15.7409 21.2553 15.7405L21.2493 15.7358C21.2812 15.8224 21.3508 15.8117 21.4201 15.8015L21.4117 15.7988C21.5062 15.8747 21.6211 15.9132 21.7349 15.9258C22.3355 15.9935 22.9332 16.0816 23.5272 16.1934C23.5418 16.2256 23.5677 16.2425 23.6011 16.2362C23.6251 16.2315 23.6309 16.2047 23.6144 16.2004C23.5857 16.1934 23.5538 16.1985 23.5236 16.1981C23.4484 16.1166 23.3545 16.082 23.2454 16.0647C22.8344 15.9994 22.4245 15.9274 22.0137 15.8578C21.9933 15.7921 21.9582 15.7405 21.8866 15.7232L21.8862 15.724ZM15.8479 20.8021C15.7287 20.8654 15.6764 20.9645 15.6673 21.1105C15.8144 21.0448 15.8786 20.9539 15.8597 20.8131C15.8963 20.804 15.9246 20.7867 15.877 20.7588C15.8589 20.7482 15.8416 20.7761 15.8479 20.8025L15.8479 20.8021ZM13.6484 17.8811C13.6669 18.0659 13.8124 18.1556 13.9309 18.2686C13.993 18.328 14.1138 18.3433 14.0992 18.4684L14.0921 18.4767L14.1004 18.4668C14.2448 18.4385 14.3349 18.5467 14.4438 18.6053C14.7302 18.7595 15.0166 18.9122 15.3369 18.9865C15.8035 19.2159 16.2877 19.2859 16.7928 19.1584C16.4565 19.1714 16.1197 19.1789 15.7873 19.0939C15.7263 19.0782 15.6547 19.0778 15.6587 18.9861C15.8196 18.8036 16.0194 18.8952 16.1988 18.9247C17.0265 19.0609 17.7586 18.8744 18.3873 18.3111C18.8338 17.911 19.1879 17.4349 19.5124 16.9357C19.5703 16.8468 19.608 16.7429 19.6427 16.6414C19.752 16.3212 19.7221 16.2831 19.4416 16.0879C19.2319 15.942 19.1607 15.9907 19.0793 16.1957C18.9145 16.6096 18.6021 16.8802 18.2421 17.1108C18.0875 17.2099 17.9365 17.3153 17.7767 17.4042C17.5207 17.5471 17.2464 17.6497 16.9541 17.6847C16.1284 17.7839 15.3526 17.599 14.6067 17.2559C14.3714 17.1477 14.1362 17.0396 13.9017 16.929C13.7652 16.8645 13.6846 16.9082 13.6169 17.04C13.5315 17.206 13.5331 17.383 13.5182 17.5592C13.4422 17.715 13.4776 17.8256 13.6492 17.8811L13.6484 17.8811ZM17.3641 15.0454C17.3885 15.0505 17.4416 15.0592 17.4935 15.0733C17.6823 15.1252 17.8082 15.0344 17.9003 14.8857C17.9451 14.8133 17.9735 14.7299 18.0049 14.6496C18.0919 14.4301 18.1076 14.1945 18.1568 13.9663C18.204 13.748 18.1576 13.6484 17.9373 13.58C17.8452 13.5517 17.748 13.5355 17.6521 13.5265C17.3645 13.4989 17.2869 13.5418 17.1709 13.8011C17.0466 14.0792 16.962 14.3687 16.9529 14.6768C16.9431 15.0119 16.9888 15.0576 17.3641 15.0454ZM15.2145 14.6032C15.2145 14.5171 15.2212 14.4305 15.2133 14.3451C15.1921 14.1111 15.1154 14.0269 14.886 13.9722C14.667 13.92 14.5067 13.9971 14.4049 14.2035C14.3813 14.2515 14.3384 14.2924 14.3238 14.3424C14.2267 14.6717 14.1441 14.9903 14.3061 15.3385C14.4147 15.5722 14.6028 15.5151 14.7668 15.5493C14.9352 15.5844 15.0158 15.4573 15.0796 15.3255C15.1897 15.0973 15.2248 14.8542 15.2153 14.6036L15.2145 14.6032ZM23.7085 16.2752C24.0177 16.3672 24.2588 16.4388 24.4997 16.5104C24.2687 16.4046 24.055 16.235 23.7085 16.2752ZM20.892 19.4389C20.9085 19.2926 20.8788 19.1521 20.8025 19.0176C20.8177 19.1608 20.7819 19.2886 20.892 19.4389ZM24.666 16.545C24.7958 16.6167 24.9068 16.6717 25.0453 16.6041C24.9178 16.623 24.8297 16.4676 24.666 16.545ZM13.5618 24.6912C13.5996 24.5992 13.587 24.5236 13.4926 24.4773C13.4642 24.4632 13.4198 24.4737 13.4131 24.5052C13.3939 24.596 13.5012 24.611 13.5276 24.6775C13.5304 24.6841 13.5465 24.6858 13.5618 24.6916L13.5618 24.6912ZM15.6453 21.2628C15.6378 21.2443 15.6319 21.2104 15.6233 21.21C15.591 21.2077 15.5611 21.2246 15.5564 21.2592C15.554 21.2753 15.5674 21.3064 15.5792 21.3092C15.6126 21.317 15.6366 21.2974 15.6457 21.2628L15.6453 21.2628Z" fill="#f5b519" fill-rule="evenodd" opacity="1" stroke="none"/>
<path d="M13.611 17.3645C13.6259 17.1883 13.6244 17.0116 13.7097 16.8452C13.7774 16.7134 13.8581 16.6701 13.9946 16.7343C14.2287 16.8448 14.4643 16.953 14.6995 17.0612C15.4455 17.4042 16.2212 17.5891 17.047 17.49C17.3393 17.455 17.6135 17.3523 17.8696 17.2095C18.0297 17.1202 18.1808 17.0148 18.335 16.916C18.6953 16.6855 19.0073 16.4148 19.1722 16.001C19.2536 15.796 19.3248 15.7472 19.5345 15.8932C19.815 16.0883 19.8449 16.1269 19.7355 16.4467C19.7009 16.5482 19.6631 16.6521 19.6053 16.741C19.2807 17.2402 18.9263 17.7162 18.4802 18.1163C17.8515 18.6797 17.119 18.8661 16.2917 18.73C16.1123 18.7005 15.9124 18.6092 15.7515 18.7914L15.7558 18.7953C15.7838 18.7351 15.7625 18.671 15.7047 18.6757C15.604 18.684 15.4632 18.6301 15.4266 18.7961L15.4293 18.7914C15.1091 18.717 14.8227 18.5644 14.5363 18.4102C14.4273 18.3516 14.3376 18.243 14.1928 18.2717L14.1917 18.2737C14.2066 18.1486 14.0858 18.1332 14.0237 18.0738C13.9053 17.9609 13.7597 17.8708 13.7412 17.6863L13.7365 17.6906C13.8254 17.7107 13.8821 17.7733 13.9265 17.8457C14.026 18.0077 14.1594 18.0313 14.3219 17.9511C14.3636 18.1269 14.5076 18.1415 14.6869 18.2036C14.6106 17.9869 14.4761 17.9558 14.3301 17.9416C14.1441 17.713 13.8706 17.5785 13.6869 17.3468C13.6645 17.3185 13.6307 17.3413 13.6067 17.3633L13.6102 17.3649L13.611 17.3645ZM15.0406 18.337C15.0469 18.3724 15.069 18.3933 15.104 18.3897C15.128 18.3874 15.1362 18.3653 15.1209 18.352C15.0965 18.3307 15.0666 18.3228 15.0359 18.3429C15.0041 18.1486 14.842 18.2257 14.733 18.1922C14.805 18.3071 14.9018 18.3681 15.0406 18.337Z" fill="#432a26" fill-rule="evenodd" opacity="1" stroke="none"/>
<path d="M17.4577 14.8507C17.0824 14.8629 17.0368 14.8172 17.0466 14.482C17.0556 14.174 17.1402 13.8849 17.2645 13.6063C17.3802 13.3471 17.4581 13.3042 17.7457 13.3317C17.8416 13.3408 17.9388 13.3569 18.0309 13.3852C18.2516 13.4533 18.2976 13.5528 18.2504 13.7715C18.2012 13.9997 18.1855 14.2354 18.0985 14.4549C18.0671 14.5352 18.0388 14.6182 17.9939 14.691C17.9015 14.8397 17.776 14.9305 17.5871 14.8786C17.5356 14.8644 17.4821 14.8558 17.4577 14.8507Z" fill="#432a26" fill-rule="evenodd" opacity="1" stroke="none"/>
<path d="M15.3081 14.4081C15.3176 14.6591 15.283 14.9018 15.1724 15.1304C15.1091 15.2622 15.0281 15.3892 14.8597 15.3542C14.6956 15.32 14.5076 15.377 14.399 15.1434C14.2369 14.7952 14.3195 14.4761 14.4167 14.1473C14.4312 14.0973 14.4741 14.0564 14.4977 14.0084C14.5997 13.8023 14.7601 13.7252 14.9789 13.7771C15.2086 13.8317 15.285 13.9156 15.3062 14.15C15.314 14.2354 15.3074 14.3219 15.3074 14.4081L15.3081 14.4081Z" fill="#432a26" fill-rule="evenodd" opacity="1" stroke="none"/>
<path d="M21.5054 15.6044C21.7087 15.5907 21.9048 15.6528 22.1062 15.6634C22.5172 15.7331 22.9272 15.8051 23.3382 15.8704C23.4473 15.8877 23.5414 15.9223 23.6164 16.0037L23.62 15.999C23.026 15.8869 22.4287 15.7988 21.8281 15.7315C21.7143 15.7189 21.5994 15.6803 21.5051 15.6044L21.5054 15.6044Z" fill="#432a26" fill-rule="evenodd" opacity="1" stroke="none"/>
<path d="M15.7515 18.7914C15.748 18.883 15.8196 18.8835 15.8802 18.8992C16.2126 18.9842 16.5493 18.9763 16.8857 18.9637C16.3802 19.0912 15.8963 19.0215 15.4297 18.7918L15.427 18.7965C15.5367 18.8051 15.6465 18.883 15.7558 18.7957L15.7515 18.7918L15.7515 18.7914Z" fill="#432a26" fill-rule="evenodd" opacity="1" stroke="none"/>
<path d="M23.8022 16.0804C24.1487 16.0403 24.3619 16.2099 24.5933 16.3157C24.3525 16.2441 24.1114 16.1725 23.8022 16.0804Z" fill="#432a26" fill-rule="evenodd" opacity="1" stroke="none"/>
<path d="M24.7596 16.3503C24.9229 16.2732 25.0114 16.4282 25.1389 16.4093C25.0005 16.477 24.8899 16.4219 24.7596 16.3503Z" fill="#432a26" fill-rule="evenodd" opacity="1" stroke="none"/>
<path d="M23.6164 16.0041C23.6468 16.0041 23.6785 15.9994 23.7072 16.0065C23.7239 16.0104 23.7184 16.0376 23.6939 16.0423C23.6605 16.0486 23.6346 16.0317 23.62 15.9994L23.6159 16.0041L23.6164 16.0041Z" fill="#432a26" fill-rule="evenodd" opacity="1" stroke="none"/>
<path d="M21.3429 15.5415C21.3854 15.5376 21.428 15.5336 21.4704 15.5293C21.485 15.5553 21.4996 15.5812 21.5137 15.6072C21.4445 15.6174 21.3749 15.628 21.3429 15.5415Z" fill="#432a26" fill-rule="evenodd" opacity="1" stroke="none"/>
</g>
</svg>
