<?xml version="1.0" encoding="UTF-8"?><svg id="Layer_1" xmlns="http://www.w3.org/2000/svg" viewBox="0 0 1139.9 1276.48"><defs><style>.cls-1{fill:#fff;}</style></defs><path class="cls-1" d="M657.53,820.64c-4.61-4.44-7.28-11.39-15.64-11.66,1.07,7.52,1.84,15.05,3.26,22.46,4.36,22.91,6.34,46.12,8.67,69.26,2.24,22.25,4.91,44.51,4.38,66.96-.12,4.94,0,5.26,5,4.33,12.06-2.25,22.76,1.54,32.96,7.23,1.97,1.1,3.8,2.1,5.96,2.38,5.23,.69,10.18,2.11,14.43,5.36,1.91,1.46,4.31,.48,6.26,1.48-.38,1.9,.61,1.68,1.8,1.15,3.83,4.93,10.35,5.54,14.98,9.49,3.37,2.88,5.57,4.85,3.41,9.34-.68,1.4-.14,3.37-.74,4.84-3.58,8.82-5.06,11.73-15.44,11.28-13.17-.57-26.16-2.71-39.08-5.12-11.6-2.16-23.27-3.92-34.73-6.88-8-2.06-15.68-4.89-23.25-8.15-2.87-1.24-3.28-3.22-1.67-5.1,4.36-5.08,3.24-10.53,2.12-16.28-2.16-11.08-2.41-22.38-3.4-33.59-2.18-24.52-3.89-49.09-6.58-73.55-3.92-35.64-8.58-71.19-12.79-106.79-.53-4.52-2.34-8.09-4.95-11.78-9.75-13.77-20.52-26.79-29.68-40.99-1.25-1.93-2.41-4.55-5.99-3.84-4.68,22.3-12.1,43.99-18.08,66.06-4.9,18.09-8.61,36.47-10.89,55.15-3.72,30.49-6.65,61.02-8.43,91.69-1.26,21.65-2.1,43.31-3.14,64.96-.14,3.01,.32,6.17-2.9,8.02-2.66-.55-5.34-1.06-8.07,1.82,3.07,.79,5.39,1.07,7.78,.65,3.64,.32,3.17,2.92,3.03,5.39-.44,7.65-.48,7.32-7.99,8.48-7.81,1.21-15.27,3.65-21.31,9.21-.76,.7-1.85,1.23-2.86,1.45-6.86,1.43-12.38,4.92-16.58,10.5-3.3,.69-6.58,1.62-9.93,2.01-2.05,.24-2.67,1.34-3.1,2.95-1.75,.62-3.49,1.24-5.23,1.85-1.13-4.19-4.46-6.5-8.28-4.41-3.1,1.7-5.61,.5-8.39,.56-.37-5.18-2.22-10.08-2.11-15.43,.37-18.53,13.8-34.34,32.33-36.85,7.58-1.03,15.16-2.58,22.9-1.98,4.02,.31,5-1.64,4.84-5.48-1.29-29.7-.84-59.4,1.6-89.03,1.78-21.57,3.08-43.21,7.6-64.47,.38-1.8,.05-3.75,.05-6.49-14.23,26.62-27.18,52.95-39.73,79.49-10.57,22.35-20.25,45.08-29.37,68.06-1.37,3.45-2.5,6.65-7.45,5.74-3.27-.6-3.32,3.53-5.6,4.92-2.49,1.52-2.21,2.01-7.32,1.74-1.63-.09-2.29,1.03-3.15,2.11-1.62,2.05-.21,4.99-2.5,7.33-1.59-2.17-.04-8.16-5.73-5.46-.2,.1-1.03-.55-1.17-.98-2.57-7.77-7.17-14.89-5.12-23.92,2.97-13.07,5.22-26.31,6.88-39.65,1.63-13.03,4.1-25.97,5.48-39.02,.87-8.21,3.45-16,4.62-24.15,1.12-7.8,1.63-15.68,2.78-23.48,2.71-18.34,4.01-36.88,6.02-55.32,2.08-19.02,4.35-38.01,6.49-57.02,.2-1.8,.03-3.65,.03-5.43-20.8-1.97-39.46-10.32-58.62-16.64-25.09-8.28-50.33-15.31-76.83-17.27-24.08-1.78-48.16-3.09-72.31-2.73-1.38,.02-2.77,.16-4.13,0-2.8-.33-6.93,1.4-7.71-2.65-.64-3.31,.32-7.26,3.84-9.12,8.92-4.71,16.87-11.03,26.2-15.07,11.83-5.13,23.91-9.52,35.93-14.11,11.46-4.38,23.21-8.01,34.57-12.75,16.92-7.05,34.71-11.69,52.47-16.23,12.74-3.26,25.57-6.18,38.24-9.71,7.16-1.99,14.06-4.9,20.92-7.35,.2-2.95-1.73-3.97-3.21-4.86-18.43-11.02-32.61-26.83-47.18-42.12-18.79-19.71-39.25-37.62-59.72-55.47-9.67-8.43-20-16.22-30.08-24.23-2.34-1.86-5.22-3.51-5.41-6.87-.26-4.72,1.67-9.09,2.85-13.57,.31-1.17,1.8-1.45,2.79-1.31,5.61,.81,11.07,.29,16.7-.4,5.59-.68,10.95,2.25,16.34,3.86,13.64,4.07,27.09,8.97,40.94,12.11,15.7,3.56,31.16,7.88,46.71,11.94,9.15,2.39,18.16,5.31,27.22,7.98-.01,0,.58,.28,.58,.28l.49-.48c1.34,1.47,3.06,1.77,4.93,1.64,1.18,2.01,3.07,1.85,4.98,1.64,6.36,2.36,12.67,4.84,19.09,7.02,4.19,1.42,4.26,1.22,3.43-4.39,.61-.18,.89-.56,.85-1.14,3.72-10.02,1.77-20.65,3.41-30.93,3.61-22.72,6.82-45.52,9.81-68.33,2.35-17.95,4.69-35.9,5.93-53.98,1.75-25.45,3.4-50.93,6.26-76.27,2.7-23.97,5.46-48,11.29-71.5,.59-2.39,1.18-4.83,2.15-7.08,1.35-3.15,4.06-4.81,7.35-3.82,5.02,1.5,10.24,1.8,15.33,2.78,5.33,1.03,7.37,3.64,8.49,8.44,2.59,11.12,4.52,22.41,8.46,33.19,6.74,18.44,11.93,37.36,17.75,56.09,8.34,26.84,16.08,53.89,25.05,80.53,6.44,19.13,13.72,37.99,20.58,56.98,1.67,4.64,3.16,9.34,4.82,14.26,23.33-7.43,46.74-13.88,67.36-27.63,10.96-7.31,23.46-11.93,35.46-17.34,11.07-4.99,21.16-11.45,30.64-18.95,1.28-1.01,2.45-2.37,3.91-2.9,8.73-3.15,15.57-9.1,22.47-14.93,6.34-5.36,13.34-9.17,21.11-12.32,9.07-3.68,18.37-7.62,26.17-13.66,9.37-7.25,19.21-7.86,30.1-5.28,10.87,2.58,10.87,2.35,7.97,12.95-1.26,4.59-3.37,8.52-6.53,12.18-14.3,16.58-29.1,32.74-41.68,50.75-8.63,12.36-17.61,24.49-26.53,36.65-4,5.45-8.25,10.71-12.39,16.06-8.84,11.42-15.71,24.15-24,35.95-6.55,9.34-12.41,19.17-19.11,28.41-6.3,8.69-11.53,18.17-19.27,25.85-3.92,3.89-3,5.46,2.64,7.47,8.86,3.15,18.26,3.61,27.35,5.68,13.69,3.12,26.68,8.15,39.98,12.33,19.23,6.04,36.35,16.57,54.16,25.63,7.51,3.82,8.53,6.27,6.63,14.26-.54,2.27-2.14,3.38-4.56,4.08-6.77,1.95-12.8,5.94-19.91,7.14-2.61,.44-5.36,1.36-7.29,3.54-6.22,.09-9.31,5.44-13.91,8.28-1.42,.78-2.85,1.55-4.25,2.32-3.85-.89-7.65-.42-10.89,1.72-4.62,3.05-9.76,4.53-15,5.82-1.38,.34-2.59,.75-3.24,2.1-2.96-1.41-4.68,.82-6.64,2.27-8.91-1.74-15.15,4.83-22.71,7.32-2.48,.63-4.96,1.27-7.42,1.9-2.88-.69-5.03,1.29-7.53,2.07-2.27,.71-4.37,1.71-6.98,1.51-9.37-.71-12.76,3.28-11.15,12.65-2.29,5.49,.12,10.88,.85,16.13,3.52,25.49,8.57,50.72,13.56,75.95,3.61,18.27,6.81,36.62,10.27,54.93,4.31,22.87,9.42,45.54,17.08,67.58,1.07,3.07,1.77,6.27,2.8,10.02-5.39,.27-8.57,4.65-13.43,5.52-1.9,.34-2.68,1.73-2.54,3.63,0,.13,.03,.25,.05,.38-2.91,.09-4.89-1.24-6.73-3.54-2.9-3.64-6.27-6.92-9.4-10.37-4.76-5.25-9.68-9.78-16.31-13.22-5.98-3.1-10.03-9.93-14.93-15.12,.42-.38,.83-.75,1.25-1.13,.75,.14,1.76,.65,2.2,.35,.72-.5,.22-1.44-.31-2.02-.71-.78-1.51-1.48-2.27-2.21-4.19-4.95-7.81-10.59-12.73-14.65-4.83-3.99-6.01-11.36-14.28-14.29,2.29,2.93,2.08,4.69,1.04,6.39Zm35.98,34.96c-.07,.76,.14,1.35,1,1.4,.12,0,.41-.43,.37-.59-.21-.85-.78-1-1.53-.63,.84-1.28,0-1.91-.95-2.5-.41-.61-.94-1.55-1.64-.71-.62,.74,.05,1.38,.99,1.5-.04,1.23,.49,1.81,1.76,1.54Zm-280.96-246.3c-1.84,.23-3.88-.14-5.14,1.77l.18-.12c-4.97,.16-9.6,1.67-14.14,3.54-6.68,.07-12.8,2.73-19.12,4.33-34.36,8.68-67.65,20.67-100.81,33.02-8.69,3.24-17.32,6.68-25.54,11.08,1.11,1.97,2.57,2.79,4.29,2.15,7.39-2.73,15.13-2.57,22.66-1.86,9.1,.85,18.74-2.05,27.28,3.45,.61,.39,1.73,.5,2.4,.22,7.07-2.89,14.14-.75,21.08,.23,20.15,2.85,39.89,7.56,58.95,14.8,12.49,4.74,25.23,8.62,38.1,12.14,1.83,6.6,11.41-.7,12.6,7.03,1.62-.93,2.78-2.89,5.1-2.23l.61,.19c.53-.19,1.06-.37,1.6-.56,11.7-.21,11.4-.16,13.06,11.14,3.12,21.2,2.32,42.44,1.29,63.7-.41,8.47-1.97,16.95-1.76,25.39,.35,13.93-1.24,27.71-1.98,41.55-.09,1.72,.05,3.23,.63,4.76-.7,8.4-3.23,16.63-2.49,26.01,5.57-9.32,11.03-17.77,15.8-26.59,10.82-20.01,22.7-39.39,34.09-59.06,13.32-22.99,25.42-46.63,37.3-70.38,2.5-5,4.9-10.42,4.58-16.39l-.1,.16c2.14-.82,1.76-2.65,1.72-4.34,2.55-3.28,3.1-7.41,4.55-11.14,1.32-3.41,3.13-5.57,6.96-6.02,4.34-.51,8.81-.9,12.92-2.27,4.88-1.62,7.76,.37,10.68,3.74,5.93,6.84,11.32,14.12,17.26,20.96,3.18,3.66,6.46,7.42,9.26,11.52,9.27,13.61,18.8,27.04,28.34,40.46,11.45,16.11,24.13,31.14,38.97,44.29,5.51,4.88,10.07,10.83,16.35,14.87,2.35,3.62,4.27,7.64,7.16,10.75,3.25,3.49,5.55,8.47,11.19,9.12-.48,.91,.34,1.27,.76,1.8,.02-.22,.14-.51,.05-.65-.28-.38-.64-.69-.97-1.03,1.19-1.85,.54-3.73-.04-5.53-5.44-16.92-8.65-34.34-11.77-51.79-4.59-25.59-8.83-51.26-13.91-76.75-1.95-9.79-3.96-19.63-6.61-29.35-2.39-8.79-3.36-18.65-3.03-28.2-.15-4.3,2-6.11,6.19-7.01,13.84-2.96,27.62-6.19,41.36-9.6,4.13-1.02,8.71-.74,12.3-3.65,1.8-.48,3.89,.18,5.4-1.39l-.02,.29c11.51-1.52,22.37-5.41,33.26-9.22,2.85-1,5.72-1.92,8.55-2.96,2.58-.94,5.12-1.99,7.67-3,2.8-1.12,5.52-2.86,8.41-3.23,3.97-.51-1.94-5.21,1.85-4.24,3.02,.77,5.66,1.77,8.55,.24,.37-.19,.45-.91,1-2.11-7.4-2.04-14.28-5.38-21.93-6.39-2.9-2.66-6.5-3.71-10.18-4.83-7.95-2.41-15.84-5.02-23.68-7.77-17.25-6.05-34.76-10.91-53.11-12.1-2.14-.14-4.45-.56-5.51,2.14-3.95-1.52-7.05-5.84-12.11-3.67-.61-.48-1.17-1.05-1.83-1.43-1.43-.81-2.93-1.35-4.16,.33-1.41,1.93,.5,2.69,1.39,3.82,.31,.39,.45,.92,.67,1.38-3.69,0-7.5,.18-4.42-5.43,.51-.93,.22-2.42-.83-2.85-3.99-1.63-2.55-6.26-4.99-8.68-.42-3.37-.83-6.75-1.24-10.12,.06-2.89,1.29-5.13,3.41-7.13,2.77-2.6,5.33-5.44,6.26-9.32,2.55-1.2,4.42-3.24,6.23-5.28,12.15-13.73,24.4-27.4,35.01-42.38,14.72-20.78,28.53-42.18,44.1-62.37,4.97-6.45,10.59-12.52,14.05-20.06l-.12,.13c1.64-.62,2.56-1.89,3.13-3.47,7.05-6.98,10.72-16.29,17.96-23.98-2.77-.16-3.79,.6-4.96,1.4-10.62,7.24-21.38,14.26-31.97,21.54-20.35,13.98-43.31,23.33-64.07,36.61-17.79,11.38-37.7,18.78-56.09,29.09-4.52,2.53-11.07,3.79-13.24,7.6-3.32,5.83-8.92,2.23-12.28,5.34-2.47-3.63-4.22,1.79-5.34,.77-4.35-3.94-8.05-1.22-10.94,1.27-3.7,3.18-1.67-2.04-3.11-1.66,.41-4.36-2.75-7.55-3.76-11.53-4.56-18-11.45-35.23-18.2-52.5-4.45-11.4-9.09-22.75-12.27-34.62-2.44-9.12-4.98-18.39-8.22-27.08-3.93-10.54-6.1-21.47-9.91-31.95-3.89-10.72-6.37-21.81-9.21-32.82-2.21-8.58-6.07-16.69-6.46-25.83-.11-2.5-1-6.37-4.87-8.14,.18,7.99-2.87,15.01-2.29,22.44-1.04,10.35-2.28,20.69-3.09,31.06-1.93,24.55-3.15,49.17-6.9,73.55-4.29,27.88-8.97,55.69-15.42,83.16-2.23,9.52-4.42,19.04-6.72,28.54-2.06,8.52-4.18,17.03-6.43,25.5-.63,2.38-1.61,4.65-4.88,4.64-3.11,0-5.72-.85-6.08-4.16-.39-3.62-2.51-4.19-5.48-4.73-2.7-.49-5.31-1.34-8.09-1.06-1.98-1.52-4.27-1.76-6.65-1.67-.46-.3-.88-.74-1.39-.86-22.81-5.73-45.59-11.55-68.45-17.09-14-3.39-27.93-7.25-42.38-8.42,.18-.64-.02-.92-.57-.84-.01,0-.04,.39,.05,.45,.18,.14,.44,.19,.66,.27,3.16,4.54,7.52,7.9,11.53,11.58,15.42,14.15,30.29,28.9,43.48,45.12,8.81,10.83,17.54,21.71,26.61,32.33,6.5,7.61,13.83,14.11,23.29,17.83,2.88,1.13,3.94,3.12,4.3,6.28,.65,5.64-2.52,8.6-6.49,11.39-7.03,4.94-15.21,7.53-22.81,11.29-1.24,.8-3.29-.71-4.06,1.43l.18-.12Z"/><path class="cls-1" d="M681.77,844.93c.45-.08,.89-.17,1.34-.27,.26,.81,.51,1.61,.76,2.41-.42,.38-.83,.75-1.25,1.13-.8-.96-1.14-2.03-.85-3.27Z"/><path class="cls-1" d="M480.31,611.07c.38-4.48,.34-8.97,2.51-13.2,1.72-3.35,3.77-4.45,7.24-2.82,5.95,2.81,11.94,5.56,17.92,8.31,18.96,8.72,38.68,13.42,59.67,10.9,7.43-.89,14.4-3.5,20.91-7.13,4.07-2.27,7.91-4.95,11.83-7.46,9.16-5.86,17.09-12.74,21.28-23.26,2.07-5.21,3.88-6.45,9.21-2.74,7.13,4.96,7.89,5.94,5.11,14.07-.88,2.58-1.84,5.22-3.31,7.48-8.25,12.69-17.26,24.79-28.6,34.96-15.98,14.32-34.6,19.06-55.63,15.6-4.56-.75-9.64-3.07-13.73,1.56l.11,.1c.71-1.53,.17-3.16-1.3-3.04-2.56,.21-6.14-1.16-7.07,3.06l.07-.12c-8.14-1.89-15.42-5.77-22.7-9.69-2.77-1.49-5.05-4.25-8.73-3.52l-.03,.05c.38-3.18-2.69-3.57-4.27-5.08-3.01-2.87-6.71-5.16-7.18-9.85l-.12,.11c2.26,.51,3.7,2.1,4.83,3.94,2.53,4.12,5.92,4.72,10.05,2.68,1.06,4.47,4.72,4.84,9.28,6.42-1.94-5.51-5.36-6.3-9.07-6.66-4.73-5.81-11.68-9.23-16.35-15.12-.57-.72-1.43-.14-2.04,.42l.09,.04Zm36.34,24.72c.16,.9,.72,1.43,1.61,1.34,.61-.06,.82-.62,.43-.96-.62-.54-1.38-.74-2.16-.23-.81-4.94-4.93-2.98-7.7-3.83,1.83,2.92,4.29,4.47,7.82,3.68Z"/><path class="cls-1" d="M578.09,547.17c-9.54,.31-10.7-.85-10.45-9.37,.23-7.83,2.38-15.18,5.54-22.26,2.94-6.59,4.92-7.68,12.23-6.98,2.44,.23,4.91,.64,7.25,1.36,5.61,1.73,6.78,4.26,5.58,9.82-1.25,5.8-1.65,11.79-3.86,17.37-.8,2.04-1.52,4.15-2.66,6-2.35,3.78-5.54,6.09-10.34,4.77-1.31-.36-2.67-.58-3.29-.71Z"/><path class="cls-1" d="M523.45,535.92c.24,6.38-.64,12.55-3.45,18.36-1.61,3.35-3.67,6.58-7.95,5.69-4.17-.87-8.95,.58-11.71-5.36-4.12-8.85-2.02-16.96,.45-25.32,.37-1.27,1.46-2.31,2.06-3.53q3.89-7.86,12.23-5.88c5.84,1.39,7.78,3.52,8.32,9.48,.2,2.17,.03,4.37,.03,6.56Z"/><path class="cls-1" d="M680.98,566.33c5.17-.35,10.15,1.23,15.27,1.5,10.45,1.77,20.87,3.6,31.32,5.26,2.77,.44,5.16,1.32,7.07,3.39l.09-.12c-15.1-2.85-30.28-5.09-45.55-6.8-2.89-.32-5.81-1.3-8.21-3.23Z"/><path class="cls-1" d="M534.72,647.34c-.09,2.33,1.73,2.34,3.27,2.74,8.45,2.16,17.01,1.96,25.56,1.64-12.85,3.24-25.15,1.47-37.01-4.37l-.07,.12c2.79,.22,5.58,2.2,8.36-.02l-.11-.1Z"/><path class="cls-1" d="M739.36,578.43c8.81-1.02,14.23,3.29,20.11,5.98-6.12-1.82-12.25-3.64-20.11-5.98Z"/><path class="cls-1" d="M483.63,619.25c-4.36-1.41-5.26-4.22-3.33-8.18l-.09-.05c-1.15,3.67,2.95,5.26,3.3,8.34l.12-.11Z"/><path class="cls-1" d="M734.64,576.49c.77,0,1.58-.12,2.31,.06,.42,.1,.28,.79-.34,.91-.85,.16-1.51-.27-1.88-1.09l-.1,.12Z"/><path class="cls-1" d="M676.85,564.73c1.08-.1,2.16-.2,3.24-.31,.37,.66,.74,1.32,1.1,1.98-1.76,.26-3.53,.53-4.34-1.67Z"/><polygon class="cls-1" points="495.11 634.14 494.91 634.39 495.09 634.18 495.11 634.14"/></svg>