<?xml version="1.0" encoding="UTF-8"?><svg id="Layer_1" xmlns="http://www.w3.org/2000/svg" viewBox="0 0 731.62 622.93"><defs><style>.cls-1{fill:#432a26;}</style></defs><path class="cls-1" d="M175.52,566.53c-16.04-13.6-31.8-27.44-45.2-43.83-12.35-15.11-22.21-31.59-28.71-49.94-5.6-15.8-11.66-31.56-15.49-47.82-4.52-19.18-6.95-38.85-5.3-58.75,1.26-15.16,2.26-30.34,8.42-44.57,.5-1.15,.63-2.53,.66-3.81,.61-23.67,10.69-44.46,20.24-65.32,10.73-23.42,25.35-44.65,42.83-63.25,25.83-27.5,55.6-49.87,90.62-65.48,22.7-10.12,45.94-17.35,70.08-21.94,45.89-8.71,90.88-5.86,134.23,12.77,8.01,3.44,15.77,7.49,23.55,11.43,3.03,1.54,5.98,3.12,8.88,.27,7.22-7.1,16.18-9.04,25.84-9.18,1.2-.02,2.4-.7,4.62-1.39-1.03-3.27-2.25-6.18-2.83-9.21-1.22-6.31-2.78-12.68-2.87-19.04-.06-4.25-1.36-6.51-4.71-8.57-8.98-5.53-18.2-8.49-28.42-3.56-6.2,2.99-11.43-.2-14.7-4.22-2.72-3.35-3.66-8.89-3.59-13.43,.03-2.26,3.7-5.24,6.37-6.56,7.23-3.56,14.65-6.94,22.3-9.42,18.46-5.98,37.04-11.6,55.69-16.93,5.82-1.66,12.08-2.93,18.05-2.61,9.66,.52,17.01,5.91,21.45,14.58,4.32,8.44,3.78,17.03-3.5,23.05-10.41,8.62-10.59,19.18-8.89,30.77,.42,2.88,1.56,5.84,1.21,8.62-1.19,9.5,3.7,14.37,11.89,17.32,2.4,.87,4.57,2.42,6.81,3.72,7.05,4.08,10.4,10.18,10.7,18.35,.33,8.72,1.35,17.41,1.78,26.13,.22,4.5,1.93,8,5.07,11.14,12.1,12.16,24.44,23.87,38.18,34.37,17.15,13.11,29.05,30.58,30.53,53.05,1.12,17.1-4.48,32.89-14.48,46.35-7.5,10.09-9.81,19.61-5.89,31.55,5.64,17.2,10.83,34.59,15.39,52.1,8.91,34.17,16.37,68.66,16.6,104.2,.05,8.67-1.6,17.36-2.71,26.02-1.52,11.86-3.46,23.67-4.86,35.54-1.65,14.02-8.53,24.86-19.41,33.4-5.09,4-10.43,7.68-15.49,11.71-2.88,2.29-5.44,5-8.07,7.45-3.16-.15-6.59-.86-9.85-.39-17.58,2.54-35.1,5.48-52.67,8.07-10.18,1.51-20.42,3.58-30.64,3.65-9.2,.06-18.5-1.85-27.6-3.69-7.53-1.52-14.9-3.97-22.17-6.51-3.59-1.25-6.75-3.69-10.17-5.47-1.94-1.01-4.01-2.47-6.04-2.49-6.3-.06-10.17-3.63-13.46-8.26-4.08-5.74-8.05-11.54-12.32-17.67-7.5,3.39-14.5,6.59-21.53,9.7-24.72,10.92-50.27,18.61-77.29,21.51-18.37,1.97-36.62,3.09-55.01,.57-6.94-.95-14.01-.83-21-1.47-2.85-.26-5.66-1.12-8.44-1.9-1.21-.34-2.25-1.65-3.43-1.75-11.4-.91-20.33-8.26-30.77-11.74-10.71-3.57-21.07-8.34-31.3-13.2-7.25-3.44-14.01-7.88-21-11.88-.73-.72-1.45-1.44-2.18-2.16Zm253.52-89.54c-6.23,4.39-11.1,8.11-16.25,11.41-30.97,19.86-64.21,30.02-101.41,24.16-25.84-4.07-49.32-13.48-69.34-30.32-11.07-9.31-21.12-19.87-31.37-30.13-3.01-3.01-6.05-6.54-7.53-10.42-4.61-12.1-9.02-24.34-12.49-36.81-3.62-13.01-4.12-26.54-3.49-40.02,.28-6.03,1.08-12.04,1.73-18.05,.65-6.04,.46-12.36,2.29-18.03,6.94-21.57,15.14-42.45,29.9-60.41,29.68-36.12,66.57-58.6,113.49-64.23,28.43-3.41,54.66,2.04,79.27,16.29,6.71,3.88,13.43,7.76,20.24,11.46,7.3,3.97,9.39,3.7,15.19-2.41,5.79-6.09,11.16-12.57,16.94-18.68,8.92-9.43,9.8-20.37,7.57-32.55-1.5-8.17-1.84-16.63-1.9-24.96-.03-4.58-1.36-7.43-5.49-9.1-8.39-3.4-16.71-7-25.17-10.21-34.11-12.94-69.59-18.83-105.78-15.6-39.12,3.49-75.94,15.78-109.87,36-36.78,21.92-66.77,50.87-90.17,86.77-27.08,41.55-41.28,87.01-40.91,136.59,.19,25.65,4.92,50.64,13.55,75.08,13.54,38.37,36.33,70.12,67.07,95.96,35.3,29.68,77.01,44.93,122.71,48.33,47.43,3.52,92.9-4.45,135.29-27.07,9.72-5.18,9.53-4.95,7.19-15.37-5.67-25.2-11.41-50.41-11.26-77.68Zm-225-104.42c.69,8.02,.96,16.11,2.17,24.05,2.47,16.14,8.03,31.21,16.03,45.52,21.68,38.76,55.17,58.61,98.88,59.71,40.9,1.03,75.63-14.96,104.1-44.19,3.18-3.27,5.88-8.06,6.61-12.5,4.66-28.57,13.9-55.84,23.04-83.11,3.64-10.87,1.36-18.78-7.18-25.75-5.24-4.28-10.21-8.9-15.14-13.54-5.4-5.08-8.36-11.19-8.49-18.88-.23-13.36,.5-26.46,5.19-39.2,3.12-8.49,2.94-8.88-4.91-14.26-6.38-4.37-13.07-8.38-19.96-11.9-26.47-13.55-54.53-17.7-83.78-12.74-28.9,4.9-52.87,19.85-72.42,40.69-27.7,29.52-43.76,64.62-44.14,106.12Zm388.29-184.47c-13.17,3.83-26.09,7.82-39.16,11.27-4.28,1.13-8.93,1.21-13.41,1.2-11.62-.01-23.27,.03-34.87-.67-8.5-.51-12.64,4.29-17.04,10.41-7.15,9.96-14.59,19.83-22.93,28.79-7.98,8.58-13.75,17.99-16.26,29.32-1.68,7.58-2.91,15.27-4.11,22.95-1.1,7.02,.41,13.43,4.76,19.25,3.68,4.92,6.89,10.2,10.46,15.21,6.79,9.53,8.5,19.92,6.5,31.37-4.61,26.46-8.83,52.99-13.3,79.48-4.23,25.06-5.52,50.21-1.01,75.32,3.08,17.18,6.72,34.29,10.8,51.26,2.69,11.17,6.78,13.65,18.5,15.06,8.67,1.04,17.26,2.69,25.87,4.18,1.56,.27,3.54,.64,4.44,1.71,1.53,1.81,3.22,4.23,3.18,6.37-.03,1.52-2.65,4.07-4.34,4.28-5.06,.62-10.25,.56-15.35,.26-3.2-.19-6.35-1.29-9.52-1.99-.13,.77-.25,1.53-.37,2.3,19.43,7.14,39.61,10.86,60.36,10.74,9.98-.06,19.95-1.85,29.92-2.94,16.72-1.83,33.53-3.1,49.72-8.19,5.05-1.59,10.25-2.87,14.02-7.13-2.69-.08-5.21,.28-7.59,1.07-15.4,5.16-31.06,8.58-47.35,10.03-13.1,1.17-25.85,.4-38.65-1.63-4.33-.69-8.8-1.75-11.53-5.94,.83-.72,1.25-1.42,1.74-1.47,27.66-2.76,55.33-5.45,82.99-8.23,2.19-.22,4.4-.84,6.46-1.64,4.49-1.74,8.85-3.84,13.35-5.57,4.23-1.62,8.61-2.85,12.85-4.45,6.73-2.54,10.33-7.05,10.14-14.73-.15-5.78,.8-11.6,1.43-17.38,1.17-10.61,3.76-21.24,3.44-31.79-.72-23.97-4.66-47.67-9.77-71.09-3.72-17.07-8.35-33.94-12.65-50.87-2.23-8.79-4.9-17.47-6.9-26.31-3.36-14.85-3.87-29.36,4.66-43.16,3-4.86,4.61-10.72,6.21-16.3,4.86-16.91,3.4-33.3-5.07-48.87-6.62-12.18-16.49-22.05-23.96-33.77-6.76-10.6-17.62-18.58-26.69-27.74Zm-74.07-12.5c19.16-.69,37.88-2.63,55.37-11.93,7.73-4.11,10.73-9.01,10.33-17.53-.58-12.27-4.19-16.43-16.84-17.56-2.47-.22-5.11-.69-7.27-1.83-8.64-4.54-23.22-3.03-31.38,3.05-1.7,1.27-4.97,1.94-6.85,1.2-8.34-3.29-15.17,.8-22.21,3.84-3.72,1.61-4.99,4.86-4.43,8.82,.94,6.67,1.76,13.36,2.89,19.99,1.89,11.13,2.69,11.75,13.6,11.94,2.26,.04,4.53,0,6.79,0Zm-41.14-118.15c-.47,1.63-.68,1.97-.61,2.22,.08,.26,.46,.64,.66,.61,8.95-1.01,16.61,1.98,23.2,7.79,3.79,3.35,7.3,6.3,12.93,4.06,1.43-.57,3.74,.51,5.45,1.28,9.46,4.3,14.77,11.14,13.54,22.12-.54,4.82-.73,9.7-.67,14.54,.03,2.04,1.12,4.07,1.98,6.92,4.04-.99,7.71-1.28,10.69-2.86,1.8-.95,3.68-4,3.53-5.96-.48-6.37-2.43-12.63-2.82-18.99-.8-12.8-3.26-26.23,10.78-34.69,3.19-1.92,5.79-5.03,4.21-9.85-1.93-5.86-4.62-8.39-11.78-6.93-12.34,2.53-24.54,5.83-36.69,9.23-11.79,3.3-23.43,7.13-34.41,10.5Z"/><path class="cls-1" d="M656.98,116.45c-1.19-2.85-2.51-5.65-3.53-8.55-1.83-5.18-3.2-10.53-5.28-15.6-1.7-4.14-3.8-8.23-6.36-11.89-5.35-7.65-12.15-12.28-22.18-9.17-4.39,1.36-8.91,1.89-13.67-3.12,1.5-4.12,2.58-9.21,5.07-13.48,6.97-11.93,11.89-24.1,11.09-38.41-.35-6.15,.49-12.86,8.8-15.39,4.36-1.33,7.51-1.34,10.37,1.94,3.81,4.37,7.77,8.68,11,13.47,3.81,5.65,8.33,9.61,15.23,10.87,3.12,.57,6.16,1.99,9.01,3.46,6.4,3.28,7.33,5.43,3.77,11.36-10.37,17.27-15.18,36.24-17.84,55.91-.52,3.83-.34,7.74-.78,11.59-.27,2.35-1.11,4.63-1.7,6.94-1,.03-2,.05-3,.08Zm-15.43-75.87c-2.04,3.86-3.9,7.38-6.04,11.43,5.3,3.2,9.86,5.96,15.15,9.15,2.14-5.47,4.06-10.37,6.27-16.01-5.52-1.64-10.04-2.98-15.38-4.57Zm6.89-1.49c.17-.45,.35-.9,.52-1.35-1.47-.56-2.95-1.12-4.42-1.69-.16,.43-.33,.86-.49,1.29,1.46,.58,2.92,1.17,4.39,1.75Z"/><path class="cls-1" d="M34.96,467.28c-3.47-2.73-6.99-4.12-7.97-6.54-3.12-7.69-8.44-11.05-16.46-10.83-.63,.02-1.27-.21-1.89-.38-9.62-2.57-11.27-6.94-4.58-14.24,7.01-7.65,10.88-16.62,13.56-26.38,1.02-3.71,1.94-7.64,3.91-10.86,3.84-6.27,12.1-6,14.48,.87,3.25,9.39,7.93,17.51,14.59,24.77,1.06,1.15,1.13,4.8,.12,6-7.43,8.85-10.59,18.93-10.79,30.36-.04,2.11-2.77,4.17-4.97,7.23Zm-13.03-25.55c3.03,3.26,4.86,2.57,6.6-.95,2.26-4.57,4.58-9.18,7.46-13.36,3.36-4.88,.99-6.66-3.56-8.54-3.52,7.66-6.83,14.87-10.5,22.85Z"/><path class="cls-1" d="M726.33,149.87c-8.39-5.18-13.64-11.54-16.55-18.7-3.24-7.99-7.44-12.42-16.22-11.82-.84,.06-1.74-.67-3.5-1.41,.18-2.24,.25-4.67,.61-7.06,1.27-8.57,2.65-17.12,3.95-25.68,.8-5.27,.46-11.07,7.24-14.31,4.03,5,8.33,9.7,11.87,14.91,4.33,6.38,12.33,2.91,17.91,7.59-6.3,17.51-2.69,36.26-5.3,56.47Zm-21.11-35.97c8.84,1.03,10.54-1.86,7.4-12.61q-6.05,3.54-7.4,12.61Z"/><path class="cls-1" d="M689.11,175.82c.48,6.61-3.5,11.9-9.92,15.31-7.46,3.96-15.01,3-22.27-.98-.28-.15-.5-.41-.76-.6-12.3-8.86-12.72-13.64-2.36-24.71,2.41-2.58,4.53-5.45,6.66-8.29,5.59-7.43,13.13-8.18,19.85-1.74,5.62,5.38,8.75,11.96,8.79,21.02Zm-16.69-12.05l-3.18-.74c-2.03,3.53-4.25,6.97-5.97,10.64-.54,1.15-.22,3.81,.56,4.24,1.46,.8,3.85,1.13,5.26,.45,1.47-.72,2.94-2.77,3.19-4.42,.49-3.32,.15-6.77,.15-10.16Z"/><path class="cls-1" d="M37.73,366.42c-10.23-.4-17.94-7.05-17.75-15.31,.18-8.1,9.74-17.47,17.75-17.39,6.48,.06,14.93,8.2,14.67,14.13-.44,10.21-7.27,18.86-14.67,18.57Z"/><path class="cls-1" d="M406.1,46.61c8.93-.06,19.38,7.44,19.6,14.07,.27,8.05-7.13,17.35-13.83,17.39-7.44,.04-16.02-10-16.18-18.95-.13-7.29,4.18-12.48,10.41-12.51Zm-2.7,15.1c.13,4.44,2.67,7.86,5.73,7.69,3.09-.17,6.85-5.32,6.85-9.52,0-3.98-2.2-5.9-6.05-5.95-4.25-.06-6.67,2.9-6.53,7.78Z"/><path class="cls-1" d="M175.52,566.53c.73,.72,1.45,1.44,2.18,2.16-.22,.83-.44,1.65-.65,2.47-.99-.57-2.43-.94-2.83-1.79-.29-.6,.82-1.87,1.31-2.84Z"/><path class="cls-1" d="M566.02,327.14c3.88,0,7.77-.11,11.65,.02,8.21,.29,14.41,4.02,20.13,10.04,11.34,11.95,15.74,27.34,22.24,41.7,6.81,15.03,13.91,29.96,19.84,45.33,5.46,14.13,10.52,28.56,14.01,43.27,6,25.29-.86,48.81-13.54,70.68-5.28,9.1-10.08,18.87-19.92,24.63-3.82,2.24-7.2,3.9-11.73,2.99-2.8-.56-5.83-.63-8.67-.28-11.53,1.41-22.99,3.8-34.55,4.39-8.57,.44-17.33-.91-25.87-2.31-6.01-.99-12.05-2.82-17.63-5.3-11.6-5.15-20.43-13.79-25.44-25.37-8.45-19.49-12.28-40.32-13.57-61.33-1.33-21.61-1.32-43.42,3.62-64.74,5.84-25.17,15.14-48.59,33.59-67.76,10.93-11.36,23.78-16.16,39.05-16,2.26,.02,4.53,0,6.8,0v.04Zm-67.42,128.79c-.8,15.15-.27,29.97,3.88,44.49,4.07,14.25,7.06,28.66,16.43,41.08,13.3,17.64,31.14,23.46,51.84,22.16,12.54-.79,24.99-3.31,37.41-5.46,2.57-.45,5.5-2.17,7.13-4.21,10.83-13.62,17.99-29.19,22.14-45.99,1.68-6.82,2.42-14.13,2.08-21.14-.72-15.02-5.39-29.2-11.34-42.94-10.66-24.64-21.43-49.23-32.11-73.87-4.76-10.98-11.21-20.12-22.69-25.36-8.96-4.09-18.3-5.95-27.86-6.72-2.69-.22-6.33,1.61-8.28,3.68-15.1,16.06-25.75,34.89-32,55.93-5.65,19.03-7.99,38.63-6.63,58.33Z"/><path class="cls-1" d="M511.96,320.8c2.96-8.61,7.46-13.22,13.86-15.17,11.09-3.37,22.25-7.1,33.66-8.67,14.05-1.94,28.38-2.14,42.45,1.22,10.37,2.48,18.14,8.22,22.83,17.9,.55,1.14,.89,2.42,1.1,3.67,.09,.52-.41,1.14-.58,1.55-12.4-1.66-24.72-3.98-37.13-4.79-12.56-.82-25.22-.37-37.82-.06-12.34,.3-24.31,5.03-38.36,4.35Z"/></svg>