<?xml version="1.0" encoding="UTF-8" standalone="no"?>
<!DOCTYPE svg PUBLIC "-//W3C//DTD SVG 1.1//EN" "http://www.w3.org/Graphics/SVG/1.1/DTD/svg11.dtd">
<!-- Created with Vectornator (http://vectornator.io/) -->
<svg height="100%" stroke-miterlimit="10" style="fill-rule:nonzero;clip-rule:evenodd;stroke-linecap:round;stroke-linejoin:round;" version="1.1" viewBox="0 0 438.48 441.46" width="100%" xml:space="preserve" xmlns="http://www.w3.org/2000/svg" xmlns:vectornator="http://vectornator.io" xmlns:xlink="http://www.w3.org/1999/xlink">
<defs/>
<clipPath id="ArtboardFrame">
<rect height="441.46" width="438.48" x="0" y="0"/>
</clipPath>
<g clip-path="url(#ArtboardFrame)" id="Untitled" vectornator:layerName="Untitled">
<g opacity="1">
<path d="M20.6028 223.97C20.6028 114.916 111.427 23.5087 219.639 23.5087C327.851 23.5087 412.471 113.863 412.471 222.918C412.471 282.191 388.523 333.069 343.116 369.949C304.979 400.924 249.715 422.923 200.318 422.923C92.1066 422.923 20.6028 333.025 20.6028 223.97Z" fill="#89c03c" fill-rule="evenodd" stroke="none"/>
<path d="M222.125 21.2188C210.056 21.0229 197.97 21.952 186.062 24C171.968 26.4243 158.111 30.4639 144.875 35.875C125.236 43.9039 106.978 55.1221 90.7812 68.8125C56.4915 97.7952 31.9124 137.911 22.4062 181.844C20.2618 191.754 18.8562 201.846 18.25 211.969C18.0791 214.822 17.9545 217.674 17.9062 220.531C17.8965 221.106 17.9024 220.511 17.875 223.938C17.8628 225.436 19.0951 226.675 20.5938 226.688C22.0924 226.7 23.3003 225.499 23.3125 224C23.3266 222.299 23.0679 222.952 23.3438 222.281C23.5564 221.764 23.3341 221.184 23.3438 220.625C23.3725 218.956 23.4266 217.262 23.5 215.594C23.7186 210.628 24.1213 205.685 24.7188 200.75C26.6694 184.637 30.6801 168.781 36.5625 153.656C61.4178 89.7476 119.201 40.9336 186.906 28.8125C208.454 24.9549 230.675 24.8455 252.25 28.5625C269.882 31.6002 287.044 37.2216 303.062 45.1875C317.88 52.5563 331.698 61.9143 344.094 72.875C365.979 92.2264 383.345 116.57 394.781 143.438C406.654 171.33 412.075 201.758 410.844 232.031C410.177 248.423 407.578 264.729 402.812 280.438C396.37 301.676 385.967 321.608 372.219 339.031C353.222 363.106 328.344 381.939 301.156 395.875C273.853 409.87 243.407 419.503 212.719 421.75C185.45 423.747 157.592 419.63 132.312 409.125C122.186 404.917 112.497 399.693 103.406 393.562C61.3964 365.233 34.9755 319.344 25.1562 270.219C22.9326 259.094 21.5648 247.797 20.9688 236.469C21.1206 239.592 21.2602 242.728 21.5312 245.844C22.8936 261.505 25.7987 277.041 30.3438 292.094C36.3107 311.856 45.1297 330.814 56.7812 347.875C73.6931 372.638 96.6088 393.188 123.625 406.344C135.632 412.191 148.363 416.577 161.406 419.438C174.026 422.205 186.97 423.599 199.906 423.625C204.218 423.634 208.517 423.482 212.812 423.188C233.95 421.737 254.839 416.759 274.688 409.438C305.116 398.213 333.992 381.364 357.375 358.75C372.425 344.195 385.13 327.225 394.469 308.469C417.517 262.177 419.658 206.152 403.562 157.312C396.529 135.969 385.98 115.798 372.375 97.9062C359.604 81.1121 344.166 66.3538 326.75 54.4375C312.723 44.84 297.415 37.1006 281.344 31.5625C262.296 24.9987 242.24 21.5451 222.125 21.2188ZM20.625 227.375C20.6439 229.068 20.6639 230.746 20.7188 232.438C20.7485 233.354 20.8352 234.271 20.875 235.188C20.7505 232.583 20.666 229.982 20.625 227.375Z" fill="#89c03c" stroke="none"/>
</g>
<path d="M436.86 189.57C432.94 157.87 423.04 128.82 406.6 101.56C397.23 86 386.28 71.63 372.95 59.81C358.62 47.09 342.43 36.3 326.31 25.83C318.42 20.7 309 17.72 299.98 14.62C294.08 12.59 287.14 13.2 281.54 10.69C260.87 1.44 239.03 0.2 217.02 0C199.86-0.16 183.2 7.46 165.72 3.47C164.32 3.14 162.42 4.29 160.94 5.1C146.64 12.89 132.4 20.73 118.13 28.55C110.09 32.96 101.27 36.37 94.16 41.94C85.28 48.9 77.3 57.2 69.8 65.67C47.17 91.24 25.39 116.96 11.56 149.3C1.72 172.28-1.05 195.32 0.34 218.92C2.15 249.56 10.29 279.29 18.66 309.45C18.2 309.49 17.76 309.54 17.33 309.61C18.38 311.96 19.53 314.45 20.81 317.08C21.87 317.39 22.99 318.48 24.22 320.14C29.11 326.75 32.24 333.75 34.19 341.09C38.84 348.43 44.25 356.15 50.52 363.94C51.34 364.3 52.12 364.82 52.7 365.42C55.27 368.17 57.83 370.99 59.95 374.07C60.25 374.5 60.46 375.06 60.59 375.65C60.59 375.65 60.6 375.65 60.6 375.66C63.65 378.98 66.86 382.28 70.25 385.57C70.53 385.84 70.83 386.12 71.13 386.41C72.36 387.53 73.64 388.62 74.78 389.8C74.78 389.8 74.79 389.83 74.81 389.84C95 408.3 120.87 425.27 153.7 436.55C198.31 442.98 241.97 444.81 285.03 431.04C285.06 431.05 285.07 431.04 285.09 431.03C295.28 426.91 305.14 422.02 314.6 416.52C320.71 411.05 327.74 406.49 335.55 402.55C336.54 402.06 337.48 401.49 338.4 400.88C338.46 400.84 338.52 400.81 338.56 400.76C361.69 383.6 381.49 362.98 396.41 341.46C398.5 336.05 401.3 330.97 405.26 326.4C405.66 325.92 406.14 325.5 406.68 325.16C410.1 319.14 413.12 313.09 415.71 307.08C415.99 306.3 416.35 305.48 416.76 304.58C419.39 298.86 422.21 293.16 424.77 287.39C427.47 281.34 429.91 275.2 431.57 268.87C438.4 242.93 440.18 216.55 436.86 189.55L436.86 189.57ZM358.73 77.8C369.49 87.14 379.8 97.03 387.33 109.21C393.34 118.94 398.33 129.31 403.68 139.44C404.29 140.62 404.32 142.09 404.32 142.09C397.01 144.84 390.98 146.99 385.04 149.38C372.55 154.43 350.36 152.06 341.75 137.23C339.34 133.08 334.04 130.7 330.62 127.01C329.2 125.49 328 122.03 328.78 120.46C335.85 106.14 343.34 92.04 350.81 77.91C353.23 73.34 356.32 75.71 358.73 77.79L358.73 77.8ZM34.8 145.62C43.53 131.59 51.06 116.35 62.06 104.32C80.68 83.94 100.27 63.97 121.99 47.08C135.22 36.8 149.83 25.75 168.88 25.11C178.88 24.78 188.77 21.33 197.14 19.61C201.4 21.81 204.78 23.48 208.08 25.29C214.46 28.77 220.45 32.33 221.93 40.64C222.62 44.45 225.96 47.71 227.28 51.5C229.25 57.21 230.88 63.1 231.93 69.03C233.1 75.61 227.84 82.24 219.21 85.05C214.82 86.5 210.03 86.78 205.45 87.68C192.19 90.28 177.77 88.56 166.78 99.28C158.34 107.5 152.96 117.27 150.36 128.51C149.52 132.17 150.21 136.36 150.96 140.15C152.48 147.82 150.6 151.42 142.85 152.25C114.4 155.33 101.01 174.02 93.98 199.16C89.6 214.79 85.82 230.57 81.7 246.26C81.09 248.53 79.98 250.68 78.07 255.48C70.64 246.27 64.44 238.61 58.3 230.91C57.85 230.36 57.94 229.28 57.43 228.88C44.03 218.11 46.72 203.1 47.21 188.89C47.69 175.19 45.51 162.74 35.11 152.67C33.84 151.43 33.75 147.32 34.83 145.62L34.8 145.62ZM413.7 251.17C411.44 264.31 410.1 277.74 406.21 290.4C402.77 301.64 396.9 312.25 391.16 322.6C385.77 332.34 379.28 341.49 372.97 350.69C371.21 353.26 368.34 355.1 365.98 357.27C365.32 356.67 364.65 356.09 363.99 355.51C365.08 353.69 365.81 351.48 367.32 350.13C378.47 340.18 381.26 315.62 360.67 305.28C349.91 299.87 338.66 295.39 327.39 291.07C322.73 289.29 317.48 289.04 312.67 288.13C314.85 280.73 317.11 274.28 318.62 267.64C320.05 261.35 318.1 256.22 312.54 252.17C306.62 247.87 301.59 242.35 295.64 238.12C288.81 233.26 274.32 236.25 268.28 241.87C264.8 245.1 264.32 252.32 256.3 250.57C247.08 248.57 246.02 240.84 244.08 234.49C241.64 226.57 241.42 217.99 240.05 209.73C238.59 200.97 234.66 194.2 225.61 190.99C218.93 188.61 212.34 185.79 206.14 182.4C201.94 180.11 199.15 181.35 197.49 184.69C194.79 190.14 191.23 195.93 190.97 201.7C190.33 217.18 188.71 232.87 194.03 248.09C194.79 250.27 193.48 253.44 192.52 255.91C190.11 262.14 187.01 268.12 184.82 274.41C181.32 284.47 187.12 301.38 195.36 307.97C204.13 314.99 207.66 325.26 205.57 335.44C202.78 349.08 196.84 362.04 192.93 375.5C190.55 383.72 189.31 392.28 187.86 400.74C187.59 402.32 188.76 404.15 189.4 406.36C197.99 402.25 200.67 394.81 203.54 387.92C209.16 374.46 215.11 361.02 219.11 347.06C223.03 333.42 221.9 320.04 211.83 308.12C206.41 301.69 202.46 293.71 199.28 285.87C197.82 282.25 198.22 276.05 200.48 273.09C210.36 260.13 208.12 246.5 205.86 231.99C204.26 221.71 205.65 210.95 206.01 200.4C206.14 196.13 208.49 194.6 213.03 195.65C219.77 197.19 224.04 202.63 224.85 210.15C225.79 218.97 227 227.83 229.05 236.44C232.67 251.64 250.11 265.42 266.07 263.64C269.97 263.19 274.18 259.2 276.9 255.76C282.38 248.81 287.32 246.18 292.86 248.96C301.39 253.23 305.98 262.74 303.07 270.57C301.34 275.2 298.92 279.6 297.35 284.27C295.42 290.05 297.05 294.81 303.33 296.57C308.69 298.08 314.42 298.41 319.71 300.13C328.57 303.04 337.21 306.62 345.92 309.98C347.29 310.52 348.45 311.62 349.82 312.09C355.29 313.96 361.03 315.27 360.71 323.04C360.38 331.2 361.11 339.54 351.43 343.66C350.1 344.23 348.96 348.13 349.56 349.85C351.59 355.62 354.43 361.12 357.35 367.59C340.87 381.59 324.88 396.52 302.66 402.68C292.62 405.47 283.44 411.26 273.53 414.67C262.49 418.47 251.19 422.8 239.73 423.86C221.65 425.53 203.21 426.1 185.14 424.55C160.38 422.43 136.59 416.06 116.77 399.38C112.3 395.63 106.09 393.97 101.6 390.23C83.88 375.48 62.91 363.87 52.02 342.25C42.37 323.06 30.52 304.79 25.49 283.57C16.37 245.1 15.01 206.62 26.27 168.26C26.46 167.62 27.12 167.11 28.42 165.47C29.76 168.65 31.53 171.07 31.72 173.63C32.41 182.72 33.59 191.94 32.65 200.9C31.47 212.15 34.47 220.91 42.39 228.79C46.26 232.63 48.37 238.2 52.15 242.15C59.79 250.1 67.42 258.27 76.21 264.82C81.72 268.93 92.38 262.79 94.28 255.82C98.88 238.92 103.04 221.87 108.16 205.12C110.73 196.72 114.51 188.58 118.68 180.82C123.13 172.5 130.83 168.82 140.26 167.24C147.91 165.95 155.56 163.28 162.56 159.89C168.37 157.07 166.7 150.65 165.43 145.78C160.78 127.73 172.24 106.75 190.22 102.55C200.02 100.26 210.27 99.96 220.18 98.01C248.96 92.3 251.35 74.2 241.22 50.92C237.13 41.52 231.95 32.6 226.68 22.29C230.24 21.89 233.03 21.21 235.78 21.35C244.33 21.77 252.97 21.89 261.38 23.29C269.84 24.71 278 27.8 286.41 29.67C304.93 33.79 319.81 45.17 335.8 54.25C340.79 57.09 342.14 61.74 338.94 67.67C330.39 83.57 322.43 99.75 314.19 115.82C309.78 124.43 310.92 126.65 318.33 132.32C325.13 137.52 330.55 144.47 337.14 149.97C341.79 153.86 346.99 158.31 352.59 159.52C363.74 161.93 375.3 162.85 386.74 163.17C391.01 163.27 395.57 160.36 399.65 158.16C406.18 154.65 410.66 157.49 412.4 163.18C414.97 171.61 416.58 180.43 417.63 189.2C420.14 210.06 417.23 230.68 413.71 251.22L413.7 251.17Z" fill="#432a26" fill-rule="evenodd" opacity="1" stroke="none"/>
</g>
</svg>
