<?xml version="1.0" encoding="UTF-8"?><svg id="Layer_1" xmlns="http://www.w3.org/2000/svg" viewBox="0 0 438.48 441.46"><defs><style>.cls-1{fill:#432a26;}</style></defs><path class="cls-1" d="M436.86,189.57c-3.92-31.7-13.82-60.75-30.26-88.01-9.37-15.56-20.32-29.93-33.65-41.75-14.33-12.72-30.52-23.51-46.64-33.98-7.89-5.13-17.31-8.11-26.33-11.21-5.9-2.03-12.84-1.42-18.44-3.93C260.87,1.44,239.03,.2,217.02,0c-17.16-.16-33.82,7.46-51.3,3.47-1.4-.33-3.3,.82-4.78,1.63-14.3,7.79-28.54,15.63-42.81,23.45-8.04,4.41-16.86,7.82-23.97,13.39-8.88,6.96-16.86,15.26-24.36,23.73-22.63,25.57-44.41,51.29-58.24,83.63C1.72,172.28-1.05,195.32,.34,218.92c1.81,30.64,9.95,60.37,18.32,90.53-.46,.04-.9,.09-1.33,.16,1.05,2.35,2.2,4.84,3.48,7.47,1.06,.31,2.18,1.4,3.41,3.06,4.89,6.61,8.02,13.61,9.97,20.95,4.65,7.34,10.06,15.06,16.33,22.85,.82,.36,1.6,.88,2.18,1.48,2.57,2.75,5.13,5.57,7.25,8.65,.3,.43,.51,.99,.64,1.58,0,0,.01,0,.01,.01,3.05,3.32,6.26,6.62,9.65,9.91,.28,.27,.58,.55,.88,.84,1.23,1.12,2.51,2.21,3.65,3.39,0,0,.01,.03,.03,.04,20.19,18.46,46.06,35.43,78.89,46.71,44.61,6.43,88.27,8.26,131.33-5.51,.03,.01,.04,0,.06-.01,10.19-4.12,20.05-9.01,29.51-14.51,6.11-5.47,13.14-10.03,20.95-13.97,.99-.49,1.93-1.06,2.85-1.67,.06-.04,.12-.07,.16-.12,23.13-17.16,42.93-37.78,57.85-59.3,2.09-5.41,4.89-10.49,8.85-15.06,.4-.48,.88-.9,1.42-1.24,3.42-6.02,6.44-12.07,9.03-18.08,.28-.78,.64-1.6,1.05-2.5,2.63-5.72,5.45-11.42,8.01-17.19,2.7-6.05,5.14-12.19,6.8-18.52,6.83-25.94,8.61-52.32,5.29-79.32Zm-78.13-111.77c10.76,9.34,21.07,19.23,28.6,31.41,6.01,9.73,11,20.1,16.35,30.23,.61,1.18,.64,2.65,.64,2.65-7.31,2.75-13.34,4.9-19.28,7.29-12.49,5.05-34.68,2.68-43.29-12.15-2.41-4.15-7.71-6.53-11.13-10.22-1.42-1.52-2.62-4.98-1.84-6.55,7.07-14.32,14.56-28.42,22.03-42.55,2.42-4.57,5.51-2.2,7.92-.12ZM34.8,145.62c8.73-14.03,16.26-29.27,27.26-41.3,18.62-20.38,38.21-40.35,59.93-57.24,13.23-10.28,27.84-21.33,46.89-21.97,10-.33,19.89-3.78,28.26-5.5,4.26,2.2,7.64,3.87,10.94,5.68,6.38,3.48,12.37,7.04,13.85,15.35,.69,3.81,4.03,7.07,5.35,10.86,1.97,5.71,3.6,11.6,4.65,17.53,1.17,6.58-4.09,13.21-12.72,16.02-4.39,1.45-9.18,1.73-13.76,2.63-13.26,2.6-27.68,.88-38.67,11.6-8.44,8.22-13.82,17.99-16.42,29.23-.84,3.66-.15,7.85,.6,11.64,1.52,7.67-.36,11.27-8.11,12.1-28.45,3.08-41.84,21.77-48.87,46.91-4.38,15.63-8.16,31.41-12.28,47.1-.61,2.27-1.72,4.42-3.63,9.22-7.43-9.21-13.63-16.87-19.77-24.57-.45-.55-.36-1.63-.87-2.03-13.4-10.77-10.71-25.78-10.22-39.99,.48-13.7-1.7-26.15-12.1-36.22-1.27-1.24-1.36-5.35-.28-7.05Zm378.9,105.55c-2.26,13.14-3.6,26.57-7.49,39.23-3.44,11.24-9.31,21.85-15.05,32.2-5.39,9.74-11.88,18.89-18.19,28.09-1.76,2.57-4.63,4.41-6.99,6.58-.66-.6-1.33-1.18-1.99-1.76,1.09-1.82,1.82-4.03,3.33-5.38,11.15-9.95,13.94-34.51-6.65-44.85-10.76-5.41-22.01-9.89-33.28-14.21-4.66-1.78-9.91-2.03-14.72-2.94,2.18-7.4,4.44-13.85,5.95-20.49,1.43-6.29-.52-11.42-6.08-15.47-5.92-4.3-10.95-9.82-16.9-14.05-6.83-4.86-21.32-1.87-27.36,3.75-3.48,3.23-3.96,10.45-11.98,8.7-9.22-2-10.28-9.73-12.22-16.08-2.44-7.92-2.66-16.5-4.03-24.76-1.46-8.76-5.39-15.53-14.44-18.74-6.68-2.38-13.27-5.2-19.47-8.59-4.2-2.29-6.99-1.05-8.65,2.29-2.7,5.45-6.26,11.24-6.52,17.01-.64,15.48-2.26,31.17,3.06,46.39,.76,2.18-.55,5.35-1.51,7.82-2.41,6.23-5.51,12.21-7.7,18.5-3.5,10.06,2.3,26.97,10.54,33.56,8.77,7.02,12.3,17.29,10.21,27.47-2.79,13.64-8.73,26.6-12.64,40.06-2.38,8.22-3.62,16.78-5.07,25.24-.27,1.58,.9,3.41,1.54,5.62,8.59-4.11,11.27-11.55,14.14-18.44,5.62-13.46,11.57-26.9,15.57-40.86,3.92-13.64,2.79-27.02-7.28-38.94-5.42-6.43-9.37-14.41-12.55-22.25-1.46-3.62-1.06-9.82,1.2-12.78,9.88-12.96,7.64-26.59,5.38-41.1-1.6-10.28-.21-21.04,.15-31.59,.13-4.27,2.48-5.8,7.02-4.75,6.74,1.54,11.01,6.98,11.82,14.5,.94,8.82,2.15,17.68,4.2,26.29,3.62,15.2,21.06,28.98,37.02,27.2,3.9-.45,8.11-4.44,10.83-7.88,5.48-6.95,10.42-9.58,15.96-6.8,8.53,4.27,13.12,13.78,10.21,21.61-1.73,4.63-4.15,9.03-5.72,13.7-1.93,5.78-.3,10.54,5.98,12.3,5.36,1.51,11.09,1.84,16.38,3.56,8.86,2.91,17.5,6.49,26.21,9.85,1.37,.54,2.53,1.64,3.9,2.11,5.47,1.87,11.21,3.18,10.89,10.95-.33,8.16,.4,16.5-9.28,20.62-1.33,.57-2.47,4.47-1.87,6.19,2.03,5.77,4.87,11.27,7.79,17.74-16.48,14-32.47,28.93-54.69,35.09-10.04,2.79-19.22,8.58-29.13,11.99-11.04,3.8-22.34,8.13-33.8,9.19-18.08,1.67-36.52,2.24-54.59,.69-24.76-2.12-48.55-8.49-68.37-25.17-4.47-3.75-10.68-5.41-15.17-9.15-17.72-14.75-38.69-26.36-49.58-47.98-9.65-19.19-21.5-37.46-26.53-58.68-9.12-38.47-10.48-76.95,.78-115.31,.19-.64,.85-1.15,2.15-2.79,1.34,3.18,3.11,5.6,3.3,8.16,.69,9.09,1.87,18.31,.93,27.27-1.18,11.25,1.82,20.01,9.74,27.89,3.87,3.84,5.98,9.41,9.76,13.36,7.64,7.95,15.27,16.12,24.06,22.67,5.51,4.11,16.17-2.03,18.07-9,4.6-16.9,8.76-33.95,13.88-50.7,2.57-8.4,6.35-16.54,10.52-24.3,4.45-8.32,12.15-12,21.58-13.58,7.65-1.29,15.3-3.96,22.3-7.35,5.81-2.82,4.14-9.24,2.87-14.11-4.65-18.05,6.81-39.03,24.79-43.23,9.8-2.29,20.05-2.59,29.96-4.54,28.78-5.71,31.17-23.81,21.04-47.09-4.09-9.4-9.27-18.32-14.54-28.63,3.56-.4,6.35-1.08,9.1-.94,8.55,.42,17.19,.54,25.6,1.94,8.46,1.42,16.62,4.51,25.03,6.38,18.52,4.12,33.4,15.5,49.39,24.58,4.99,2.84,6.34,7.49,3.14,13.42-8.55,15.9-16.51,32.08-24.75,48.15-4.41,8.61-3.27,10.83,4.14,16.5,6.8,5.2,12.22,12.15,18.81,17.65,4.65,3.89,9.85,8.34,15.45,9.55,11.15,2.41,22.71,3.33,34.15,3.65,4.27,.1,8.83-2.81,12.91-5.01,6.53-3.51,11.01-.67,12.75,5.02,2.57,8.43,4.18,17.25,5.23,26.02,2.51,20.86-.4,41.48-3.92,62.02Z"/></svg>