<?xml version="1.0" encoding="UTF-8" standalone="no"?>
<!DOCTYPE svg PUBLIC "-//W3C//DTD SVG 1.1//EN" "http://www.w3.org/Graphics/SVG/1.1/DTD/svg11.dtd">
<!-- Created with Vectornator (http://vectornator.io/) -->
<svg height="100%" stroke-miterlimit="10" style="fill-rule:nonzero;clip-rule:evenodd;stroke-linecap:round;stroke-linejoin:round;" version="1.1" viewBox="0 0 540.32 436.19" width="100%" xml:space="preserve" xmlns="http://www.w3.org/2000/svg" xmlns:vectornator="http://vectornator.io" xmlns:xlink="http://www.w3.org/1999/xlink">
<defs/>
<clipPath id="ArtboardFrame">
<rect height="436.19" width="540.32" x="0" y="0"/>
</clipPath>
<g clip-path="url(#ArtboardFrame)" id="Untitled" vectornator:layerName="Untitled">
<path d="M71.7248 317.797C69.3653 311.998 61.5251 308.142 56.6978 303.958C55.1457 302.613 52.8209 301.935 51.8913 300.104C48.6031 293.626 43.5898 291.831 39.2581 283.407C37.4169 279.826 36.8384 272.558 35.6526 268.879C33.9037 263.453 33.8595 257.611 32.3292 252.051C30.5029 245.414 28.8098 237.897 31.2528 231.144C32.7416 227.029 36.6535 219.962 39.2793 216.598C43.2365 211.527 45.1382 206.719 48.394 201.201C53.199 193.056 58.1265 187.782 63.4598 179.949C64.1198 178.979 64.8085 178.027 65.5539 177.121C66.3171 176.194 66.7789 174.447 67.9795 174.458C68.7829 174.465 68.8107 182.633 68.9596 183.359C70.4379 190.568 73.1626 198.267 76.1423 204.975C78.8236 211.012 82.3601 217.223 85.8775 222.822C89.0756 227.912 93.0239 232.878 95.1027 238.595C96.3521 242.031 96.4283 246.201 97.0347 249.799C98.6034 259.107 99.9004 269.844 98.3297 279.228C98.2788 279.532 97.1656 284.59 96.802 284.935C96.0922 285.608 94.708 285.061 93.9698 285.703C93.2814 286.302 93.2545 287.385 92.9827 288.256C91.9893 291.438 91.7493 294.689 91.046 297.911C89.8006 303.616 86.6723 309.335 83.0383 313.896C81.1403 316.278 78.5551 318.031 76.1823 319.899C75.4577 320.469 74.821 321.975 73.987 321.581C72.6578 320.955 72.2786 319.159 71.7248 317.797Z" fill="#f29fc4" fill-rule="evenodd" opacity="1" stroke="none"/>
<path d="M232.07 346.778C230.274 342.137 233.266 339.479 237.121 336.393C244.457 330.522 256.039 319.731 264.606 315.917C277.584 310.139 290.062 307.637 303.803 308.041C318.178 308.464 331.483 310.493 344.41 314.074C354.142 316.77 363.431 323.678 372.727 327.617C381.137 331.181 396.702 337.544 405.63 339.769C416.243 342.413 421.261 341.35 432.194 341.35C433.144 341.35 442.7 341.235 451.297 340.652C460.047 340.059 467.759 342.184 468.404 342.784C470.136 344.397 443.868 353.463 442.665 354.938C441.287 356.627 439.687 356.772 437.847 357.657C434.016 359.499 430.435 361.946 426.788 364.114C420.778 367.686 414.593 371.469 408.317 374.542C405.133 376.101 402.519 378.551 399.369 380.169C396.687 381.546 394.648 383.732 391.864 384.891C386.5 387.123 383.898 389.692 378.728 392.522C373.099 395.604 366.628 398.093 357.018 401.273C352.905 402.634 344.993 401.994 344.147 402.575C343.301 403.155 318.869 404.119 308.055 403.043C300.326 402.273 293.742 398.035 286.66 395.397C278.982 392.537 269.909 391.47 263.33 386.195C257.675 381.662 253.762 375.586 248.774 370.441C246.604 368.202 244.255 366.019 242.489 363.413C238.683 357.794 234.566 353.229 232.07 346.778Z" fill="#f29fc4" fill-rule="evenodd" opacity="1" stroke="none"/>
<g opacity="1">
<path d="M277.458 175.248C278.434 155.387 296.514 127.778 310.633 115.796C316.351 110.943 321.944 110.912 327.744 106.157C332.546 102.22 337.84 98.8588 342.271 94.466C349.098 87.6981 356.185 86.4232 364.579 81.3556C374.982 75.0751 388.505 72.9033 400.1 69.4887C409.577 66.6976 418.175 64.4192 428.055 63.6574C430.937 63.4352 434.733 63.0261 437.588 63.7585C438.587 64.0147 439.44 64.7119 440.444 64.9454C445.184 66.0479 447.451 63.5319 450.668 60.6443C451.436 59.9547 452.19 59.2482 452.988 58.5924C453.728 57.9836 466.755 45.018 467.649 45.3622C468.667 45.7538 456.283 58.8348 456.426 59.9156C456.912 63.5724 452.617 71.0219 452.172 74.7159C451.488 80.4023 445.267 87.1747 445.06 93.185C444.696 103.776 441.626 103.567 440.47 111.135C437.464 130.805 429.703 158.176 417.805 173.525C411.815 181.253 406.407 189.558 400.718 197.52C398.735 200.295 396.757 203.763 394.078 205.984C392.261 207.489 390.076 208.498 388.205 209.935C384.28 212.948 378.483 213.2 373.957 215.218C371.01 216.532 367.217 216.546 364.111 217.634C357.326 220.013 345.103 222.208 332.786 220.986C323.94 220.109 314.56 215.858 309.376 216.151" fill="#f29fc4" fill-rule="evenodd" stroke="none"/>
<path d="M468.875 38.25C467.986 38.031 467.037 38.2321 466.125 38.3125C464.95 38.4161 463.747 39.2469 462.719 39.8125C461.853 40.2884 460.925 41.1487 460.188 41.75C459.358 42.4267 458.524 43.1377 457.719 43.8438C454.23 46.9033 450.31 50.6359 447.031 53.3438C445.949 54.2371 444.894 55.1691 443.812 56.0625C443.473 56.3429 443.076 56.5888 442.688 56.8438C442.501 56.7413 442.316 56.6233 442.125 56.5312C441.78 56.365 441.452 56.1957 441.094 56.0625C440.545 55.8586 439.973 55.6767 439.406 55.5312C434.666 54.3155 429.532 54.7175 424.688 55.0625C415.407 55.7234 406.388 57.8421 397.375 60.0312C392.352 61.2511 387.304 62.2819 382.281 63.5C376.649 64.8658 371.025 66.6104 365.688 68.875C362.198 70.3555 358.978 72.3436 355.531 73.9062C350.272 76.2911 344.813 78.2216 339.969 81.4375C337.156 83.305 334.813 85.6169 332.219 87.75C329.643 89.8677 326.884 91.7609 324.188 93.7188C322.939 94.6257 321.723 95.6018 320.469 96.5C319.816 96.9679 319.167 97.4464 318.469 97.8438C318.249 97.9687 318.01 98.0491 317.781 98.1562C315.856 99.0569 313.881 99.827 311.938 100.688C309.023 101.978 306.218 103.523 303.688 105.469C297.244 110.423 291.643 116.887 286.719 123.312C280.769 131.075 275.572 139.476 271.5 148.375C267.728 156.618 264.962 165.301 264.281 174.375C263.806 181.647 269.322 187.931 276.594 188.406C283.866 188.882 290.15 183.366 290.625 176.094C290.932 170.134 292.827 164.41 295.188 158.969C298.327 151.731 302.413 144.887 307.031 138.5C310.525 133.669 314.401 128.809 319 124.969C320.877 123.402 323.273 122.528 325.469 121.531C328.239 120.274 330.847 118.85 333.312 117.062C335.556 115.436 337.662 113.616 339.844 111.906C342.532 109.799 345.267 107.722 347.781 105.406C350.165 103.211 352.237 100.813 354.969 99.0312C358.301 96.8574 361.964 95.272 365.438 93.3438C367.713 92.0803 369.852 90.6073 372.125 89.3438C373.609 88.5186 375.154 87.7846 376.719 87.125C379.797 85.8272 383.02 84.8807 386.219 83.9375C389.203 83.0574 392.167 82.1784 395.156 81.3125C400.716 79.7017 406.176 77.7292 411.719 76.0625C417.798 74.2344 423.944 72.9466 430.25 72.2188C431.809 72.0387 433.429 71.7769 435 71.875C435.255 71.8909 435.625 72.2232 435.75 72C436.624 72.3705 437.457 72.7662 438.406 73C440.754 73.5781 443.297 73.6105 445.656 73.0938C445.835 73.0545 445.981 72.9519 446.156 72.9062C445.922 74.1784 445.748 75.4593 445.25 76.6875C443.908 79.998 442.073 83.0754 440.844 86.4375C440.586 87.1436 440.285 87.8354 440.094 88.5625C439.21 91.9201 439.657 95.4113 438.906 98.7812C438.318 101.424 436.912 103.8 436.188 106.406C435.268 109.716 435.073 113.21 434.531 116.594C433.047 125.861 430.895 135.051 428.062 144C425.978 150.585 423.519 157.091 420.312 163.219C419.164 165.413 417.907 167.565 416.531 169.625C415.181 171.647 413.705 173.57 412.312 175.562C410.419 178.271 408.569 181.022 406.75 183.781C403.887 188.126 401.01 192.462 398.156 196.812C396.289 199.66 394.61 202.785 391.844 204.875C390.599 205.816 389.236 206.591 387.969 207.5C386.885 208.277 385.923 209.1 384.719 209.688C382.289 210.872 379.627 211.442 377.062 212.25C376.206 212.52 375.334 212.789 374.5 213.125C373.641 213.471 372.819 213.929 371.938 214.219C369.788 214.925 367.52 215.149 365.344 215.75C363.518 216.254 361.788 216.969 359.969 217.5C357.264 218.29 354.496 218.903 351.719 219.375C344.1 220.67 336.083 221.135 328.438 219.812C324.179 219.076 320.029 217.833 315.812 216.906C313.688 216.439 311.558 216.052 309.375 216.156C312.545 216.166 315.623 217.186 318.625 218.094C321.808 219.056 325.004 220.047 328.25 220.781C332.541 221.752 336.987 222.193 341.438 222.219C345.888 222.245 350.325 221.871 354.656 221.219C357.017 220.863 359.374 220.405 361.688 219.812C363.154 219.437 364.585 218.921 366.062 218.594C368.024 218.159 370.039 218.004 372 217.562C373.668 217.187 375.207 216.477 376.844 216C380.669 214.885 384.755 214.415 388.25 212.375C389.293 211.766 390.242 211.023 391.281 210.406C393.322 209.195 395.325 208.064 397.031 206.375C399.259 204.169 400.919 201.472 402.781 198.969C405.716 195.022 408.618 191.057 411.531 187.094C413.694 184.151 415.898 181.214 418.156 178.344C420.271 175.656 422.425 173.046 424.312 170.188C428.295 164.157 431.501 157.61 434.25 150.938C438.038 141.741 441 132.169 443.312 122.5C443.951 119.83 444.535 117.163 445.062 114.469C445.319 113.157 445.503 111.825 445.844 110.531C446.317 108.735 447.188 107.113 447.969 105.438C448.556 104.179 449.054 102.866 449.438 101.531C449.948 99.7563 450.263 97.9276 450.469 96.0938C450.602 94.9046 450.673 93.8003 450.906 92.625C450.967 92.3192 450.994 91.983 451.094 91.6875C451.214 91.3323 451.409 91.0292 451.562 90.6875C451.963 89.798 452.406 88.9181 452.875 88.0625C454.045 85.9268 455.3 83.8273 456.344 81.625C456.942 80.3617 457.467 79.0671 457.844 77.7188C458.147 76.6319 458.283 75.4739 458.656 74.4062C459.226 72.7791 459.988 71.2129 460.656 69.625C461.528 67.5532 462.367 65.4291 462.812 63.2188C462.879 62.8901 462.861 62.548 462.906 62.2188C462.949 62.1686 462.989 62.1125 463.031 62.0625C463.591 61.4053 464.145 60.7696 464.719 60.125C465.939 58.7558 467.207 57.4225 468.438 56.0625C469.934 54.4082 471.465 52.75 472.812 50.9688C473.563 49.977 474.331 48.8501 474.625 47.625C474.771 47.0191 474.902 46.4034 474.938 45.7812C474.968 45.2363 475.031 44.6562 474.812 44.1562C474.152 42.6466 473.168 41.3018 472.344 39.875C472.341 39.8694 472.318 39.8462 472.312 39.8438C471.163 39.3126 470.105 38.553 468.875 38.25ZM442.469 56.875C442.511 56.884 442.552 56.8952 442.594 56.9062C442.581 56.914 442.575 56.9299 442.562 56.9375C442.525 56.9101 442.468 56.8749 442.469 56.875ZM442.375 57.0625C442.275 57.1147 442.198 57.2107 442.094 57.25C442.022 57.2773 442.217 57.1357 442.281 57.0938C442.311 57.0744 442.341 57.0747 442.375 57.0625ZM434.969 71.7188C435.169 71.7981 435.367 71.8552 435.562 71.9375C435.427 71.8734 435.229 71.8381 435.062 71.7812C435.026 71.7689 434.933 71.7047 434.969 71.7188Z" fill="#f29fc4" stroke="none"/>
</g>
<path d="M540.13 289.87C540.11 292.64 540.68 294.81 539.96 296.39C538.27 300.11 536.47 303.97 533.83 307.02C502.45 343.41 471.89 380.61 430.36 406.52C406.36 421.49 381.16 433.61 352.69 435.69C318.62 438.18 286.34 431.64 258.86 409.77C253.21 405.27 249.19 398.68 244.6 392.91C242.05 389.7 240.07 386.04 237.49 382.85C231.98 376.05 229.25 374.95 221.67 379.12C212.38 384.23 203.66 390.41 194.81 396.29C189.36 399.91 184.51 404.68 178.69 407.44C169.54 411.77 164.48 408.7 161.86 398.74C157.86 383.5 158.82 381.05 172.35 372.66C176.19 370.28 179.88 367.36 184.07 365.9C198.27 360.94 206.13 349.5 213.98 337.92C219.24 330.16 225.14 322.73 229.56 314.51C242.24 290.95 263.01 280.65 288.26 277.16C315.59 273.39 342.36 274.54 367.85 286.48C370.44 287.69 373.12 288.85 375.41 290.52C392.74 303.13 412 310.23 433.39 312.21C451.43 313.88 469.36 315.03 487.44 312.65C494.57 311.71 500.6 309.45 506.18 304.93C515.85 297.09 526.99 292.35 540.12 289.87L540.13 289.87ZM242.49 370.88C252.46 383.52 264.33 389.4 276.24 394.74C298.38 404.66 321.2 409.16 345.68 403.53C367.55 398.5 388 390.66 406.59 378.17C421.54 368.13 436.28 357.79 451.16 347.64C453.12 346.3 455.47 344.25 457.43 344.47C460.89 344.85 464.62 346.34 463.84 341.05C463.63 339.65 458.7 338.09 455.93 338.08C446.51 338.05 437.08 338.96 427.66 338.94C421.97 338.93 416.09 338.58 410.64 337.11C390.44 331.65 370.01 326.19 352.63 314.05C329.98 298.23 273.92 300.02 251.09 320.36C241.17 329.21 230.22 336.98 223.35 350.02C226.45 350.24 228.68 348.17 231.3 347.36C242.22 343.99 253.14 340.45 264.29 338.02C277.08 335.24 290.09 333.36 303.06 331.51C308.29 330.76 313.73 330.67 319 331.12C326.04 331.73 328.34 334.68 328.44 341.47C328.54 348.05 326.26 350.82 318.91 351.69C310.36 352.7 301.72 352.96 293.17 353.92C275.46 355.91 259.99 364.31 242.48 370.88L242.49 370.88Z" fill="#432a26" fill-rule="evenodd" opacity="1" stroke="none"/>
<path d="M234.3 216.46C244.35 209.55 254.42 202.67 264.45 195.73C268.48 192.94 270.95 189.45 269.09 184.24C263.21 167.84 267.64 151.75 270.91 135.74C272.88 126.11 276.65 116.81 278.04 107.13C278.89 101.18 277.58 94.74 280.89 89.32C291.83 71.41 306.1 57.41 326.43 50.18C348.98 42.15 371.83 37.09 395.97 35.88C418.39 34.75 440.65 30.19 462.97 27.08C469.67 26.15 474.22 22.63 476.1 15.84C476.97 12.69 477.69 9.04001 479.76 6.80001C482.58 3.75001 487-0.449992 490.05 0.0500078C493.16 0.550008 496 5.86001 497.89 9.61001C499.05 11.92 498.37 15.25 498.24 18.11C497.04 43.74 491.27 68.56 482.71 92.54C473.08 119.53 462.62 146.27 451.08 172.49C445.87 184.33 437.64 194.98 429.87 205.5C426.34 210.28 421 214.09 415.8 217.2C402.78 224.98 389.55 232.51 374.46 235.74C371.27 236.42 367.78 237.82 364.84 237.14C346.54 232.91 327.07 234.71 309.6 226.48C304.46 224.06 299.29 221.48 294.71 218.17C289.04 214.07 283.31 212.16 276.32 213.48C266.25 215.37 256.13 216.96 245.99 218.42C242.18 218.97 238.26 218.79 234.39 218.95C234.36 218.13 234.33 217.31 234.3 216.49L234.3 216.46ZM399.55 169.88C400.09 170.9 400.62 171.92 401.16 172.94C394.46 176.5 387.83 180.22 381.04 183.6C362.71 192.74 342.88 196.4 322.78 197.3C311.82 197.79 304.84 203.26 295.94 210.49C300.94 213.28 304.57 215.68 308.49 217.42C323.45 224.05 339.07 225.7 355.39 224.67C376.87 223.31 393.95 213.61 407.63 198.08C424.69 178.72 435.67 155.52 443.77 131.35C452.37 105.7 458.93 79.36 466.32 53.3C466.95 51.06 467.15 48.7 467.56 46.31C465.97 46.2 464.97 45.8 464.46 46.14C442.7 60.8 418.11 65.97 392.51 69.06C369.53 71.83 347.05 78.66 327.81 91.44C304.57 106.88 287.18 128.44 276.38 154.47C272.33 164.22 270.67 174.83 274.39 185.99C276.45 185.64 278.39 185.88 279.44 185.03C287.02 178.88 294.84 172.94 301.78 166.12C313.17 154.93 323.91 143.08 335.07 131.64C336.21 130.47 338.35 130.27 340.02 129.62L341.81 131.56L323.44 156.03C324.04 156.72 324.64 157.41 325.23 158.1C337.11 152.12 349.05 146.25 360.86 140.12C372.78 133.94 384.57 127.51 396.41 121.19C396.89 121.79 397.37 122.39 397.86 122.98C390.55 131.43 383.24 139.87 375.94 148.32C376.37 149.09 376.81 149.85 377.24 150.62C389.16 147.94 401.07 145.26 414.51 142.23C412.08 149.53 407.42 150.5 403.35 151.87C389.74 156.45 376.09 160.96 362.37 165.18C351.62 168.49 342.53 174.04 334.13 183.85C358.32 185.19 378.93 177.48 399.55 169.88Z" fill="#432a26" fill-rule="evenodd" opacity="1" stroke="none"/>
<path d="M9.66 275.17C6.2 264.86 7.51 253.51 1.2 243.53C-1.27 239.63 0.6 232.2 2.01 226.77C8.1 203.3 19.49 182.57 36.78 165.49C44.04 158.32 52.05 151.71 60.47 145.95C69.68 139.65 75.64 142.65 78.15 153.61C79.15 158 80.17 162.39 81.07 166.8C83.88 180.58 92.4 189.81 103.81 197.5C133.58 217.56 142.5 255.14 127.86 287.91C114.06 318.79 91.66 343.37 71.96 369.98C63.19 381.83 54.15 393.48 45.15 405.16C43.79 406.92 41.98 408.34 38.19 408.79C39.62 405.27 41 401.72 42.49 398.22C49.89 380.89 57.38 363.59 64.68 346.22C65.94 343.22 66.64 339.94 67.23 336.72C69.23 325.81 67.98 320.87 57.71 316.86C41.46 310.5 29.75 298.54 16.94 287.78C14.52 283.58 12.1 279.38 9.67 275.18L9.66 275.17ZM97.51 239.51C93.89 254.08 86.9 268.35 93.04 284.75C100.44 273.36 101.89 256.49 97.45 239.52C96.89 229.64 92.76 221.37 86.15 214.18C82.54 210.25 78.84 206.37 75.58 202.16C73.9 199.99 72.33 197.23 72.04 194.6C71.07 185.94 70.7 177.22 70.1 168.52C63.89 173.15 59.6 178.41 56.11 184.17C53.38 188.69 52.19 194.16 49.36 198.6C40.34 212.74 35.37 228.24 32.96 244.65C28.3 276.35 46.68 307.99 77.51 319.59C80.72 287.84 62.31 262.11 55.55 234.64C60.17 229.02 64.01 224.33 68.57 218.78C74.84 228.58 72.85 240.55 82.56 247.8C85.93 242.31 89.35 236.06 97.5 239.52L97.51 239.51Z" fill="#432a26" fill-rule="evenodd" opacity="1" stroke="none"/>
<path d="M9.66 275.17C12.08 279.37 14.5 283.57 16.93 287.77C16.23 288.63 15.11 290.34 14.9 290.23C9.2 287.35 7.28 281.65 9.67 275.17L9.66 275.17Z" fill="#432a26" fill-rule="evenodd" opacity="1" stroke="none"/>
</g>
</svg>
