<?xml version="1.0" encoding="UTF-8"?><svg id="Layer_1" xmlns="http://www.w3.org/2000/svg" viewBox="0 0 540.32 436.19"><defs><style>.cls-1{fill:#432a26;}</style></defs><path class="cls-1" d="M540.13,289.87c-.02,2.77,.55,4.94-.17,6.52-1.69,3.72-3.49,7.58-6.13,10.63-31.38,36.39-61.94,73.59-103.47,99.5-24,14.97-49.2,27.09-77.67,29.17-34.07,2.49-66.35-4.05-93.83-25.92-5.65-4.5-9.67-11.09-14.26-16.86-2.55-3.21-4.53-6.87-7.11-10.06-5.51-6.8-8.24-7.9-15.82-3.73-9.29,5.11-18.01,11.29-26.86,17.17-5.45,3.62-10.3,8.39-16.12,11.15-9.15,4.33-14.21,1.26-16.83-8.7-4-15.24-3.04-17.69,10.49-26.08,3.84-2.38,7.53-5.3,11.72-6.76,14.2-4.96,22.06-16.4,29.91-27.98,5.26-7.76,11.16-15.19,15.58-23.41,12.68-23.56,33.45-33.86,58.7-37.35,27.33-3.77,54.1-2.62,79.59,9.32,2.59,1.21,5.27,2.37,7.56,4.04,17.33,12.61,36.59,19.71,57.98,21.69,18.04,1.67,35.97,2.82,54.05,.44,7.13-.94,13.16-3.2,18.74-7.72,9.67-7.84,20.81-12.58,33.94-15.06Zm-297.64,81.01c9.97,12.64,21.84,18.52,33.75,23.86,22.14,9.92,44.96,14.42,69.44,8.79,21.87-5.03,42.32-12.87,60.91-25.36,14.95-10.04,29.69-20.38,44.57-30.53,1.96-1.34,4.31-3.39,6.27-3.17,3.46,.38,7.19,1.87,6.41-3.42-.21-1.4-5.14-2.96-7.91-2.97-9.42-.03-18.85,.88-28.27,.86-5.69-.01-11.57-.36-17.02-1.83-20.2-5.46-40.63-10.92-58.01-23.06-22.65-15.82-78.71-14.03-101.54,6.31-9.92,8.85-20.87,16.62-27.74,29.66,3.1,.22,5.33-1.85,7.95-2.66,10.92-3.37,21.84-6.91,32.99-9.34,12.79-2.78,25.8-4.66,38.77-6.51,5.23-.75,10.67-.84,15.94-.39,7.04,.61,9.34,3.56,9.44,10.35,.1,6.58-2.18,9.35-9.53,10.22-8.55,1.01-17.19,1.27-25.74,2.23-17.71,1.99-33.18,10.39-50.69,16.96Z"/><path class="cls-1" d="M234.3,216.46c10.05-6.91,20.12-13.79,30.15-20.73,4.03-2.79,6.5-6.28,4.64-11.49-5.88-16.4-1.45-32.49,1.82-48.5,1.97-9.63,5.74-18.93,7.13-28.61,.85-5.95-.46-12.39,2.85-17.81,10.94-17.91,25.21-31.91,45.54-39.14,22.55-8.03,45.4-13.09,69.54-14.3,22.42-1.13,44.68-5.69,67-8.8,6.7-.93,11.25-4.45,13.13-11.24,.87-3.15,1.59-6.8,3.66-9.04,2.82-3.05,7.24-7.25,10.29-6.75,3.11,.5,5.95,5.81,7.84,9.56,1.16,2.31,.48,5.64,.35,8.5-1.2,25.63-6.97,50.45-15.53,74.43-9.63,26.99-20.09,53.73-31.63,79.95-5.21,11.84-13.44,22.49-21.21,33.01-3.53,4.78-8.87,8.59-14.07,11.7-13.02,7.78-26.25,15.31-41.34,18.54-3.19,.68-6.68,2.08-9.62,1.4-18.3-4.23-37.77-2.43-55.24-10.66-5.14-2.42-10.31-5-14.89-8.31-5.67-4.1-11.4-6.01-18.39-4.69-10.07,1.89-20.19,3.48-30.33,4.94-3.81,.55-7.73,.37-11.6,.53-.03-.82-.06-1.64-.09-2.46Zm165.25-46.58c.54,1.02,1.07,2.04,1.61,3.06-6.7,3.56-13.33,7.28-20.12,10.66-18.33,9.14-38.16,12.8-58.26,13.7-10.96,.49-17.94,5.96-26.84,13.19,5,2.79,8.63,5.19,12.55,6.93,14.96,6.63,30.58,8.28,46.9,7.25,21.48-1.36,38.56-11.06,52.24-26.59,17.06-19.36,28.04-42.56,36.14-66.73,8.6-25.65,15.16-51.99,22.55-78.05,.63-2.24,.83-4.6,1.24-6.99-1.59-.11-2.59-.51-3.1-.17-21.76,14.66-46.35,19.83-71.95,22.92-22.98,2.77-45.46,9.6-64.7,22.38-23.24,15.44-40.63,37-51.43,63.03-4.05,9.75-5.71,20.36-1.99,31.52,2.06-.35,4-.11,5.05-.96,7.58-6.15,15.4-12.09,22.34-18.91,11.39-11.19,22.13-23.04,33.29-34.48,1.14-1.17,3.28-1.37,4.95-2.02l1.79,1.94-18.37,24.47c.6,.69,1.2,1.38,1.79,2.07,11.88-5.98,23.82-11.85,35.63-17.98,11.92-6.18,23.71-12.61,35.55-18.93,.48,.6,.96,1.2,1.45,1.79-7.31,8.45-14.62,16.89-21.92,25.34,.43,.77,.87,1.53,1.3,2.3,11.92-2.68,23.83-5.36,37.27-8.39-2.43,7.3-7.09,8.27-11.16,9.64-13.61,4.58-27.26,9.09-40.98,13.31-10.75,3.31-19.84,8.86-28.24,18.67,24.19,1.34,44.8-6.37,65.42-13.97Z"/><path class="cls-1" d="M9.66,275.17c-3.46-10.31-2.15-21.66-8.46-31.64-2.47-3.9-.6-11.33,.81-16.76,6.09-23.47,17.48-44.2,34.77-61.28,7.26-7.17,15.27-13.78,23.69-19.54,9.21-6.3,15.17-3.3,17.68,7.66,1,4.39,2.02,8.78,2.92,13.19,2.81,13.78,11.33,23.01,22.74,30.7,29.77,20.06,38.69,57.64,24.05,90.41-13.8,30.88-36.2,55.46-55.9,82.07-8.77,11.85-17.81,23.5-26.81,35.18-1.36,1.76-3.17,3.18-6.96,3.63,1.43-3.52,2.81-7.07,4.3-10.57,7.4-17.33,14.89-34.63,22.19-52,1.26-3,1.96-6.28,2.55-9.5,2-10.91,.75-15.85-9.52-19.86-16.25-6.36-27.96-18.32-40.77-29.08-2.42-4.2-4.84-8.4-7.27-12.6Zm87.85-35.66c-3.62,14.57-10.61,28.84-4.47,45.24,7.4-11.39,8.85-28.26,4.41-45.23-.56-9.88-4.69-18.15-11.3-25.34-3.61-3.93-7.31-7.81-10.57-12.02-1.68-2.17-3.25-4.93-3.54-7.56-.97-8.66-1.34-17.38-1.94-26.08-6.21,4.63-10.5,9.89-13.99,15.65-2.73,4.52-3.92,9.99-6.75,14.43-9.02,14.14-13.99,29.64-16.4,46.05-4.66,31.7,13.72,63.34,44.55,74.94,3.21-31.75-15.2-57.48-21.96-84.95,4.62-5.62,8.46-10.31,13.02-15.86,6.27,9.8,4.28,21.77,13.99,29.02,3.37-5.49,6.79-11.74,14.94-8.28Z"/><path class="cls-1" d="M9.66,275.17c2.42,4.2,4.84,8.4,7.27,12.6-.7,.86-1.82,2.57-2.03,2.46-5.7-2.88-7.62-8.58-5.23-15.06Z"/></svg>