<?xml version="1.0" encoding="UTF-8" standalone="no"?>
<!DOCTYPE svg PUBLIC "-//W3C//DTD SVG 1.1//EN" "http://www.w3.org/Graphics/SVG/1.1/DTD/svg11.dtd">
<!-- Created with Vectornator (http://vectornator.io/) -->
<svg height="100%" stroke-miterlimit="10" style="fill-rule:nonzero;clip-rule:evenodd;stroke-linecap:round;stroke-linejoin:round;" version="1.1" viewBox="0 0 750 1000" width="100%" xml:space="preserve" xmlns="http://www.w3.org/2000/svg" xmlns:vectornator="http://vectornator.io" xmlns:xlink="http://www.w3.org/1999/xlink">
<defs/>
<g id="Untitled" vectornator:layerName="Untitled">
<path d="M492.495 700.795C487.885 696.355 485.215 689.405 476.855 689.135C477.925 696.655 478.695 704.185 480.115 711.595C484.475 734.505 486.455 757.715 488.785 780.855C491.025 803.105 493.695 825.365 493.165 847.815C493.045 852.755 493.165 853.075 498.165 852.145C510.225 849.895 520.925 853.685 531.125 859.375C533.095 860.475 534.925 861.475 537.085 861.755C542.315 862.445 547.265 863.865 551.515 867.115C553.425 868.575 555.825 867.595 557.775 868.595C557.395 870.495 558.385 870.275 559.575 869.745C563.405 874.675 569.925 875.285 574.555 879.235C577.925 882.115 580.125 884.085 577.965 888.575C577.285 889.975 577.825 891.945 577.225 893.415C573.645 902.235 572.165 905.145 561.785 904.695C548.615 904.125 535.625 901.985 522.705 899.575C511.105 897.415 499.435 895.655 487.975 892.695C479.975 890.635 472.295 887.805 464.725 884.545C461.855 883.305 461.445 881.325 463.055 879.445C467.415 874.365 466.295 868.915 465.175 863.165C463.015 852.085 462.765 840.785 461.775 829.575C459.595 805.055 457.885 780.485 455.195 756.025C451.275 720.385 446.615 684.835 442.405 649.235C441.875 644.715 440.065 641.145 437.455 637.455C427.705 623.685 416.935 610.665 407.775 596.465C406.525 594.535 405.365 591.915 401.785 592.625C397.105 614.925 389.685 636.615 383.705 658.685C378.805 676.775 375.095 695.155 372.815 713.835C369.095 744.325 366.165 774.855 364.385 805.525C363.125 827.175 362.285 848.835 361.245 870.485C361.105 873.495 361.565 876.655 358.345 878.505C355.685 877.955 353.005 877.445 350.275 880.325C353.345 881.115 355.665 881.395 358.055 880.975C361.695 881.295 361.225 883.895 361.085 886.365C360.645 894.015 360.605 893.685 353.095 894.845C345.285 896.055 337.825 898.495 331.785 904.055C331.025 904.755 329.935 905.285 328.925 905.505C322.065 906.935 316.545 910.425 312.345 916.005C309.045 916.695 305.765 917.625 302.415 918.015C300.365 918.255 299.745 919.355 299.315 920.965C297.565 921.585 295.825 922.205 294.085 922.815C292.955 918.625 289.625 916.315 285.805 918.405C282.705 920.105 280.195 918.905 277.415 918.965C277.045 913.785 275.195 908.885 275.305 903.535C275.675 885.005 289.105 869.195 307.635 866.685C315.215 865.655 322.795 864.105 330.535 864.705C334.555 865.015 335.535 863.065 335.375 859.225C334.085 829.525 334.535 799.825 336.975 770.195C338.755 748.625 340.055 726.985 344.575 705.725C344.955 703.925 344.625 701.975 344.625 699.235C330.395 725.855 317.445 752.185 304.895 778.725C294.325 801.075 284.645 823.805 275.525 846.785C274.155 850.235 273.025 853.435 268.075 852.525C264.805 851.925 264.755 856.055 262.475 857.445C259.985 858.965 260.265 859.455 255.155 859.185C253.525 859.095 252.865 860.215 252.005 861.295C250.385 863.345 251.795 866.285 249.505 868.625C247.915 866.455 249.465 860.465 243.775 863.165C243.575 863.265 242.745 862.615 242.605 862.185C240.035 854.415 235.435 847.295 237.485 838.265C240.455 825.195 242.705 811.955 244.365 798.615C245.995 785.585 248.465 772.645 249.845 759.595C250.715 751.385 253.295 743.595 254.465 735.445C255.585 727.645 256.095 719.765 257.245 711.965C259.955 693.625 261.255 675.085 263.265 656.645C265.345 637.625 267.615 618.635 269.755 599.625C269.955 597.825 269.785 595.975 269.785 594.195C248.985 592.225 230.325 583.875 211.165 577.555C186.075 569.275 160.835 562.245 134.335 560.285C110.255 558.505 86.1749 557.195 62.0249 557.555C60.6449 557.575 59.2549 557.715 57.8949 557.555C55.0949 557.225 50.9649 558.955 50.1849 554.905C49.5449 551.595 50.5049 547.645 54.0249 545.785C62.9449 541.075 70.8949 534.755 80.2249 530.715C92.0549 525.585 104.135 521.195 116.155 516.605C127.615 512.225 139.365 508.595 150.725 503.855C167.645 496.805 185.435 492.165 203.195 487.625C215.935 484.365 228.765 481.445 241.435 477.915C248.595 475.925 255.495 473.015 262.355 470.565C262.555 467.615 260.625 466.595 259.145 465.705C240.715 454.685 226.535 438.875 211.965 423.585C193.175 403.875 172.715 385.965 152.245 368.115C142.575 359.685 132.245 351.895 122.165 343.885C119.825 342.025 116.945 340.375 116.755 337.015C116.495 332.295 118.425 327.925 119.605 323.445C119.915 322.275 121.405 321.995 122.395 322.135C128.005 322.945 133.465 322.425 139.095 321.735C144.685 321.055 150.045 323.985 155.435 325.595C169.075 329.665 182.525 334.565 196.375 337.705C212.075 341.265 227.535 345.585 243.085 349.645C252.235 352.035 261.245 354.955 270.305 357.625C270.295 357.625 270.885 357.905 270.885 357.905L271.375 357.425C272.715 358.895 274.435 359.195 276.305 359.065C277.485 361.075 279.375 360.915 281.285 360.705C287.645 363.065 293.955 365.545 300.375 367.725C304.565 369.145 304.635 368.945 303.805 363.335C304.415 363.155 304.695 362.775 304.655 362.195C308.375 352.175 306.425 341.545 308.065 331.265C311.675 308.545 314.885 285.745 317.875 262.935C320.225 244.985 322.565 227.035 323.805 208.955C325.555 183.505 327.205 158.025 330.065 132.685C332.765 108.715 335.525 84.6855 341.355 61.1855C341.945 58.7955 342.535 56.3555 343.505 54.1055C344.855 50.9555 347.565 49.2955 350.855 50.2855C355.875 51.7855 361.095 52.0855 366.185 53.0655C371.515 54.0955 373.555 56.7055 374.675 61.5055C377.265 72.6255 379.195 83.9155 383.135 94.6955C389.875 113.135 395.065 132.055 400.885 150.785C409.225 177.625 416.965 204.675 425.935 231.315C432.375 250.445 439.655 269.305 446.515 288.295C448.185 292.935 449.675 297.635 451.335 302.555C474.665 295.125 498.075 288.675 518.695 274.925C529.655 267.615 542.155 262.995 554.155 257.585C565.225 252.595 575.315 246.135 584.795 238.635C586.075 237.625 587.245 236.265 588.705 235.735C597.435 232.585 604.275 226.635 611.175 220.805C617.515 215.445 624.515 211.635 632.285 208.485C641.355 204.805 650.655 200.865 658.455 194.825C667.825 187.575 677.665 186.965 688.555 189.545C699.425 192.125 699.425 191.895 696.525 202.495C695.265 207.085 693.155 211.015 689.995 214.675C675.695 231.255 660.895 247.415 648.315 265.425C639.685 277.785 630.705 289.915 621.785 302.075C617.785 307.525 613.535 312.785 609.395 318.135C600.555 329.555 593.685 342.285 585.395 354.085C578.845 363.425 572.985 373.255 566.285 382.495C559.985 391.185 554.755 400.665 547.015 408.345C543.095 412.235 544.015 413.805 549.655 415.815C558.515 418.965 567.915 419.425 577.005 421.495C590.695 424.615 603.685 429.645 616.985 433.825C636.215 439.865 653.335 450.395 671.145 459.455C678.655 463.275 679.675 465.725 677.775 473.715C677.235 475.985 675.635 477.095 673.215 477.795C666.445 479.745 660.415 483.735 653.305 484.935C650.695 485.375 647.945 486.295 646.015 488.475C639.795 488.565 636.705 493.915 632.105 496.755C630.685 497.535 629.255 498.305 627.855 499.075C624.005 498.185 620.205 498.655 616.965 500.795C612.345 503.845 607.205 505.325 601.965 506.615C600.585 506.955 599.375 507.365 598.725 508.715C595.765 507.305 594.045 509.535 592.085 510.985C583.175 509.245 576.935 515.815 569.375 518.305C566.895 518.935 564.415 519.575 561.955 520.205C559.075 519.515 556.925 521.495 554.425 522.275C552.155 522.985 550.055 523.985 547.445 523.785C538.075 523.075 534.685 527.065 536.295 536.435C534.005 541.925 536.415 547.315 537.145 552.565C540.665 578.055 545.715 603.285 550.705 628.515C554.315 646.785 557.515 665.135 560.975 683.445C565.285 706.315 570.395 728.985 578.055 751.025C579.125 754.095 579.825 757.295 580.855 761.045C575.465 761.315 572.285 765.695 567.425 766.565C565.525 766.905 564.745 768.295 564.885 770.195C564.885 770.325 564.915 770.445 564.935 770.575C562.025 770.665 560.045 769.335 558.205 767.035C555.305 763.395 551.935 760.115 548.805 756.665C544.045 751.415 539.125 746.885 532.495 743.445C526.515 740.345 522.465 733.515 517.565 728.325C517.985 727.945 518.395 727.575 518.815 727.195C519.565 727.335 520.575 727.845 521.015 727.545C521.735 727.045 521.235 726.105 520.705 725.525C519.995 724.745 519.195 724.045 518.435 723.315C514.245 718.365 510.625 712.725 505.705 708.665C500.875 704.675 499.695 697.305 491.425 694.375C493.715 697.305 493.505 699.065 492.465 700.765L492.495 700.795ZM528.475 735.755C528.405 736.515 528.615 737.105 529.475 737.155C529.595 737.155 529.885 736.725 529.845 736.565C529.635 735.715 529.065 735.565 528.315 735.935C529.155 734.655 528.315 734.025 527.365 733.435C526.955 732.825 526.425 731.885 525.725 732.725C525.105 733.465 525.775 734.105 526.715 734.225C526.675 735.455 527.205 736.035 528.475 735.765L528.475 735.755ZM247.515 489.455C245.675 489.685 243.635 489.315 242.375 491.225L242.555 491.105C237.585 491.265 232.955 492.775 228.415 494.645C221.735 494.715 215.615 497.375 209.295 498.975C174.935 507.655 141.645 519.645 108.485 531.995C99.7949 535.235 91.1649 538.675 82.9449 543.075C84.0549 545.045 85.5149 545.865 87.2349 545.225C94.6249 542.495 102.365 542.655 109.895 543.365C118.995 544.215 128.635 541.315 137.175 546.815C137.785 547.205 138.905 547.315 139.575 547.035C146.645 544.145 153.715 546.285 160.655 547.265C180.805 550.115 200.545 554.825 219.605 562.065C232.095 566.805 244.835 570.685 257.705 574.205C259.535 580.805 269.115 573.505 270.305 581.235C271.925 580.305 273.085 578.345 275.405 579.005L276.015 579.195C276.545 579.005 277.075 578.825 277.615 578.635C289.315 578.425 289.015 578.475 290.675 589.775C293.795 610.975 292.995 632.215 291.965 653.475C291.555 661.945 289.995 670.425 290.205 678.865C290.555 692.795 288.965 706.575 288.225 720.415C288.135 722.135 288.275 723.645 288.855 725.175C288.155 733.575 285.625 741.805 286.365 751.185C291.935 741.865 297.395 733.415 302.165 724.595C312.985 704.585 324.865 685.205 336.255 665.535C349.575 642.545 361.675 618.905 373.555 595.155C376.055 590.155 378.455 584.735 378.135 578.765L378.035 578.925C380.175 578.105 379.795 576.275 379.755 574.585C382.305 571.305 382.855 567.175 384.305 563.445C385.625 560.035 387.435 557.875 391.265 557.425C395.605 556.915 400.075 556.525 404.185 555.155C409.065 553.535 411.945 555.525 414.865 558.895C420.795 565.735 426.185 573.015 432.125 579.855C435.305 583.515 438.585 587.275 441.385 591.375C450.655 604.985 460.185 618.415 469.725 631.835C481.175 647.945 493.855 662.975 508.695 676.125C514.205 681.005 518.765 686.955 525.045 690.995C527.395 694.615 529.315 698.635 532.205 701.745C535.455 705.235 537.755 710.215 543.395 710.865C542.915 711.775 543.735 712.135 544.155 712.665C544.175 712.445 544.295 712.155 544.205 712.015C543.925 711.635 543.565 711.325 543.235 710.985C544.425 709.135 543.775 707.255 543.195 705.455C537.755 688.535 534.545 671.115 531.425 653.665C526.835 628.075 522.595 602.405 517.515 576.915C515.565 567.125 513.555 557.285 510.905 547.565C508.515 538.775 507.545 528.915 507.875 519.365C507.725 515.065 509.875 513.255 514.065 512.355C527.905 509.395 541.685 506.165 555.425 502.755C559.555 501.735 564.135 502.015 567.725 499.105C569.525 498.625 571.615 499.285 573.125 497.715L573.105 498.005C584.615 496.485 595.475 492.595 606.365 488.785C609.215 487.785 612.085 486.865 614.915 485.825C617.495 484.885 620.035 483.835 622.585 482.825C625.385 481.705 628.105 479.965 630.995 479.595C634.965 479.085 629.055 474.385 632.845 475.355C635.865 476.125 638.505 477.125 641.395 475.595C641.765 475.405 641.845 474.685 642.395 473.485C634.995 471.445 628.115 468.105 620.465 467.095C617.565 464.435 613.965 463.385 610.285 462.265C602.335 459.855 594.445 457.245 586.605 454.495C569.355 448.445 551.845 443.585 533.495 442.395C531.355 442.255 529.045 441.835 527.985 444.535C524.035 443.015 520.935 438.695 515.875 440.865C515.265 440.385 514.705 439.815 514.045 439.435C512.615 438.625 511.115 438.085 509.885 439.765C508.475 441.695 510.385 442.455 511.275 443.585C511.585 443.975 511.725 444.505 511.945 444.965C508.255 444.965 504.445 445.145 507.525 439.535C508.035 438.605 507.745 437.115 506.695 436.685C502.705 435.055 504.145 430.425 501.705 428.005C501.285 424.635 500.875 421.255 500.465 417.885C500.525 414.995 501.755 412.755 503.875 410.755C506.645 408.155 509.205 405.315 510.135 401.435C512.685 400.235 514.555 398.195 516.365 396.155C528.515 382.425 540.765 368.755 551.375 353.775C566.095 332.995 579.905 311.595 595.475 291.405C600.445 284.955 606.065 278.885 609.525 271.345L609.405 271.475C611.045 270.855 611.965 269.585 612.535 268.005C619.585 261.025 623.255 251.715 630.495 244.025C627.725 243.865 626.705 244.625 625.535 245.425C614.915 252.665 604.155 259.685 593.565 266.965C573.215 280.945 550.255 290.295 529.495 303.575C511.705 314.955 491.795 322.355 473.405 332.665C468.885 335.195 462.335 336.455 460.165 340.265C456.845 346.095 451.245 342.495 447.885 345.605C445.415 341.975 443.665 347.395 442.545 346.375C438.195 342.435 434.495 345.155 431.605 347.645C427.905 350.825 429.935 345.605 428.495 345.985C428.905 341.625 425.745 338.435 424.735 334.455C420.175 316.455 413.285 299.225 406.535 281.955C402.085 270.555 397.445 259.205 394.265 247.335C391.825 238.215 389.285 228.945 386.045 220.255C382.115 209.715 379.945 198.785 376.135 188.305C372.245 177.585 369.765 166.495 366.925 155.485C364.715 146.905 360.855 138.795 360.465 129.655C360.355 127.155 359.465 123.285 355.595 121.515C355.775 129.505 352.725 136.525 353.305 143.955C352.265 154.305 351.025 164.645 350.215 175.015C348.285 199.565 347.065 224.185 343.315 248.565C339.025 276.445 334.345 304.255 327.895 331.725C325.665 341.245 323.475 350.765 321.175 360.265C319.115 368.785 316.995 377.295 314.745 385.765C314.115 388.145 313.135 390.415 309.865 390.405C306.755 390.405 304.145 389.555 303.785 386.245C303.395 382.625 301.275 382.055 298.305 381.515C295.605 381.025 292.995 380.175 290.215 380.455C288.235 378.935 285.945 378.695 283.565 378.785C283.105 378.485 282.685 378.045 282.175 377.925C259.365 372.195 236.585 366.375 213.725 360.835C199.725 357.445 185.795 353.585 171.345 352.415C171.525 351.775 171.325 351.495 170.775 351.575C170.765 351.575 170.735 351.965 170.825 352.025C171.005 352.165 171.265 352.215 171.485 352.295C174.645 356.835 179.005 360.195 183.015 363.875C198.435 378.025 213.305 392.775 226.495 408.995C235.305 419.825 244.035 430.705 253.105 441.325C259.605 448.935 266.935 455.435 276.395 459.155C279.275 460.285 280.335 462.275 280.695 465.435C281.345 471.075 278.175 474.035 274.205 476.825C267.175 481.765 258.995 484.355 251.395 488.115C250.155 488.915 248.105 487.405 247.335 489.545L247.515 489.425L247.515 489.455Z" fill="#432a26" fill-rule="evenodd" opacity="1" stroke="none"/>
<path d="M525.625 449.525C526.685 446.825 528.995 447.255 531.135 447.385C549.485 448.575 566.995 453.435 584.245 459.485C592.085 462.235 599.975 464.845 607.925 467.255C611.605 468.375 615.215 469.415 618.095 472.085C618.025 473.795 618.255 475.355 620.045 476.195C620.705 476.505 621.245 477.765 620.685 477.615C616.535 476.455 616.685 483.185 611.895 481.825C608.505 480.855 612.305 482.905 611.855 483.855C611.015 485.635 609.295 486.365 608.025 486.535C602.805 487.235 598.555 490.205 593.785 491.905C591.485 492.725 589.025 493.805 586.685 493.685C579.185 493.305 574.965 498.055 570.745 503.005L570.765 502.725C569.235 504.225 567.235 503.925 565.365 504.115C561.775 507.025 557.195 506.745 553.065 507.765C539.325 511.165 525.545 514.405 511.705 517.365C507.515 518.255 505.365 520.075 505.515 524.375C500.595 529.585 502.435 535.705 503.335 541.615C503.625 543.525 504.745 546.375 503.115 546.915C498.225 548.515 500.455 551.285 501.215 554.005C501.955 556.625 503.065 559.235 503.225 561.895C504.175 577.865 508.935 593.125 511.925 608.695C516.625 633.125 522.335 657.355 527.575 681.685C528.205 684.615 529.265 687.655 528.975 690.525C528.675 693.575 524.685 693.325 522.815 695.195C522.655 695.355 522.715 695.725 522.675 695.995C516.385 691.955 511.835 686.005 506.325 681.125C491.475 667.975 478.805 652.945 467.355 636.835C457.815 623.415 448.295 609.975 439.015 596.375C436.215 592.265 432.935 588.515 429.755 584.855C423.815 578.015 418.425 570.735 412.495 563.895C409.575 560.525 406.695 558.535 401.815 560.155C397.705 561.515 393.245 561.915 388.895 562.425C385.065 562.875 383.265 565.035 381.935 568.445C380.485 572.175 379.935 576.295 377.385 579.585C375.565 580.535 375.375 582.135 375.665 583.925L375.765 583.765C369.695 589.025 367.735 596.885 363.935 603.485C359.815 610.655 359.785 611.965 351.105 611.565C349.885 611.505 348.915 612.075 348.435 613.105C347.605 614.875 346.655 616.555 345.085 617.715C342.545 619.605 344.675 623.285 343.615 624.145C341.775 625.655 338.655 625.915 336.695 627.675C335.775 628.505 334.685 630.435 337.175 631.415C341.025 632.945 341.835 634.335 339.305 637.085C334.665 642.115 333.195 648.545 330.515 654.445C329.605 656.445 328.885 658.545 327.805 660.445C319.565 674.885 311.625 689.535 302.715 703.555C300.225 707.465 298.545 713.005 292.925 714.475C292.955 714.445 292.975 714.415 293.005 714.385C293.635 720.815 289.315 725.195 286.465 730.195C285.885 728.645 285.745 727.145 285.835 725.415C286.575 711.575 288.165 697.795 287.815 683.865C287.605 675.425 289.165 666.955 289.575 658.475C290.595 637.225 291.395 615.975 288.285 594.775C286.625 583.475 286.925 583.425 275.235 583.625C275.325 582.505 276.095 580.665 274.165 580.955C272.855 581.145 273.665 583.035 273.635 584.185C273.635 584.185 273.025 583.995 273.035 583.985C267.955 579.385 262.065 577.725 255.325 579.185C242.455 575.665 229.705 571.785 217.225 567.045C198.165 559.805 178.435 555.095 158.275 552.245C151.325 551.265 144.265 549.125 137.195 552.015C136.525 552.295 135.405 552.185 134.795 551.795C126.255 546.305 116.615 549.195 107.515 548.345C99.9849 547.645 92.2449 547.485 84.8549 550.205C83.1349 550.845 81.6749 550.025 80.5649 548.055C88.7849 543.655 97.4149 540.215 106.105 536.975C139.265 524.615 172.565 512.625 206.915 503.955C213.235 502.355 219.355 499.705 226.035 499.625C231.615 501.915 235.845 498.805 240.175 496.085L239.995 496.205C241.695 495.565 243.945 496.535 245.135 494.435L244.955 494.555C246.305 494.075 247.665 493.605 249.015 493.125C256.615 489.365 264.795 486.785 271.825 481.835C275.795 479.035 278.965 476.085 278.315 470.445C277.955 467.285 276.895 465.295 274.015 464.165C264.555 460.445 257.225 453.955 250.725 446.335C241.665 435.715 232.925 424.835 224.115 414.005C210.925 397.795 196.055 383.045 180.635 368.885C176.625 365.205 172.265 361.845 169.105 357.305L168.975 357.425C183.425 358.595 197.355 362.455 211.355 365.845C234.205 371.385 256.995 377.205 279.805 382.935C280.305 383.065 280.735 383.505 281.195 383.795C282.235 384.995 283.115 386.385 284.345 387.335C286.645 389.125 287.655 387.915 287.845 385.455C290.635 385.175 293.245 386.025 295.935 386.515C298.895 387.055 301.015 387.625 301.415 391.245C301.775 394.555 304.385 395.395 307.495 395.405C310.765 395.405 311.745 393.145 312.375 390.765C314.615 382.295 316.735 373.785 318.805 365.265C321.105 355.765 323.295 346.235 325.525 336.725C331.975 309.245 336.655 281.435 340.945 253.565C344.695 229.185 345.925 204.565 347.845 180.015C348.655 169.645 349.895 159.315 350.935 148.955C352.835 148.765 355.875 148.535 355.855 150.295C355.825 152.645 356.655 156.795 351.875 156.295C352.395 159.725 356.805 158.075 357.095 161.295C355.195 162.345 351.995 162.065 353.395 165.945C355.625 172.095 356.795 178.595 359.625 184.545C359.845 185.005 360.095 185.445 360.325 185.895C360.325 185.635 360.285 185.155 360.325 185.155C364.245 184.575 364.825 185.025 364.135 188.045C361.965 197.545 364.335 204.585 371.835 210.875C374.105 212.775 374.625 217.675 372.945 217.525C366.755 216.945 369.675 220.205 371.025 222.015C372.925 224.575 373.075 227.655 374.355 230.325C376.205 234.205 372.765 241.835 381.635 241.015C381.915 240.985 382.415 242.375 382.645 243.145C383.325 245.485 384.165 247.825 383.525 250.445C381.175 248.895 383.055 244.515 379.125 244.275C379.035 244.525 378.805 244.815 378.865 245.025C384.785 264.095 390.885 283.115 397.685 301.905C398.265 303.505 399.395 304.565 400.545 305.765C404.925 310.355 404.565 313.145 398.765 317.015C395.885 318.935 396.485 321.385 398.495 321.905C402.575 322.965 403.095 325.215 402.945 328.715C402.795 332.385 405.025 335.305 408.065 336.555C411.615 338.025 412.965 340.505 414.055 343.745C414.745 345.795 415.855 347.755 417.035 349.585C420.005 354.225 420.515 354.255 426.105 350.955C427.545 350.575 425.515 355.795 429.215 352.615C432.105 350.135 435.805 347.415 440.155 351.345C441.285 352.365 443.035 346.945 445.495 350.575C448.845 347.465 454.445 351.065 457.775 345.235C459.945 341.425 466.495 340.165 471.015 337.635C489.395 327.325 509.315 319.915 527.105 308.545C547.865 295.265 570.835 285.915 591.175 271.935C601.765 264.655 612.525 257.635 623.145 250.395C624.315 249.595 625.325 248.835 628.105 248.995C620.875 256.685 617.205 265.995 610.145 272.975C608.005 273.145 606.875 274.225 607.015 276.445L607.135 276.315C605.315 276.255 603.735 276.615 601.835 275.185C597.325 271.795 594.875 272.725 592.095 277.625C591.025 279.515 589.855 281.555 588.215 282.885C584.795 285.655 584.405 288.005 588.405 290.345C591.685 292.265 591.305 293.925 589.045 296.795C585.605 301.165 583.415 306.265 577.525 308.635C572.485 310.665 570.085 316.395 565.895 319.715C560.685 323.845 557.305 328.315 559.895 336.415C552.585 332.905 548.755 336.915 545.335 341.205C539.475 348.565 533.645 355.945 527.335 362.925C520.335 370.665 516.275 380.485 509.305 388.225C506.685 391.135 504.895 394.505 503.105 397.895C500.245 403.305 501.065 404.755 507.755 406.415C506.825 410.295 504.265 413.135 501.495 415.735C499.375 417.725 498.145 419.965 498.095 422.865C494.975 427.305 490.245 430.915 490.065 437.885C493.655 435.985 496.495 434.485 499.345 432.985C501.795 435.415 500.355 440.035 504.335 441.665C505.375 442.095 505.675 443.585 505.165 444.515C502.085 450.115 505.895 449.955 509.585 449.945L509.435 449.825C510.245 452.025 512.015 451.755 513.775 451.495L513.565 451.425C515.965 453.355 518.885 454.335 521.775 454.655C537.045 456.375 552.235 458.615 567.335 461.455C567.705 462.275 568.365 462.705 569.215 462.545C569.825 462.425 569.975 461.745 569.555 461.635C568.825 461.455 568.015 461.585 567.245 461.575C565.335 459.505 562.945 458.625 560.175 458.185C549.725 456.525 539.305 454.695 528.865 452.925C528.345 451.255 527.455 449.945 525.635 449.505L525.625 449.525ZM372.135 578.605C369.105 580.215 367.775 582.735 367.545 586.445C371.285 584.775 372.915 582.465 372.435 578.885C373.365 578.655 374.085 578.215 372.875 577.505C372.415 577.235 371.975 577.945 372.135 578.615L372.135 578.605ZM316.225 504.355C316.695 509.055 320.395 511.335 323.405 514.205C324.985 515.715 328.055 516.105 327.685 519.285L327.505 519.495L327.715 519.245C331.385 518.525 333.675 521.275 336.445 522.765C343.725 526.685 351.005 530.565 359.145 532.455C371.005 538.285 383.315 540.065 396.155 536.825C387.605 537.155 379.045 537.345 370.595 535.185C369.045 534.785 367.225 534.775 367.325 532.445C371.415 527.805 376.495 530.135 381.055 530.885C402.095 534.345 420.705 529.605 436.685 515.285C448.035 505.115 457.035 493.015 465.285 480.325C466.755 478.065 467.715 475.425 468.595 472.845C471.375 464.705 470.615 463.735 463.485 458.775C458.155 455.065 456.345 456.305 454.275 461.515C450.085 472.035 442.145 478.915 432.995 484.775C429.065 487.295 425.225 489.975 421.165 492.235C414.655 495.865 407.685 498.475 400.255 499.365C379.265 501.885 359.545 497.185 340.585 488.465C334.605 485.715 328.625 482.965 322.665 480.155C319.195 478.515 317.145 479.625 315.425 482.975C313.255 487.195 313.295 491.695 312.915 496.175C310.985 500.135 311.885 502.945 316.245 504.355L316.225 504.355ZM410.675 432.275C411.295 432.405 412.645 432.625 413.965 432.985C418.765 434.305 421.965 431.995 424.305 428.215C425.445 426.375 426.165 424.255 426.965 422.215C429.175 416.635 429.575 410.645 430.825 404.845C432.025 399.295 430.845 396.765 425.245 395.025C422.905 394.305 420.435 393.895 417.995 393.665C410.685 392.965 408.715 394.055 405.765 400.645C402.605 407.715 400.455 415.075 400.225 422.905C399.975 431.425 401.135 432.585 410.675 432.275ZM356.035 421.035C356.035 418.845 356.205 416.645 356.005 414.475C355.465 408.525 353.515 406.385 347.685 404.995C342.118 403.669 338.042 405.629 335.455 410.875C334.855 412.095 333.765 413.135 333.395 414.405C330.925 422.775 328.825 430.875 332.945 439.725C335.705 445.665 340.485 444.215 344.655 445.085C348.935 445.975 350.985 442.745 352.605 439.395C355.405 433.595 356.295 427.415 356.055 421.045L356.035 421.035ZM571.945 463.535C579.805 465.875 585.935 467.695 592.055 469.515C586.185 466.825 580.755 462.515 571.945 463.535ZM500.355 543.955C500.775 540.235 500.015 536.665 498.075 533.245C498.465 536.885 497.555 540.135 500.355 543.955ZM596.285 470.395C599.585 472.215 602.405 473.615 605.925 471.895C602.685 472.375 600.445 468.425 596.285 470.395ZM314.025 677.465C314.985 675.125 314.665 673.205 312.265 672.025C311.545 671.665 310.415 671.935 310.245 672.735C309.755 675.045 312.485 675.425 313.155 677.115C313.225 677.285 313.635 677.325 314.025 677.475L314.025 677.465ZM366.985 590.315C366.795 589.845 366.645 588.985 366.425 588.975C365.605 588.915 364.845 589.345 364.725 590.225C364.665 590.635 365.005 591.425 365.305 591.495C366.155 591.695 366.765 591.195 366.995 590.315L366.985 590.315Z" fill="#00a0bd" fill-rule="evenodd" opacity="1" stroke="none"/>
<path d="M315.275 491.225C315.655 486.745 315.615 482.255 317.785 478.025C319.505 474.675 321.555 473.575 325.025 475.205C330.975 478.015 336.965 480.765 342.945 483.515C361.905 492.235 381.625 496.935 402.615 494.415C410.045 493.525 417.015 490.915 423.525 487.285C427.595 485.015 431.435 482.335 435.355 479.825C444.515 473.965 452.445 467.085 456.635 456.565C458.705 451.355 460.515 450.115 465.845 453.825C472.975 458.785 473.735 459.765 470.955 467.895C470.075 470.475 469.115 473.115 467.645 475.375C459.395 488.065 450.385 500.165 439.045 510.335C423.065 524.655 404.445 529.395 383.415 525.935C378.855 525.185 373.775 522.865 369.685 527.495L369.795 527.595C370.505 526.065 369.965 524.435 368.495 524.555C365.935 524.765 362.355 523.395 361.425 527.615L361.495 527.495C353.355 525.605 346.075 521.725 338.795 517.805C336.025 516.315 333.745 513.555 330.065 514.285L330.035 514.335C330.415 511.155 327.345 510.765 325.765 509.255C322.755 506.385 319.055 504.095 318.585 499.405L318.465 499.515C320.725 500.025 322.165 501.615 323.295 503.455C325.825 507.575 329.215 508.175 333.345 506.135C334.405 510.605 338.065 510.975 342.625 512.555C340.685 507.045 337.265 506.255 333.555 505.895C328.825 500.085 321.875 496.665 317.205 490.775C316.635 490.055 315.775 490.635 315.165 491.195L315.255 491.235L315.275 491.225ZM351.615 515.945C351.775 516.845 352.335 517.375 353.225 517.285C353.835 517.225 354.045 516.665 353.655 516.325C353.035 515.785 352.275 515.585 351.495 516.095C350.685 511.155 346.565 513.115 343.795 512.265C345.625 515.185 348.085 516.735 351.615 515.945Z" fill="#432a26" fill-rule="evenodd" opacity="1" stroke="none"/>
<path d="M413.055 427.325C403.515 427.635 402.355 426.475 402.605 417.955C402.835 410.125 404.985 402.775 408.145 395.695C411.085 389.105 413.065 388.015 420.375 388.715C422.815 388.945 425.285 389.355 427.625 390.075C433.235 391.805 434.405 394.335 433.205 399.895C431.955 405.695 431.555 411.685 429.345 417.265C428.545 419.305 427.825 421.415 426.685 423.265C424.335 427.045 421.145 429.355 416.345 428.035C415.035 427.675 413.675 427.455 413.055 427.325Z" fill="#432a26" fill-rule="evenodd" opacity="1" stroke="none"/>
<path d="M358.415 416.075C358.655 422.455 357.775 428.625 354.965 434.435C353.355 437.785 351.295 441.015 347.015 440.125C342.845 439.255 338.065 440.705 335.305 434.765C331.185 425.915 333.285 417.805 335.755 409.445C336.125 408.175 337.215 407.135 337.815 405.915C340.408 400.675 344.485 398.715 350.045 400.035C355.885 401.425 357.825 403.555 358.365 409.515C358.565 411.685 358.395 413.885 358.395 416.075L358.415 416.075Z" fill="#432a26" fill-rule="evenodd" opacity="1" stroke="none"/>
<path d="M515.945 446.485C521.115 446.135 526.095 447.715 531.215 447.985C541.665 449.755 552.085 451.585 562.535 453.245C565.305 453.685 567.695 454.565 569.605 456.635L569.695 456.515C554.595 453.665 539.415 451.425 524.145 449.715C521.255 449.395 518.335 448.415 515.935 446.485L515.945 446.485Z" fill="#432a26" fill-rule="evenodd" opacity="1" stroke="none"/>
<path d="M369.685 527.495C369.595 529.825 371.415 529.835 372.955 530.235C381.405 532.395 389.965 532.195 398.515 531.875C385.665 535.115 373.365 533.345 361.505 527.505L361.435 527.625C364.225 527.845 367.015 529.825 369.795 527.605L369.685 527.505L369.685 527.495Z" fill="#432a26" fill-rule="evenodd" opacity="1" stroke="none"/>
<path d="M569.605 456.645C570.375 456.645 571.185 456.525 571.915 456.705C572.335 456.805 572.195 457.495 571.575 457.615C570.725 457.775 570.065 457.345 569.695 456.525L569.595 456.645L569.605 456.645Z" fill="#432a26" fill-rule="evenodd" opacity="1" stroke="none"/>
<path d="M511.815 444.885C512.895 444.785 513.975 444.685 515.055 444.575C515.425 445.235 515.795 445.895 516.155 446.555C514.395 446.815 512.625 447.085 511.815 444.885Z" fill="#432a26" fill-rule="evenodd" opacity="1" stroke="none"/>
</g>
</svg>
